SplineFontDB: 3.0
FontName: Betamatic
FullName: Betamatic
FamilyName: Betamatic
Weight: Book
Copyright: vernon adams 2011-12
Version: 001.001
ItalicAngle: 0
UnderlinePosition: -102
UnderlineWidth: 102
Ascent: 1638
Descent: 410
sfntRevision: 0x00010000
LayerCount: 2
Layer: 0 0 "Back"  1
Layer: 1 0 "Fore"  0
XUID: [1021 14 500265001 8164902]
FSType: 0
OS2Version: 3
OS2_WeightWidthSlopeOnly: 0
OS2_UseTypoMetrics: 1
CreationTime: 1333030389
ModificationTime: 1335456651
PfmFamily: 81
TTFWeight: 400
TTFWidth: 5
LineGap: 0
VLineGap: 0
Panose: 0 0 0 0 0 0 0 0 0 0
OS2TypoAscent: 410
OS2TypoAOffset: 1
OS2TypoDescent: 357
OS2TypoDOffset: 1
OS2TypoLinegap: 0
OS2WinAscent: -172
OS2WinAOffset: 1
OS2WinDescent: -507
OS2WinDOffset: 1
HheadAscent: -172
HheadAOffset: 1
HheadDescent: 507
HheadDOffset: 1
OS2SubXSize: 1331
OS2SubYSize: 1228
OS2SubXOff: 0
OS2SubYOff: 153
OS2SupXSize: 1331
OS2SupYSize: 1228
OS2SupXOff: 0
OS2SupYOff: 716
OS2StrikeYSize: 102
OS2StrikeYPos: 813
OS2Vendor: 'newt'
OS2CodePages: 20000093.00000000
OS2UnicodeRanges: 00000007.00000000.00000000.00000000
MarkAttachClasses: 1
DEI: 91125
LangName: 1033 "" "" "" "vernon adams : Betamatic : 2011-12" "" "Version 1.000" "" "vernon adams" "" "" "" "" "" "" "http://scripts.sil.org/OFL" "" "Betamatic" 
Encoding: UnicodeBmp
Compacted: 1
UnicodeInterp: none
NameList: Adobe Glyph List
DisplaySize: -48
AntiAlias: 1
FitToEm: 1
WidthSeparation: 307
WinInfo: 0 17 10
BeginPrivate: 9
BlueValues 27 [-56 0 1378 1378 1595 1595]
OtherBlues 11 [-434 -434]
BlueScale 8 0.012692
BlueShift 2 12
StdHW 4 [96]
StdVW 5 [118]
StemSnapH 16 [96 104 111 386]
StemSnapV 16 [97 118 141 195]
ForceBold 4 true
EndPrivate
BeginChars: 65539 415

StartChar: .notdef
Encoding: 65536 -1 0
Width: 1332
Flags: W
HStem: -102 306<368 964> 888 306<368 964>
VStem: 31 337<204 888> 964 337<204 888>
LayerCount: 2
Fore
SplineSet
368 204 m 1
 964 204 l 1
 964 888 l 1
 368 888 l 1
 368 204 l 1
31 -102 m 1
 31 1194 l 1
 1301 1194 l 1
 1301 -102 l 1
 31 -102 l 1
EndSplineSet
EndChar

StartChar: exclam
Encoding: 33 33 2
Width: 458
Flags: W
HStem: -145 311<70 398>
VStem: 70 328<-145 166>
LayerCount: 2
Fore
SplineSet
103.716 209 m 1
 54.2246 1655 l 1
 446.126 1655 l 1
 360.055 209 l 1
 103.716 209 l 1
398 -145 m 1
 70 -145 l 1
 70 166 l 1
 398 166 l 1
 398 -145 l 1
EndSplineSet
EndChar

StartChar: quotedbl
Encoding: 34 34 3
Width: 647
Flags: W
HStem: 1575.06 104.939<386.387 508.537>
VStem: 497.305 99.389<1203.04 1575.28> 508.537 104.926<1203.04 1575.28>
LayerCount: 2
Fore
SplineSet
36.2955 1671.12 m 1xc0
 201.47 1680.21 l 1
 272.041 1669.45 l 1
 271.613 1672.94 l 1
 420.078 1678.36 l 1
 420.389 1683.18 l 1
 469.642 1680 l 1
 519 1680 l 1
 519 1676.82 l 1
 613.463 1670.72 l 1xa0
 596.695 1114.96 l 1
 344.771 1076.7 l 1
 333.408 1169.31 l 1
 325.69 1071.21 l 1
 67.4192 1101.32 l 1
 36.2955 1671.12 l 1xc0
466.564 1577.99 m 1
 386.387 1575.06 l 1
 433.229 1193.3 l 1
 497.305 1203.04 l 1xc0
 508.537 1575.28 l 1
 466.564 1577.99 l 1
EndSplineSet
EndChar

StartChar: numbersign
Encoding: 35 35 4
Width: 1196
Flags: W
HStem: 474 311<-15 149.779 523.722 640.571> 850 310<594.226 707.19 1101.32 1225>
VStem: 56.7794 366.265<-146 220.265>
DStem2: 149.779 474 487.044 479 0.151504 0.988457<-475.512 0 367.029 388.869 745.417 1073.87>
LayerCount: 2
Fore
SplineSet
523.722 788 m 1
 696.227 788 l 1
 707.19 850 l 1
 533.552 850 l 1
 523.722 788 l 1
30 1149 m 1
 260.617 1149 l 1
 314.458 1535.17 l 1
 448.202 1699.25 l 1
 663.064 1572.08 l 1
 594.226 1160 l 1
 765.372 1160 l 1
 954.096 1719.88 l 1
 1186.05 1577.87 l 1
 1101.32 1158 l 1
 1225 1158 l 1
 1225 857 l 1
 1053.75 857 l 1
 1048.85 812 l 1
 1179 812 l 1
 1179 482 l 1
 986.598 482 l 1
 783.336 -238.188 l 1
 512.66 -102.85 l 1
 640.571 479 l 1
 487.044 479 l 1
 423.044 -146 l 1
 56.7794 -146 l 1
 149.779 474 l 1
 -15 474 l 1
 -15 785 l 1
 196.49 785 l 1
 208.207 858.455 l 1
 30 937.897 l 1
 30 1149 l 1
EndSplineSet
EndChar

StartChar: dollar
Encoding: 36 36 5
Width: 1162
Flags: W
HStem: -17 21G<531.429 730.541>
LayerCount: 2
Fore
SplineSet
609.501 1529.78 m 1
 736.983 1513.95 987 1473.35 987 1330.97 c 0
 987 1238.39 904.804 1195.33 834.726 1195.33 c 0
 769.693 1195.33 700.733 1205.96 641.938 1218.2 c 1
 645.128 1162.34 662.843 1099.96 682.103 1036.32 c 1
 826.429 945.47 1097 621.934 1097 463.409 c 0
 1097 308.857 971.191 220.799 860.911 181.132 c 1
 861.668 168.324 862 159.149 862 146.904 c 0
 862 105.828 835.9 -17 625.182 -17 c 0
 437.676 -17 370.736 74.7637 370.736 130.891 c 2
 370.736 145.979 l 1
 253.635 155.466 119.324 191.218 111.535 339.171 c 1
 144.188 420.374 l 1
 177.146 451.417 219.166 470.945 268 470.945 c 2
 345.969 470.945 l 1
 332.782 588.979 319.982 725.156 315.278 777.597 c 1
 224.982 902.438 91 1022.85 91 1231.12 c 0
 91 1296.48 113.688 1422.98 230.008 1493.02 c 0
 230.002 1493.96 230 1493.94 230 1494.88 c 0
 230 1523.35 245.307 1639 379.467 1639 c 0
 518.942 1639 589.927 1584.3 609.501 1529.78 c 1
EndSplineSet
EndChar

StartChar: percent
Encoding: 37 37 6
Width: 2044
Flags: W
HStem: -48 266.483<1426.87 1577.23> -24.752 21G<671.299 734.864> 599 955<288.358 655.869> 631 310<1414.25 1571.87>
VStem: 98.9814 344.399<917.792 1316.39> 526.605 370.864<1062.07 1306.13> 990.292 383.704<278.625 511.547> 1612.92 341.075<247.334 600.763>
DStem2: 388.701 100.574 724.961 -24.752 0.465746 0.884919<45.7083 45.7083 1086.62 1645.5>
LayerCount: 2
Fore
SplineSet
1458.3 631 m 2x9f
 1447.15 631 l 1
 1413.02 622.453 1374 498.751 1374 389 c 2
 1374 371.103 l 1
 1380.48 345.784 1430.05 249.891 1456.27 218.483 c 1
 1606.39 225.567 1612.92 292.814 1612.92 365.185 c 0
 1612.92 372.093 1612.87 379.047 1612.87 386 c 2
 1612.87 434 l 2
 1612.87 551.312 1606.23 631 1458.3 631 c 2x9f
487.801 914.602 m 1
 511.728 945.418 526.605 1029.68 526.605 1093 c 0
 526.605 1160.23 514.388 1267.93 484.866 1319.12 c 1
 464.072 1261.38 445.069 1179.46 443.381 1164.95 c 1
 443.678 1104.91 465.296 972.393 487.801 914.602 c 1
897.468 1060.74 m 1
 1140.95 1564.15 l 1
 1505.8 1458.84 l 1
 1195.71 874.968 l 1
 1263.5 915.405 1353.63 941 1473.43 941 c 0
 1925.77 941 1954 620.453 1954 455.059 c 2
 1954 406.56 l 2
 1954 242.337 1876.52 -48 1424.8 -48 c 0x9f
 1040.55 -48 990.292 322.751 990.292 422 c 2
 990.292 461 l 2
 990.292 475.826 990.459 493.473 991.314 513.173 c 1
 724.961 -24.752 l 1
 388.701 100.574 l 1
 663.311 627.6 l 1
 611.099 609.542 547.884 599 471.481 599 c 0
 101.264 599 98.9814 979.473 98.9814 1092.66 c 0
 98.9814 1098.95 99 1104.68 99 1109.73 c 0
 99 1175.28 121.769 1554 429.328 1554 c 0x6f
 851.638 1554 897.338 1214.37 897.338 1070 c 0
 897.338 1067.09 897.385 1064 897.468 1060.74 c 1
EndSplineSet
EndChar

StartChar: ampersand
Encoding: 38 38 7
Width: 1626
Flags: W
HStem: 96 288<446.132 749.361> 96.9681 297.032<1359.33 1528.68> 688.537 288.463<1432 1592.47>
VStem: 9 329<475.263 728.474> 1000 648<782.898 954.355>
LayerCount: 2
Fore
SplineSet
1466.42 1005.04 m 1xb8
 1501.62 999.481 1648 987.513 1648 847 c 0
 1648 696.857 1480.66 689.128 1431.76 688.537 c 1
 1431.27 680.079 1430.82 673.25 1430.37 667.129 c 1
 1432.4 653.171 1432 648.377 1432 644 c 0
 1432 577.312 1395.43 481.303 1358.8 398.162 c 1
 1370.14 395.39 1381.04 394 1392 394 c 0
 1415.29 394 1452.23 400 1499 400 c 2
 1528.68 400 l 1
 1651 323.197 l 1
 1651 267 l 2
 1651 102.683 1476.2 96.9681 1423.62 96.9681 c 0x78
 1419.69 96.9681 1416.44 97 1414 97 c 0
 1304.52 97 1210.36 132.139 1116.18 168.096 c 1
 965.596 122.647 817.397 96 634 96 c 0
 254.603 96 9 300.487 9 534 c 0
 9 800.617 118.777 965.089 315.161 1164.18 c 1
 307.728 1232.6 287 1311.87 287 1406 c 2
 287 1576 l 2
 287 1679 368.44 1830 579 1830 c 0
 699.398 1830 997.529 1821.65 1051.22 1639.4 c 0
 1054.04 1628.11 1057 1617.11 1057 1600 c 0
 1057 1555.86 1047.56 1519.85 1044.86 1503.26 c 1
 1097.12 1451 l 1
 1025.37 1379.25 l 1
 947.672 1298.91 766.917 1131.53 728.78 1075.95 c 1
 750.752 990.069 926.523 690.213 1057.23 560.556 c 1
 1084.45 607.431 1099.2 655.051 1106.11 703.913 c 1
 1078.17 713.85 1051.31 728.655 1027.98 752.924 c 2
 1000 782.898 l 1
 1000 977 l 1
 1102 977 l 2
 1211.4 977 1386.86 984.245 1466.42 1005.04 c 1xb8
428.541 794.059 m 1
 363.318 717.057 338 641.962 338 569 c 0
 338 513.346 386.778 384 674 384 c 0xb8
 691.795 384 721.018 385.988 750.404 389.145 c 1
 605.182 513.475 501.482 647.077 428.541 794.059 c 1
EndSplineSet
EndChar

StartChar: quoteright
Encoding: 8217 8217 8
Width: 581
Flags: W
HStem: 1091 589<174.945 348.03>
VStem: 96 457<1388.25 1587.81>
LayerCount: 2
Fore
SplineSet
329 1680 m 0
 468.273 1680 522.332 1577.31 553 1514.84 c 1
 553 1485 l 2
 553 1469.77 549.226 1455.18 547.203 1449.15 c 1
 533.986 1318.43 406.89 1091 205 1091 c 2
 24 1091 l 1
 24 1316.25 l 1
 65.9538 1346.21 l 2
 87.6206 1362.21 108.748 1375.01 127.617 1386.86 c 1
 108.525 1416.39 96 1450.86 96 1491 c 0
 96 1639.65 252.906 1680 329 1680 c 0
EndSplineSet
EndChar

StartChar: parenleft
Encoding: 40 40 9
Width: 612
Flags: W
HStem: -463 2216<74.37 557.031>
VStem: 10 337<531.445 1087.18>
LayerCount: 2
Fore
SplineSet
559.992 1649.11 m 1
 555.603 1367.16 347.896 1105.7 347 879.898 c 0
 347 486.002 544.029 53.9435 655.307 -285.638 c 1
 669.053 -324.912 l 1
 650.753 -363.546 l 1
 620.067 -423.457 557.031 -463 484 -463 c 0
 74.37 -463 10 754.966 10 881 c 0
 10 961.762 65.0652 1753 399 1753 c 2
 561.99 1753 l 1
 559.992 1649.11 l 1
EndSplineSet
EndChar

StartChar: parenright
Encoding: 41 41 10
Width: 634
Flags: W
HStem: -405 2128<84 506.974>
VStem: 298 337<475.799 837.823>
LayerCount: 2
Fore
SplineSet
132 -405 m 0
 77.0975 -405 -40 -373.126 -40 -255 c 0
 -40 -145.374 77.8934 -33.1729 85.9397 -19.3154 c 0
 205.865 185.597 298 584.825 298 815 c 0
 298 1040.47 84 1351.8 84 1610 c 2
 84 1723 l 1
 234 1723 l 2
 580.145 1723 611.479 927.366 628.401 852.67 c 1
 635 837.823 l 1
 635 815 l 2
 635 688.077 506.974 -405 132 -405 c 0
EndSplineSet
EndChar

StartChar: asterisk
Encoding: 42 42 11
Width: 1417
Flags: W
HStem: 994 306<98.1316 302.716 1032.55 1245.73>
LayerCount: 2
Fore
SplineSet
45 1300 m 1
 302.716 1300 l 1
 140.335 1530.61 l 1
 373.26 1676.76 l 1
 650.688 1400.31 l 1
 958.005 1694.95 l 1
 1209.59 1541.93 l 1
 1032.55 1296 l 1
 1245.73 1296 l 1
 1343 1172.69 l 1
 1343 983 l 1
 1032.24 983 l 1
 1241.31 726.015 l 1
 972.754 561.086 l 1
 683.364 861.122 l 1
 444.772 595 l 1
 303.17 595 l 1
 132.536 712.218 l 1
 331.544 994 l 1
 98.1316 994 l 1
 45 1130.42 l 1
 45 1300 l 1
EndSplineSet
EndChar

StartChar: plus
Encoding: 43 43 12
Width: 971
Flags: W
HStem: 497 313<98.0428 294 659.731 884>
VStem: 294 352<422.269 489 810 965.305>
LayerCount: 2
Fore
SplineSet
294 497 m 1
 20.9053 497 l 1
 98.0428 810 l 1
 294 810 l 1
 294 965.305 l 1
 431.826 1070 l 1
 646 1070 l 1
 646 803 l 1
 884 803 l 1
 884 489 l 1
 659.731 489 l 1
 678.582 337.336 l 1
 483.799 213.006 l 1
 294 327.16 l 1
 294 497 l 1
EndSplineSet
EndChar

StartChar: comma
Encoding: 44 44 13
Width: 563
Flags: W
HStem: -304 590<164.945 337.987>
VStem: 86 457<-4.9662 193.805>
LayerCount: 2
Fore
SplineSet
319 286 m 0
 457.947 286 512.149 184.687 543 121.843 c 1
 543 91 l 2
 543 77.1543 540.42 66.0544 538.408 58.802 c 1
 527.22 -71.4598 398.817 -304 195 -304 c 2
 14 -304 l 1
 14 -79.5 l 1
 54.2093 -49.343 l 2
 74.4068 -33.8979 97.9879 -18.9722 117.636 -6.28296 c 1
 99.3599 21.6958 86 56.8678 86 97 c 0
 86 245.651 242.906 286 319 286 c 0
EndSplineSet
EndChar

StartChar: hyphen
Encoding: 45 45 14
Width: 856
Flags: W
HStem: 560.803 293.319<51 344.319> 614.878 293.319<440.681 734>
DStem2: 51 854.122 51 560.803 0.99688 0.0789269<0 661.987>
LayerCount: 2
Fore
SplineSet
734 614.878 m 1x40
 51 560.803 l 1
 51 854.122 l 1x80
 734 908.197 l 1
 734 614.878 l 1x40
EndSplineSet
EndChar

StartChar: period
Encoding: 46 46 15
Width: 492
Flags: W
HStem: -138 356<116.981 375.104>
VStem: 46 399<-73.5571 148.681>
LayerCount: 2
Fore
SplineSet
46 37 m 0
 46 155.384 158.048 218 248 218 c 0
 339.913 218 445 151.786 445 39 c 0
 445 -93.907 317.227 -138 238 -138 c 0
 146.972 -138 46 -73.2695 46 37 c 0
EndSplineSet
EndChar

StartChar: slash
Encoding: 47 47 16
Width: 744
Flags: W
DStem2: -87.8437 -51.8061 213.691 -163.052 0.317097 0.948393<0 1796.93>
LayerCount: 2
Fore
SplineSet
-87.8437 -51.8061 m 1
 474.373 1654.92 l 1
 794.867 1575.16 l 1
 213.691 -163.052 l 1
 -87.8437 -51.8061 l 1
EndSplineSet
EndChar

StartChar: zero
Encoding: 48 48 17
Width: 1367
Flags: W
HStem: -95 195<705.92 814.561> 1254 309<474.802 641.028>
VStem: 137 406.619<409.472 858.645> 137.003 351.903<767.974 1232.29> 137.003 330.317<831.863 1248.19> 927.799 341.23<284.733 752.896>
LayerCount: 2
Fore
SplineSet
137.003 751.898 m 2xcc
 137.003 1156.04 l 2xd4
 137.003 1326.33 172.485 1563 530.535 1563 c 0
 1265.49 1563 1269.03 782.265 1269.03 519.906 c 0
 1269.03 507.384 1269 495.802 1269 485.3 c 0
 1269 363.479 1265.1 -95 732.735 -95 c 0
 143.195 -95 137 610.805 137 744.117 c 0xe4
 137 746.979 137.003 749.577 137.003 751.898 c 2xcc
543.619 688 m 0xe4
 543.619 533.263 631.537 100.807 786.075 100 c 1
 832.589 110.136 927.799 371.745 927.799 466 c 0
 927.799 701.525 788.461 1254 530.535 1254 c 0
 472.057 1254 467.32 1241.36 467.32 1237.26 c 0xcc
 467.32 1131.36 488.906 1014.55 488.906 888 c 0xd4
 488.906 869.043 543.619 790.426 543.619 688 c 0xe4
EndSplineSet
EndChar

StartChar: one
Encoding: 49 49 18
Width: 1095
Flags: W
HStem: -18 313<230 395.227> 1288 283<82 297.493>
DStem2: 696.452 1519.77 297.493 1288 0.0979494 -0.995191<191.581 1189.38>
LayerCount: 2
Fore
SplineSet
918 -18 m 1
 230 -18 l 1
 230 295 l 1
 395.227 295 l 1
 297.493 1288 l 1
 82 1288 l 1
 82 1571 l 1
 443.676 1571 l 1
 696.452 1519.77 l 1
 758.798 1052.1 l 1
 811.857 268.603 l 1
 918 268.603 l 1
 918 -18 l 1
EndSplineSet
EndChar

StartChar: two
Encoding: 50 50 19
Width: 1169
Flags: W
HStem: -98 294.632<689.777 1044.73> -98 278.947<656.388 1011.34> 1182.6 404.402<445.794 668.396>
VStem: 733.542 353.186<990.79 1297.35>
LayerCount: 2
Fore
SplineSet
116.276 85.7891 m 2x70
 121.605 94.1579 733.542 863.643 733.542 1159.04 c 0
 733.542 1213.36 712.63 1282.38 685.499 1303.03 c 1
 683.456 1296.38 681.981 1288.53 681.138 1274.29 c 2
 673.716 1182.6 l 1
 378.323 1182.6 l 1
 220.728 1240.03 l 1
 220.728 1304.16 l 2
 220.728 1388.81 268.275 1519.01 445.794 1568.02 c 1
 445.794 1587 l 1
 605.239 1587 l 2
 1075.55 1587 1086.73 1265.22 1086.73 1126.85 c 0
 1086.73 757.776 884.574 443.66 656.388 180.947 c 1x70
 1044.73 196.632 l 1
 1044.73 -98 l 1xb0
 215.279 -98 l 1
 78 17.4492 l 1
 116.276 85.7891 l 2x70
EndSplineSet
EndChar

StartChar: three
Encoding: 51 51 20
Width: 1093
Flags: W
HStem: -28 287<280.282 596.289> 1281 274<189.346 425.336>
VStem: 438.217 394.783<1025.61 1273.42> 604.842 320.158<267.023 548.751>
LayerCount: 2
Fore
SplineSet
309 895.711 m 1xd0
 317.379 907.305 l 1
 365.889 962.422 438.217 1087.2 438.217 1183.71 c 0
 438.217 1271.14 412.309 1281 345.647 1281 c 0
 319.537 1281 282.702 1274.9 231.458 1253.86 c 2
 91 1195.67 l 1
 91 1461.88 l 1
 140.791 1491.75 l 2
 208.857 1532.37 278.515 1555 351.343 1555 c 0
 724.322 1555 833 1276.09 833 1089.03 c 0xe0
 833 1024.63 820.796 960.367 793.693 903.003 c 1
 851.178 765.277 925 549.001 925 355.302 c 0
 925 177.001 840.683 -28 523.666 -28 c 0
 439.079 -28 346.896 -16.9033 273.44 4.12207 c 2
 179.202 32.1934 l 1
 252.344 312.312 l 1
 363.703 278.53 l 1
 425.572 264.666 474.018 259 503.728 259 c 0
 582.609 259 604.842 267.791 604.842 364.474 c 0
 604.842 472.462 527.147 635.092 470.822 746.359 c 1
 309 746.359 l 1
 309 895.711 l 1xd0
EndSplineSet
EndChar

StartChar: four
Encoding: 52 52 21
Width: 1204
Flags: W
LayerCount: 2
Fore
SplineSet
624.238 1464.41 m 1
 584.549 1203.34 l 1
 728.064 1261.34 l 1
 938.119 1172.36 l 1
 984.705 699.93 l 1
 991.514 699.93 l 1
 1268.91 573.104 l 1
 1010 434.927 l 1
 1044.3 81.7617 l 1
 831.01 -86.2695 l 1
 565.829 90.8057 l 1
 565.829 389 l 1
 331.902 389 l 1
 107 427.393 l 1
 173.41 1068.85 l 1
 173.41 1458.85 l 1
 310.876 1557.29 l 1
 319.487 1554.19 328.098 1551.08 336.709 1547.98 c 2
 624.238 1464.41 l 1
514.096 678 m 1
 511.322 721.07 l 1
 505.158 678 l 1
 514.096 678 l 1
EndSplineSet
EndChar

StartChar: five
Encoding: 53 53 22
Width: 1168
Flags: W
HStem: -36 308<131.297 700.611> 1273 301<498.534 867.712>
VStem: 729.565 353.989<305.375 601.499>
LayerCount: 2
Fore
SplineSet
667.325 1023.88 m 0
 1061.4 940.242 1083.55 652.868 1083.55 462.181 c 0
 1083.55 261.422 1028.79 85.7598 799.252 10.4844 c 1
 795.859 9.56641 l 1
 617.102 -22.5003 398.371 -36 231.555 -36 c 2
 129.555 -36 l 1
 129.555 290.757 l 1
 241.091 280.798 l 2
 296.793 275.824 348.21 272 398.251 272 c 0
 476.664 272 543.636 274.877 591.345 281.436 c 0
 700.326 295.788 729.565 305.627 729.565 405.538 c 0
 729.565 479.962 650.916 747.98 585.831 813.572 c 1
 299.482 813.572 l 1
 164.957 955.492 l 1
 90 1496.48 l 1
 211.729 1574 l 1
 867.712 1574 l 1
 932.752 1273 l 1
 498.534 1273 l 1
 555.675 1036.32 l 1
 596.218 1032.9 631.149 1030.59 667.325 1023.88 c 0
EndSplineSet
EndChar

StartChar: six
Encoding: 54 54 23
Width: 1264
Flags: W
HStem: -15 291<682.217 826.172> 1291 295<674.822 909.148>
VStem: 126 354.941<579.998 878.649> 830.847 345.153<279.603 528.848>
LayerCount: 2
Fore
SplineSet
830.847 313 m 0
 830.847 434.505 725.089 842.415 501.578 878.762 c 1
 492.496 876.354 485.726 874.366 480.932 872.868 c 0
 480.939 871.868 480.941 872 480.941 871 c 0
 480.941 693.664 552.915 276 796.59 276 c 0
 822.774 276 826.174 280.118 826.174 280.118 c 2
 826.281 280.229 830.847 290.574 830.847 313 c 0
503.386 1003.42 m 1
 1174.39 974.787 1176 411.056 1176 294.322 c 0
 1176 188.404 1141.08 25.9707 887.126 -6.98438 c 1
 887.126 -15 l 1
 736.641 -15 l 2
 137.971 -15 126 483.826 126 718.282 c 0
 126 779.863 127 831.796 127 872.46 c 0
 127 877.265 126.982 882.896 126.982 889.219 c 0
 126.982 1028.46 133.948 1586 758.664 1586 c 2
 909.148 1586 l 1
 909.148 1291 l 1
 758.664 1291 l 2
 649.155 1291 547.984 1154.5 503.386 1003.42 c 1
EndSplineSet
EndChar

StartChar: seven
Encoding: 55 55 24
Width: 918
Flags: W
HStem: -10 21G<211.563 491.96> 1295 295<129.144 463.041>
DStem2: 99 63.168 486.339 -10 0.27059 0.962695<34.3717 1284.38>
LayerCount: 2
Fore
SplineSet
129.144 1295 m 1
 129.144 1590 l 1
 780.91 1590 l 1
 900.754 1464.39 l 1
 486.339 -10 l 1
 253.905 -10 l 1
 99 63.168 l 1
 463.041 1295 l 1
 129.144 1295 l 1
EndSplineSet
EndChar

StartChar: eight
Encoding: 56 56 25
Width: 1243
Flags: W
HStem: -82 241.01<576.157 815.899>
VStem: 157 376.672<198.813 547.609> 525.134 522.866<1225.5 1396.63> 821.714 343.286<177.654 365.079>
LayerCount: 2
Fore
SplineSet
525.134 1308.95 m 1xa0
 520.38 1326.28 489.445 1388.58 468.47 1414.64 c 1
 459.605 1409.28 454.848 1405.41 451.547 1402.45 c 1
 455.163 1363.61 477.008 1290.41 510.152 1219.26 c 1
 519.921 1250.47 524.798 1280.72 525.134 1308.95 c 1xa0
821.714 191 m 0xd0
 821.714 322.626 735.299 467.337 599.901 617.701 c 1
 552.755 493.687 534.273 345.931 533.672 245.993 c 1
 546.29 223.819 612.84 166.837 632.046 159.01 c 1
 783.49 159.676 819.434 183.153 821.262 184.894 c 0
 821.413 185.459 821.714 187.3 821.714 191 c 0xd0
560.844 1607 m 1
 977.424 1534.05 1048 1425.47 1048 1252.36 c 0xa0
 1048 1108.29 981.563 976.853 914.229 861.356 c 1
 1082.65 657.761 1165 400.901 1165 190.531 c 0
 1165 173.656 1162.92 153.692 1157 133.373 c 1
 1157 112.032 l 1
 1077.57 -11.6285 968.433 -82 618.738 -82 c 0
 306.397 -82 199.685 54.1826 169.711 166.965 c 1
 157 166.965 l 1
 157 260.326 l 2
 157 470.047 217.975 671.561 274.107 843.247 c 1
 224.95 933.644 98 1170.73 98 1347.66 c 0
 98 1464.6 186.622 1607 395.1 1607 c 2
 560.844 1607 l 1
EndSplineSet
EndChar

StartChar: nine
Encoding: 57 57 26
Width: 1006
Flags: W
HStem: -34 21G<564.301 722.602>
VStem: 88 380.517<1161.45 1311.95> 485.318 357.682<170.294 836.119> 494.122 380.878<419.26 1314.15>
LayerCount: 2
Fore
SplineSet
494.122 1147.04 m 1xd0
 496.785 1203.71 498.192 1259.99 498.752 1314.15 c 1
 480.296 1272.17 468.687 1223.91 468.517 1196.12 c 0
 468.604 1193.91 470.731 1179.9 472.902 1171.25 c 1
 491.34 1159.18 l 1
 494.122 1147.04 l 1xd0
506.699 1614 m 0
 774.87 1614 875 1504.92 875 1348.44 c 0xd0
 875 993.501 843 643.139 843 299.367 c 0
 843 236.722 826 187.787 826 169.41 c 0
 826 164.076 827 149.532 827 132.684 c 0
 827 80.5381 794.204 -34 651 -34 c 2
 615.409 -34 l 1
 380.03 58.1094 l 1
 434.345 131.004 l 1
 460.425 170.118 485.318 541.987 485.318 697.712 c 0xe0
 485.318 746.138 482.395 794.37 479.704 841.079 c 1
 247.491 891.028 88 1013.21 88 1192.11 c 0
 88 1299.43 121.575 1614 506.699 1614 c 0
EndSplineSet
EndChar

StartChar: colon
Encoding: 58 58 27
Width: 472
Flags: W
HStem: 75 356<101.981 360.353> 849 356<129.153 386.104>
VStem: 31 398<139.443 362.794> 58 398<914.233 1135.58>
LayerCount: 2
Fore
SplineSet
58 1024 m 0xd0
 58 1139.59 166.947 1205 259 1205 c 0
 350.913 1205 456 1138.79 456 1026 c 0
 456 893.093 328.227 849 249 849 c 0
 156.178 849 58 915.568 58 1024 c 0xd0
31 250 m 0xe0
 31 368.384 143.048 431 233 431 c 0
 326.681 431 429 362.994 429 252 c 0
 429 121.795 304.358 75 223 75 c 0
 131.972 75 31 139.73 31 250 c 0xe0
EndSplineSet
EndChar

StartChar: semicolon
Encoding: 59 59 28
Width: 543
Flags: W
HStem: -113 574<158.319 325.267> 850 356<197.179 453.104>
VStem: 79 453<170.226 377.577> 125 398<914.509 1136.58>
LayerCount: 2
Fore
SplineSet
172 -113 m 0xe0
 127.779 -113 15 -84.7431 15 27 c 2
 15 103.246 l 1
 56.8753 133.156 l 2
 75.6597 147.152 93.6307 158.229 110.418 168.815 c 1
 90.9786 198.857 79 232.098 79 272 c 0
 79 420.856 236.974 461 312 461 c 0
 428.491 461 532 374.853 532 258 c 0
 532 117.286 382.721 -113 172 -113 c 0xe0
125 1025 m 0xd0
 125 1140.59 233.947 1206 326 1206 c 0
 417.913 1206 523 1139.79 523 1027 c 0
 523 894.093 395.227 850 316 850 c 0
 225.7 850 125 914.885 125 1025 c 0xd0
EndSplineSet
EndChar

StartChar: less
Encoding: 60 60 29
Width: 726
Flags: W
LayerCount: 2
Fore
SplineSet
-29.3991 691.546 m 1
 469.539 1581.81 l 1
 713.254 1456.83 l 1
 359.168 709.653 l 1
 788.652 36.6265 l 1
 606.873 -190.209 l 1
 -29.3991 691.546 l 1
EndSplineSet
EndChar

StartChar: equal
Encoding: 61 61 30
Width: 1030
Flags: W
HStem: 477 497<82.8017 976>
LayerCount: 2
Fore
SplineSet
1009.8 974 m 1
 998.669 765.738 l 1
 976 748.453 l 1
 976 477 l 1
 53 477 l 1
 53 782 l 1
 55.3592 782 l 1
 52.7256 834.146 l 1
 82.8017 974 l 1
 1009.8 974 l 1
EndSplineSet
EndChar

StartChar: greater
Encoding: 62 62 31
Width: 758
Flags: W
DStem2: -48.9839 35.0723 263.735 -121 0.543524 0.839394<38.9639 805.107> 286.213 1572.64 -45.7861 1441.25 0.498892 -0.866664<0 808.527>
LayerCount: 2
Fore
SplineSet
286.213 1572.64 m 1
 791.746 694.437 l 1
 263.735 -121 l 1
 111.269 -121 l 1
 -48.9839 35.0723 l 1
 398.592 704.411 l 1
 -45.7861 1441.25 l 1
 286.213 1572.64 l 1
EndSplineSet
EndChar

StartChar: question
Encoding: 63 63 32
Width: 639
Flags: W
VStem: -40 399<-73.5571 149.471> 336 332<945.381 1254.36>
LayerCount: 2
Fore
SplineSet
336 1236 m 0x40
 336 1243.44 335.353 1252.84 334.97 1261 c 1
 152.836 1261 l 1
 6 1321.95 l 1
 6 1390 l 2
 6 1477.62 49.7257 1612.78 178 1667.52 c 1
 178 1689 l 1
 280 1689 l 2
 661.225 1689 668 1343.63 668 1201 c 0x40
 668 751.532 557.22 685.344 428.519 384.397 c 1
 278.518 182.803 l 1
 324.879 152.413 359 103.267 359 39 c 0
 359 -93.907 231.227 -138 152 -138 c 0
 60.9724 -138 -40 -73.2695 -40 37 c 0x80
 -40 142.305 48.6576 203.484 131.558 215.716 c 1
 44.9236 292.887 l 1
 79.2963 361.632 l 2
 85.8424 375.113 336 909.28 336 1236 c 0x40
EndSplineSet
EndChar

StartChar: at
Encoding: 64 64 33
Width: 1799
Flags: W
HStem: -222 293<595.203 1152.41> 204 308<800.936 986.103> 1144 309<795.527 929.056> 1510 311<566.84 1058.47>
VStem: 23.9941 346.006<436.569 1310.56> 384 363<565.664 1109.16> 1448 353<659.269 1074.77>
LayerCount: 2
Fore
SplineSet
1425 304.008 m 2
 1424 304.003 1422.98 304 1422 304 c 0
 1370.8 304 1325.76 312.263 1288.26 325.228 c 1
 1184.2 245.276 1027.08 204 849 204 c 0
 386.873 204 384 671.105 384 844.586 c 2
 384 851 l 2
 384 1033.6 392.67 1453 858 1453 c 0
 1386.62 1453 1409.52 905.786 1432.16 657.845 c 1
 1440.81 688.152 1446.28 722.574 1448 747.677 c 1
 1448 776 l 2
 1448 1075.37 1345.63 1510 810 1510 c 0
 385.764 1510 370 1267.06 370 999 c 2
 370 847 l 2
 370 580.745 413.568 71 737 71 c 0
 797.401 71 848.815 71.9968 893.69 73.9478 c 0
 1210.24 88.8871 1186.74 141.384 1425 238.664 c 1
 1425 304.008 l 2
1498.68 309.703 m 1
 1498.68 309.703 1499.07 309.496 1499.95 309.026 c 2
 1728.18 187.627 l 1
 1694.46 102.341 l 2
 1592.42 -156.444 1086.03 -222 753 -222 c 0
 24.3121 -222 23.9941 670.854 23.9941 935.214 c 0
 23.9941 942.554 24 949.494 24 956 c 0
 24 1262.69 52.2709 1821 829 1821 c 0
 1678.13 1821 1801 1158.16 1801 767 c 0
 1801 663.645 1795.88 356.678 1498.68 309.703 c 1
857.171 1144 m 2
 768.763 1143.4 747 1038.86 747 888 c 2
 747 855 l 2
 747 645.695 769.502 512 881 512 c 0
 936.12 512 1036.93 585.229 1064 620.436 c 1
 1064 759 l 2
 1064 886.471 989.833 1143.31 857.875 1144 c 2
 857.171 1144 l 2
EndSplineSet
EndChar

StartChar: A
Encoding: 65 65 34
Width: 1336
Flags: W
HStem: 0.65332 21G<350.189 441.001 819.823 957.681>
LayerCount: 2
Fore
SplineSet
860 1152 m 1
 652.372 555.946 l 1
 845.39 539.355 l 5
 860 1152 l 1
592.313 361.135 m 1
 432.113 0.65332 l 1
 81 86.3701 l 1
 656.759 1551.11 l 1
 1107.83 1518.36 l 1
 1279.42 41.1377 l 1
 1188.45 22.9443 l 2
 1123.57 10.5859 1060.14 1.08789 957.681 -0.991211 c 2
 819.823 -2.77832 l 1
 819.823 335.317 l 1
 592.313 361.135 l 1
EndSplineSet
EndChar

StartChar: B
Encoding: 66 66 35
Width: 1382
Flags: W
HStem: -17 21G<328.934 710.078> 684 282.173<542.54 681.816> 1276.08 260.917<512.795 786.31>
VStem: 154 358.795<974.929 1272.31> 159 403.693<225.296 676.877> 172 370.54<232.142 679.119> 834.861 393.139<1062.01 1231.03> 855.731 451.269<317.618 526.458>
LayerCount: 2
Fore
SplineSet
159 124.699 m 2xe9
 159 277.445 172 423.92 172 566.688 c 0xe4
 172 805.633 154 1050.59 154 1297.71 c 2
 154 1493.26 l 1
 332.449 1537 l 1
 931.882 1537 1228 1398.36 1228 1148.5 c 0xf2
 1228 1045.97 1078 880 913.115 862.499 c 1
 1138 812 1307 611.995 1307 459.71 c 0
 1307 192.535 1034.16 -17 386 -17 c 1
 159 62.5566 l 1
 159 124.699 l 2xe9
855.731 412.465 m 0xe9
 855.731 541.074 666.098 684 542.54 684 c 1xe5
 556.455 532.191 561.062 371.105 562.693 225.296 c 1
 779.693 255.328 855.731 331.026 855.731 412.465 c 0xe9
512.795 1266.69 m 1xf2
 520.347 1172.05 513.751 1051.47 539.454 966.173 c 1
 720.493 966.173 834.861 1068.19 834.861 1155.17 c 0
 834.861 1219.78 771.74 1276.08 625.942 1276.08 c 0
 592.622 1276.08 554.984 1273.14 512.795 1266.69 c 1xf2
EndSplineSet
EndChar

StartChar: C
Encoding: 67 67 36
Width: 1306
Flags: W
HStem: -33 307.193<732.957 1089.24> 1216 350<584.093 1142.43>
VStem: 114 359.371<569.798 1136.2>
LayerCount: 2
Fore
SplineSet
1045.89 1216 m 2
 500.74 1216 473.016 1164.43 473.016 962.545 c 0
 473.016 939.686 473.371 914.899 473.371 888.042 c 2
 473.371 801.055 l 2
 473.371 495.008 673.822 274.193 911.293 274.193 c 0
 1014.32 274.193 1124.32 315.756 1227.93 409.955 c 1
 1313.24 142.687 l 1
 1253.05 96.5391 l 2
 1139.74 9.37988 1003.35 -33 736.264 -33 c 2
 601.898 -33 l 1
 128.288 37.3945 114 510.994 114 790.771 c 0
 114 872.658 117 947.236 117 1006.9 c 0
 117 1330.89 207 1566 775.664 1566 c 2
 1142.43 1566 l 1
 1142.43 1216 l 1
 1045.89 1216 l 2
EndSplineSet
EndChar

StartChar: D
Encoding: 68 68 37
Width: 1572
Flags: W
HStem: -4 1557<198.633 486.498>
VStem: 96 393.091<979.948 1323.67> 139.017 405.861<258.795 564.172> 1099.18 384.822<685.568 1090.13>
LayerCount: 2
Fore
SplineSet
472.924 1553 m 2xd0
 1440.82 1553 1466.51 1080.38 1484 861.225 c 1
 1484 857.559 l 2
 1484 548.067 1247.55 -4 366.855 -4 c 0
 314.375 -4 142.122 7.30859 139.017 148.646 c 1xb0
 96 1395.47 l 2
 96 1417.75 101.059 1436.75 110.384 1454.26 c 0
 160.595 1548.5 282.817 1552.12 347.419 1552.66 c 0
 367.197 1552.66 385.866 1553 405.22 1553 c 2
 472.924 1553 l 2xd0
544.878 428.466 m 0
 544.878 370.574 543.041 311.592 539.038 256.195 c 1
 956.229 401.002 1099.18 698.26 1099.18 854 c 0
 1099.18 1093.61 1049.73 1294.57 489.091 1323.67 c 1xd0
 499.224 1042.76 544.878 727.924 544.878 428.466 c 0
EndSplineSet
EndChar

StartChar: E
Encoding: 69 69 38
Width: 971
Flags: W
HStem: -12 308.344<570.687 896.09> 648 319.062<570.687 769.982> 1219 314<537.758 808.72>
VStem: 155 415.687<296.344 648> 155 382.758<967.062 1219>
LayerCount: 2
Fore
SplineSet
155 1533 m 1xe8
 808.72 1533 l 1
 808.72 1219 l 1
 537.758 1219 l 1
 537.758 967.062 l 1xe8
 769.982 967.062 l 1
 811.074 648 l 1
 570.687 648 l 1
 570.687 296.344 l 1xf0
 941.859 296.344 l 1
 941.859 119.264 l 1
 896.09 -12 l 1
 362.108 -12 l 1
 155 142.763 l 1
 155 1533 l 1xe8
EndSplineSet
EndChar

StartChar: F
Encoding: 70 70 39
Width: 799
Flags: W
HStem: -22.8056 21G<190.991 283.414> 1236 318<461.154 661.753>
VStem: 106.34 648.533
DStem2: 502.688 675.695 192.149 -22.8056 0.0577805 -0.998329<0 650.99>
LayerCount: 2
Fore
SplineSet
192.149 -22.8056 m 5
 106.34 1459.78 l 5
 380.494 1554 l 5
 661.753 1554 l 5
 661.753 1391.73 l 5
 689.918 1236 l 5
 461.154 1236 l 5
 494.093 967.04 l 5
 596 967.04 l 5
 683.208 971.659 l 5
 754.874 709.701 l 5
 502.688 675.695 l 5
 559.473 16.2461 l 5
 368.556 15.8525 l 5
 192.149 -22.8056 l 5
EndSplineSet
EndChar

StartChar: G
Encoding: 71 71 40
Width: 1764
Flags: W
HStem: -35 21G<1303.46 1580.79> 20.7317 274.268<650.449 1155.31> 584.541 253.217<805.601 1260.31> 1220 371<807.799 1164.98>
VStem: 112 360.944<484.289 975.679> 1260.31 320.486<316.351 589.627>
LayerCount: 2
Fore
SplineSet
843.723 20.7317 m 0
 355.125 20.7317 113 387.08 113 717.182 c 0
 113 753.129 112 800.423 112 851.833 c 0
 112 1121.78 168.85 1591 985.658 1591 c 1
 1415.5 1556.64 l 1
 1415.5 1220 l 1
 825.082 1220 472.944 1206.73 472.944 748.142 c 2
 472.944 675.928 l 2
 472.944 668.983 472.934 662.087 472.934 655.243 c 0
 472.934 452.093 481.421 295 1002.23 295 c 0
 1111.01 295 1194.03 307.759 1260.31 327.438 c 1
 1260.31 589.627 l 1
 1159 587.17 1041.63 584.541 926.044 584.541 c 2
 805.601 584.541 l 1
 805.601 837.758 l 1
 918.841 837.758 l 1
 1085.88 833.779 1386.25 824 1491 824 c 2
 1580.79 824 l 1
 1580.79 -35 l 1
 1312.73 -35 l 1
 1252.73 94.4521 l 1
 1101.2 43.2589 964.882 20.7317 843.723 20.7317 c 0
EndSplineSet
EndChar

StartChar: H
Encoding: 72 72 41
Width: 1398
Flags: W
HStem: -34.8936 21G<217.583 322.396> 602.302 209.162<509.883 827.946>
VStem: 90.3408 369.87<1359.54 1566.68>
LayerCount: 2
Fore
SplineSet
460.211 1566.68 m 1
 460.211 1258 l 1
 503.474 811.463 l 1
 827.946 811.463 l 1
 742.153 1554.54 l 1
 1227.26 1554.54 l 1
 1307.73 47.2508 l 1
 945.279 47.2508 l 1
 871.843 602.302 l 1
 509.883 602.302 l 1
 566.312 34.1387 l 1
 222.904 -34.8936 l 1
 193.55 75.4287 l 1
 90.3408 1566.68 l 1
 460.211 1566.68 l 1
EndSplineSet
EndChar

StartChar: I
Encoding: 73 73 42
Width: 948
Flags: W
HStem: 19 268.438<4.2207 267.254 715.432 878.539> 1248.56 300.496<39.8447 209.051> 1278.78 290.497<653.27 807.698>
DStem2: 653.27 1278.78 209.051 1247.89 0.0627081 -0.998032<2.97032 965.18>
LayerCount: 2
Fore
SplineSet
878.539 289.434 m 1xa0
 878.539 19 l 1
 4.2207 19 l 5
 4.2207 287.438 l 5
 267.254 287.438 l 1
 209.051 1247.89 l 1
 39.8447 1248.56 l 5
 3 1549.06 l 5xc0
 807.698 1569.27 l 1
 809.062 1278.78 l 1
 757.131 1278.78 705.2 1278.78 653.27 1278.78 c 1
 715.432 289.434 l 1
 878.539 289.434 l 1xa0
EndSplineSet
EndChar

StartChar: J
Encoding: 74 74 43
Width: 930
Flags: W
HStem: 1226.8 343.098<68 270.272>
VStem: 340.651 428.349<90.666 462.107>
LayerCount: 2
Fore
SplineSet
286 -314 m 1
 108 -79 l 1
 278 28 340.651 110.682 340.651 266.492 c 1
 270.272 1226.8 l 1
 68 1226.8 l 1
 68 1569.9 l 1
 857 1569.9 l 1
 857 1270 l 1
 722.376 1270 l 1
 769 335.32 l 1
 769 95.9299 662.412 -209.808 338.78 -314 c 1
 286 -314 l 1
EndSplineSet
EndChar

StartChar: K
Encoding: 75 75 44
Width: 1428
Flags: W
HStem: 0 21G<160 488.929>
VStem: 160 348<1160.71 1560> 160 328.929<0 809.3>
LayerCount: 2
Fore
SplineSet
160 1560 m 5xc0
 508 1560 l 5
 508 1160.71 l 5xc0
 1066.66 1630.98 l 5
 1273 1499.91 l 5
 1273 1451.08 l 5
 817.541 979.418 l 5
 1404.48 98.5893 l 5
 1136.77 -100.045 l 5
 488.929 809.3 l 5
 488.929 0 l 5
 160 0 l 5xa0
 160 1560 l 5xc0
EndSplineSet
EndChar

StartChar: L
Encoding: 76 76 45
Width: 842
Flags: W
HStem: -4 309.757<520.464 778>
VStem: 119.226 351.732<1266.63 1542.96>
LayerCount: 2
Fore
SplineSet
778 306 m 5
 778 -4 l 5
 189.453 -3.58406 l 5
 119.226 1592.44 l 5
 238.269 1592.65 l 5
 470.958 1542.96 l 5
 520.464 305.757 l 5
 778 306 l 5
EndSplineSet
EndChar

StartChar: M
Encoding: 77 77 46
Width: 1882
Flags: W
HStem: -11 21G<1342.97 1737.14>
VStem: 1344.94 392.195<-11 381.195>
DStem2: 1737.14 -11 1274.49 705.134 0.0904052 -0.995905<-755.027 -35.4565>
LayerCount: 2
Fore
SplineSet
565.722 -59.8203 m 5
 154.936 51.7578 l 5
 100 1511.94 l 5
 548.031 1563.69 l 5
 929.345 648.814 l 5
 1236.6 1527.85 l 5
 1597.44 1527.85 l 5
 1737.14 -11 l 5
 1344.94 -11 l 5
 1274.49 705.134 l 5
 1112.23 257.568 l 5
 720.767 211.108 l 5
 523.518 715.762 l 5
 565.722 -59.8203 l 5
EndSplineSet
EndChar

StartChar: N
Encoding: 78 78 47
Width: 1718
Flags: W
HStem: 1 21G<143 481.289 1190.02 1259.09>
VStem: 143 338.289<1 987.812> 1195.26 376.125<499.629 1512.86>
LayerCount: 2
Fore
SplineSet
143 1 m 5
 143 1386.88 l 5
 186.911 1496.55 l 5
 351 1554 l 5
 531.039 1551.15 l 5
 1192.29 499.629 l 5
 1195.26 1512.86 l 5
 1571.39 1600.76 l 5
 1564.02 80.8865 l 5
 1203.95 -49.7006 l 5
 481.289 987.812 l 5
 481.289 1 l 5
 143 1 l 5
EndSplineSet
EndChar

StartChar: O
Encoding: 79 79 48
Width: 1619
Flags: W
HStem: -56 324.113<792.212 1005.99> 1264 321<618.494 861.847>
VStem: 130 382.744<630.922 1103.99> 1101.4 407.601<385.689 947.362>
LayerCount: 2
Fore
SplineSet
666.404 1585 m 0
 1306.08 1585 1509 1094.27 1509 696.242 c 0
 1509 352.374 1360.31 -56 900.285 -56 c 0
 155.22 -56 133 644.642 133 796.04 c 0
 133 862.506 130 934.144 130 1007.87 c 0
 130 1256.27 179.038 1585 666.404 1585 c 0
1101.4 671.717 m 0
 1101.4 820.213 1054.46 1264 689.002 1264 c 0
 568.921 1264 512.744 988.057 512.744 846.771 c 0
 512.744 561.882 738.461 268.113 910.354 268.113 c 0
 1016.05 268.113 1101.4 379.192 1101.4 671.717 c 0
EndSplineSet
EndChar

StartChar: P
Encoding: 80 80 49
Width: 1032
Flags: W
HStem: 1423.18 142.821<467 640.371>
VStem: 132 440.086<4 637.678> 132 408.825<14.2887 647.565> 752.419 426.581<967.209 1312.46>
LayerCount: 2
Fore
SplineSet
752.419 1150.02 m 0x90
 752.419 1291.41 673.785 1423.18 479.53 1423.18 c 0
 475.405 1423.18 471.229 1423.12 467 1423 c 1
 470.099 1387.35 512.063 846.277 515.261 811 c 1
 656.846 826.574 752.419 994.14 752.419 1150.02 c 0x90
689 1566 m 2
 1119.04 1566 1179 1371.26 1179 1175 c 0
 1179 961.615 1067 647.565 540.825 647.565 c 1xb0
 547.155 436.665 572.086 223.593 572.086 4 c 1
 132 4 l 1xd0
 132 1566 l 1xb0
 689 1566 l 2
EndSplineSet
EndChar

StartChar: Q
Encoding: 81 81 50
Width: 1630
Flags: W
HStem: 1320 255<637.239 950.447>
VStem: 127 357.057<442.632 998.292> 1118.48 368.519<329.328 1153.04>
LayerCount: 2
Fore
SplineSet
127 749.247 m 0
 127 852.332 130 802.131 130 893.754 c 0
 130 1141.34 204.637 1575 708.371 1575 c 0
 1438.56 1575 1488 1125.97 1488 841.644 c 0
 1488 774.107 1487 711.608 1487 660.195 c 2
 1487 516.548 l 2
 1487 376.577 1474.53 188.058 1277.75 61.457 c 1
 1323.58 -13.7236 1371.11 -89.3018 1411.96 -179.116 c 1
 1452.33 -275.989 l 1
 1172.39 -379.164 l 1
 846.938 -3.73828 l 1
 637.977 21.0381 l 1
 154.013 155.488 127 555.512 127 749.247 c 0
842.054 205 m 0
 973.177 205 1118.48 276.42 1118.48 515 c 2
 1118.48 869.694 l 2
 1118.48 1104.22 1113.39 1320 697.042 1320 c 0
 580.614 1320 484.057 872.809 484.057 701 c 0
 484.057 291.556 698.123 205 842.054 205 c 0
EndSplineSet
EndChar

StartChar: R
Encoding: 82 82 51
Width: 1312
Flags: W
HStem: -8 21G<143 543.361> 1346.58 206.361<520.152 674.032>
VStem: 143 400.361<-8 569.801> 143 377.152<888.396 1346.58> 851.277 327.723<1034.49 1224.22>
LayerCount: 2
Fore
SplineSet
851.277 1131.95 m 0xd8
 851.277 1221.12 743.276 1306.11 520.152 1346.58 c 1
 520.152 888.396 l 1
 738.363 945.211 851.277 1040.77 851.277 1131.95 c 0xd8
543.361 -8 m 1xe8
 143 -8 l 1xe8
 143 1552.94 l 1xd8
 533 1552.94 l 2
 1074.43 1552.94 1179 1379.15 1179 1164.71 c 0
 1179 1045.67 1115.82 896.185 841.782 811.725 c 1
 1005.73 610.892 1227.13 318.896 1320.47 145.035 c 2
 1372.74 48.668 l 1
 983.004 -62.208 l 1
 881.682 93.1738 l 1
 825.315 165.214 687.706 365.75 543.361 569.801 c 1
 543.361 -8 l 1xe8
EndSplineSet
EndChar

StartChar: S
Encoding: 83 83 52
Width: 1173
Flags: W
HStem: -45 297<295.554 581.061> 1242.96 302.045<584.089 860.193>
VStem: 139.529 430.388<1044.81 1239.35> 685.26 400.269<345.367 534.412>
LayerCount: 2
Fore
SplineSet
932.401 1175.72 m 2
 880.033 1189.77 754.679 1242 638.872 1242 c 0
 618.855 1242 604.648 1242.96 594.565 1242.96 c 0
 570.03 1242.96 569.917 1237.3 569.917 1198.45 c 0
 569.917 846.733 1085.53 839.067 1085.53 380.294 c 0
 1085.53 199.263 932.268 -45 449.56 -45 c 0
 358.948 -45 235.405 -34.8779 140.442 51.0605 c 1
 90 95.4502 l 1
 188.213 374.743 l 1
 299.702 293.117 l 1
 345.479 260.88 394.516 252 449.56 252 c 0
 578.215 252 685.26 375.216 685.26 426.254 c 0
 685.26 635.437 139.529 859.899 139.529 1220.59 c 0
 139.529 1382.31 265.68 1545 616.305 1545 c 0
 775.918 1545 891.775 1520.65 1001.56 1470.46 c 2
 1060.53 1444.03 l 1
 1060.53 1141.68 l 1
 932.401 1175.72 l 2
EndSplineSet
EndChar

StartChar: T
Encoding: 84 84 53
Width: 1119
Flags: W
HStem: -15 21G<345.208 864> 1209 315.844<65 333.969> 1234 316<876.22 1044>
VStem: 345.208 527.792<-15 1215.63>
LayerCount: 2
Fore
SplineSet
873 1111.04 m 2xb0
 873 1026.43 859 950.951 859 885.463 c 0
 859 749.293 862 620.779 862 481.457 c 0
 862 347.84 864 214.709 864 79.2988 c 2
 864 -15 l 1
 345.208 -15 l 1
 345.208 1215.63 l 1
 277.703 1212.54 223.478 1209 167 1209 c 2
 65 1209 l 1
 65 1524.84 l 1xd0
 158.794 1532.83 l 1
 343.249 1547.21 864.715 1550 942 1550 c 2
 1044 1550 l 1
 1044 1234 l 1
 942 1234 l 2
 918.299 1234 894.04 1234.65 873 1235.33 c 1
 873 1111.04 l 2xb0
EndSplineSet
EndChar

StartChar: U
Encoding: 85 85 54
Width: 1704
Flags: W
HStem: -37 336<824.423 1204.51>
VStem: 100 390.04<700.8 1547> 1205 365.004<313.03 827.977>
LayerCount: 2
Fore
SplineSet
1534.6 1539 m 1
 1570 344.046 l 1
 1570 181.803 1496.25 -37 1056.04 -37 c 0
 154.44 -37 111 636.022 111 1069.73 c 0
 111 1168.02 100 1265.18 100 1355.34 c 2
 100 1547 l 1
 490.04 1547 l 1
 490.04 1456.4 l 2
 490.04 1364.87 486.691 1264.22 486.691 1161.51 c 0
 486.691 694.596 559.515 299 1053.81 299 c 0
 1069.85 299 1080.58 299.008 1092.05 299.799 c 0
 1194.33 305.225 1205 321.91 1205 333.362 c 0
 1205 336.379 1204.26 339.033 1204.26 341.021 c 0
 1204.26 346.019 1203.41 352.945 1202.48 359.612 c 2
 1120.76 1540.34 l 1
 1357.16 1539 l 1
 1534.6 1539 l 1
EndSplineSet
EndChar

StartChar: V
Encoding: 86 86 55
Width: 1280
Flags: W
HStem: -47.9766 21G<792.631 978.009>
DStem2: 491.884 1581.98 103.309 1406.19 0.285176 -0.958475<0 745.583>
LayerCount: 2
Fore
SplineSet
72 1502.28 m 1
 491.884 1581.98 l 1
 523.751 1485.62 l 1
 585.675 1294.31 651.434 1065.57 708.427 854.172 c 1
 755.723 1092.03 798.635 1314.39 832.772 1481.9 c 1
 851.263 1568 l 1
 1228.66 1568 l 1
 1216.71 1461.18 l 1
 1198.27 1308.91 1018.59 196.944 991.348 45.8564 c 2
 974.395 -47.9766 l 1
 555.131 -1.84375 l 1
 526.223 51.2197 l 1
 337.61 393.859 206.525 1098.65 103.309 1406.19 c 1
 72 1502.28 l 1
EndSplineSet
EndChar

StartChar: W
Encoding: 87 87 56
Width: 1860
Flags: W
HStem: -17 21G<390.361 741.967 1082.03 1493.8>
LayerCount: 2
Fore
SplineSet
782 1386 m 1
 1054.83 1386 l 1
 1252.63 749.202 l 1
 1446.31 1563.65 l 1
 1872.95 1541.24 l 1
 1833.52 1471.5 l 1
 1489.17 -17 l 1
 1088.51 -17 l 1
 890.72 593.406 l 1
 736.971 -22 l 1
 394.746 -22 l 1
 73 1445.5 l 1
 490.919 1532.23 l 1
 608 625 l 1
 782 1386 l 1
EndSplineSet
EndChar

StartChar: X
Encoding: 88 88 57
Width: 1188
Flags: W
HStem: -50.0818 21.3044G<257.822 307.061 829.152 894.124>
LayerCount: 2
Fore
SplineSet
7.27344 1376.05 m 1
 143.139 1452.84 l 1
 365.16 1555.82 l 1
 615.764 1174.51 l 1
 865.114 1588.47 l 1
 1106.29 1470.97 l 1
 870.502 803.592 l 1
 1181.72 80.4141 l 1
 841.925 -49.7773 l 1
 577.926 363.596 l 1
 293.301 -50.0818 l 1
 88 65.6494 l 1
 88 132.317 l 1
 327.076 752.342 l 1
 7.27344 1376.05 l 1
EndSplineSet
EndChar

StartChar: Y
Encoding: 89 89 58
Width: 1094
Flags: W
HStem: -18 21G<398.842 900.508>
VStem: 398.842 501.665<-18 657.719>
LayerCount: 2
Fore
SplineSet
402.699 657.719 m 1
 24 1492.06 l 1
 378.391 1564.16 l 1
 597.565 1148 l 1
 768.963 1554.02 l 1
 1099.11 1499.92 l 1
 900.508 749.927 l 1
 900.508 -18 l 1
 398.842 -18 l 1
 402.699 657.719 l 1
EndSplineSet
EndChar

StartChar: Z
Encoding: 90 90 59
Width: 958
Flags: W
HStem: -11 300<576.472 746.23>
LayerCount: 2
Fore
SplineSet
125.012 1549 m 1
 718.327 1549 l 1
 879.044 1465.69 l 1
 576.472 289 l 1
 875.946 289 l 1
 849.156 79.4072 l 1
 746.23 -11 l 1
 251.615 -11 l 1
 85 68.6279 l 1
 426.402 1247 l 1
 363.723 1247 l 1
 125.012 1333.88 l 1
 125.012 1549 l 1
EndSplineSet
EndChar

StartChar: bracketleft
Encoding: 91 91 60
Width: 685
Flags: W
HStem: 1363 253.865<513.275 662>
VStem: 10.8081 651.192
LayerCount: 2
Fore
SplineSet
452.054 1363 m 1
 350.37 101.751 l 1
 599.882 43.9241 l 1
 485.862 -222.123 l 1
 10.8081 -165.947 l 1
 124.461 1496.48 l 1
 178.96 1698 l 1
 393.538 1698 l 1
 625.754 1627.82 l 2
 637.837 1624.17 649.918 1620.52 662 1616.86 c 1
 662 1363 l 1
 452.054 1363 l 1
EndSplineSet
EndChar

StartChar: backslash
Encoding: 92 92 61
Width: 737
Flags: W
DStem2: 265.338 1658.94 -43.0822 1576.69 0.289588 -0.957151<0 1753.49>
LayerCount: 2
Fore
SplineSet
265.338 1658.94 m 1
 779.833 -17.3861 l 1
 488.559 -180.499 l 1
 -43.0822 1576.69 l 1
 265.338 1658.94 l 1
EndSplineSet
EndChar

StartChar: bracketright
Encoding: 93 93 62
Width: 665
Flags: W
HStem: 1342.24 319.765<1 161.303>
VStem: 1 651.185
LayerCount: 2
Fore
SplineSet
67 61.8478 m 1
 320.452 94.5193 l 1
 250 1364.5 l 1
 1 1342.24 l 1
 1 1662 l 1
 460.136 1662 l 1
 569.911 1566.12 l 1
 652.185 -164.761 l 1
 67 -237.757 l 1
 67 61.8478 l 1
EndSplineSet
EndChar

StartChar: asciicircum
Encoding: 94 94 63
Width: 474
Flags: W
HStem: 1413 345<114.824 364.327>
VStem: 50 382<1472.35 1693.06>
LayerCount: 2
Fore
SplineSet
50 1575 m 0
 50 1654.84 111.232 1758 234 1758 c 0
 317.538 1758 432 1703 432 1583 c 0
 432 1475.65 336.197 1413 247 1413 c 0
 194.412 1413 50 1434.77 50 1575 c 0
EndSplineSet
EndChar

StartChar: underscore
Encoding: 95 95 64
Width: 1556
Flags: W
HStem: -239 318<88.9993 844.643> -217 319<679.767 1469.92>
LayerCount: 2
Fore
SplineSet
1175 -217 m 0x40
 867.975 -217 441.411 -239 192 -239 c 0
 120.881 -239 24 -190.429 24 -85 c 0
 24 77.6858 229.264 79.6333 326.727 79.6333 c 2
 333.702 79.6321 l 2
 362.468 79.6321 388.695 79 409 79 c 0x80
 552.487 79 711.872 82 773 82 c 0
 965.969 82 1187.96 102 1336 102 c 0
 1392.52 102 1525 70.9854 1525 -58 c 0
 1525 -217.447 1363.35 -218 1296.39 -218 c 2
 1295 -218 l 2
 1260 -218 1221.28 -217 1175 -217 c 0x40
EndSplineSet
EndChar

StartChar: quoteleft
Encoding: 8216 8216 65
Width: 573
Flags: W
HStem: 1090 589<231.72 403.681>
VStem: 25 458<1182.21 1383.12>
LayerCount: 2
Fore
SplineSet
250 1090 m 0
 109.906 1090 55.7434 1192.53 25 1255.16 c 1
 25 1286 l 2
 25 1303.36 29.3064 1317.48 33.3828 1327.32 c 1
 50.2938 1456.51 174.871 1679 374 1679 c 2
 554 1679 l 1
 554 1449.73 l 1
 506.03 1419.75 l 2
 488.695 1408.92 467.904 1396.36 449.676 1384.5 c 1
 469.278 1354.99 483 1320.25 483 1279 c 0
 483 1130.14 325.026 1090 250 1090 c 0
EndSplineSet
EndChar

StartChar: a
Encoding: 97 97 66
Width: 1293
Flags: HW
HStem: -28.8145 29.2012G<339.555 441.452 873.151 1254.47>
LayerCount: 2
Fore
SplineSet
771 1059 m 1
 592.661 495.414 l 1
 796.207 495.414 l 1
 771 1059 l 1
549.589 1360 m 1
 1016.2 1360 l 1
 1254.47 -15.0771 l 1
 879.421 -15.0771 l 1
 780.481 295 l 1
 594.519 295 l 1
 431.376 -28.8145 l 1
 80 47.7207 l 1
 549.589 1360 l 1
EndSplineSet
EndChar

StartChar: b
Encoding: 98 98 67
Width: 1244
Flags: W
HStem: -19 21G<216.232 633.167> 1149.16 248.079<563.729 731.013>
VStem: 156.238 407.49<751.462 1149.16> 813.819 296.42<875.451 1077.46> 860.41 265.828<300.25 420.017>
LayerCount: 2
Fore
SplineSet
860.41 357.708 m 0xe8
 860.41 413.35 752.05 470.976 556 520.543 c 1
 523.004 208.253 l 1
 754.59 249.672 860.41 302.721 860.41 357.708 c 0xe8
563.729 1149.16 m 1
 563.729 751.462 l 1
 732.643 792.937 813.819 891.163 813.819 979.612 c 0xf0
 813.819 1069.43 724.256 1149.16 563.729 1149.16 c 1
335.297 1397.24 m 1
 822.711 1397.24 1110.24 1290.07 1110.24 984.075 c 0xf0
 1110.24 861.736 930 747 831.144 722.436 c 1
 1062 669 1126.24 516.17 1126.24 403.299 c 0xe8
 1126.24 179.402 951.095 -19 315.238 -19 c 1
 126 19.2275 l 1
 156.238 548.776 l 1
 156.238 1289.84 l 1
 335.297 1397.24 l 1
EndSplineSet
EndChar

StartChar: c
Encoding: 99 99 68
Width: 1142
Flags: W
HStem: -17 325<545.285 901.821>
VStem: 108 418.862<489.6 986.464> 108 388.906<358.001 957.23>
LayerCount: 2
Fore
SplineSet
654.754 -17 m 0xa0
 167.372 -17 109 362.126 109 518.452 c 0
 109 544.45 108 582.026 108 622.748 c 2
 108 663.723 l 2
 108 959.56 139.901 1364 922.058 1364 c 2
 1039.58 1364 l 1
 1039.58 1122.3 l 1
 952.082 1103.58 l 2
 951.598 1103.49 951.113 1103.43 950.628 1103.33 c 0
 559.642 1036.31 526.862 1041.45 526.862 825.057 c 2
 526.862 815.938 l 2xc0
 526.862 695.532 496.906 584.754 496.906 484.912 c 0
 496.906 382.296 533.105 308 704.297 308 c 0
 764.246 308 818.15 318.29 897.903 351.028 c 2
 1022.28 403.003 l 1
 1124.95 100.032 l 1
 1035.12 62.0508 l 1
 908.556 9.74023 794.95 -17 654.754 -17 c 0xa0
EndSplineSet
EndChar

StartChar: d
Encoding: 100 100 69
Width: 1439
Flags: W
HStem: -13 21G<296.818 937.56> 1192.68 156.159<511.329 664.754>
VStem: 152 359.329<407.105 1192.68> 162.361 391.92<262.073 992.821> 953.851 358.149<465.337 922.866>
LayerCount: 2
Fore
SplineSet
309.137 1353.04 m 0xe8
 311.794 1353.02 314.453 1353.01 317.114 1353 c 2
 422.824 1353 l 1
 422.824 1348.83 l 1
 1132.39 1316.36 1312 1007.48 1312 699.67 c 2
 1312 601.993 l 2
 1312 358.312 1248.26 110.545 626.857 -13 c 1
 314 -13 l 2
 279.637 -13 252.237 0.931641 232.056 19.8164 c 1
 162.715 77.8594 162.361 177.571 162.361 241.728 c 0xd8
 162.361 273.777 164 301.27 164 313.528 c 0
 164 495.539 152 680.435 152 869.958 c 2
 152 1237.81 l 2
 152 1349.27 282.863 1353.04 309.137 1353.04 c 0xe8
511.329 1192.68 m 1xe8
 511.329 1095 l 2xe8
 511.329 823.529 548.621 543.729 554.281 262.073 c 1xd8
 947.081 414.445 953.851 466.86 953.851 662 c 0
 953.851 824.688 937.862 1122.89 511.329 1192.68 c 1xe8
EndSplineSet
EndChar

StartChar: e
Encoding: 101 101 70
Width: 1052
Flags: W
HStem: -27 308<566.53 909> 611 313<572.951 822>
VStem: 147 419.53<281 610.175> 164 402.53<293.731 611 924 1068.09>
DStem2: 364 1352 572.951 1068.09 0.995164 -0.0982305<235.829 525.477>
LayerCount: 2
Fore
SplineSet
170 1309.62 m 1xd0
 239.036 1309.62 l 1
 244.537 1358.8 l 1
 295.074 1353.75 l 2
 301.472 1353.11 323.018 1352 364 1352 c 0
 451.687 1352 681.698 1340.15 808.513 1308.44 c 1
 886 1290.9 l 1
 886 1037.19 l 1
 572.951 1068.09 l 1
 572.951 924 l 1
 822 924 l 1
 822 611 l 1
 566.53 611 l 1xd0
 566.53 281 l 1
 909 281 l 1
 909 -27 l 1
 147 -27 l 1
 147 68.0068 l 2xe0
 147 364.934 164 680.643 164 983.615 c 0
 164 1080.49 170 1172.78 170 1262.12 c 2
 170 1309.62 l 1xd0
EndSplineSet
EndChar

StartChar: f
Encoding: 102 102 71
Width: 1016
Flags: W
HStem: -37.3545 21G<361.836 441.679> 551 305<582.857 795.911> 1083.91 279.086<606.774 941.997>
LayerCount: 2
Fore
SplineSet
551.036 13 m 1
 441.679 13 l 1
 441.679 -37.3545 l 1
 361.836 -31.7471 l 2
 355.1 -31.0732 334.745 -30 301.911 -30 c 2
 274.138 -30 l 1
 118 54.7607 l 1
 126.321 114.853 l 1
 174.896 473.247 187.911 844.152 187.911 1212.05 c 2
 187.911 1363 l 1
 943.911 1363 l 1
 943.911 1048.79 l 1
 821.414 1070.33 l 2
 784.626 1076.52 705.346 1081.84 611.285 1083.91 c 1
 603.787 1001.49 587.903 926.426 582.857 855.395 c 1
 619.365 855.693 652.54 856 692.05 856 c 2
 795.911 856 l 1
 795.911 551 l 1
 692.05 551 l 2
 652.448 551 599.308 551.955 551.036 553.617 c 1
 551.036 13 l 1
EndSplineSet
EndChar

StartChar: g
Encoding: 103 103 72
Width: 1496
Flags: W
HStem: -16 311<633.685 985.307> 416 309<570.907 1009.39> 1048 306<611.253 1175.26>
VStem: 101 384.513<422.153 939.898>
LayerCount: 2
Fore
SplineSet
1357 448.14 m 2
 1357 156.045 1223.33 -16 804.008 -16 c 0
 181.312 -16 101 440.574 101 628.049 c 2
 101 668.069 l 2
 101 892.131 119.182 1354 829.395 1354 c 0
 931.9 1354 1074.23 1349.77 1190.29 1304.21 c 1
 1254 1278.33 l 1
 1254 991.197 l 1
 1130.34 1017.13 l 1
 1046.22 1033.56 930.806 1048 867.476 1048 c 0
 487.389 1048 485.513 913.819 485.513 637.593 c 0
 485.513 475.365 497.055 295 870.938 295 c 0
 987.801 295 1008.35 349.243 1009.39 417 c 1
 973.493 416.97 742.794 416 702.459 416 c 2
 570.907 416 l 1
 570.907 725 l 1
 702.459 725 l 2
 801.245 725 943.536 726.959 1066.9 726.959 c 0
 1153.47 726.959 1223.14 726.144 1266.38 722.053 c 2
 1357 712.631 l 1
 1357 448.14 l 2
EndSplineSet
EndChar

StartChar: h
Encoding: 104 104 73
Width: 1395
Flags: W
HStem: 0.211914 21G<992.013 1008.86> 581.043 232.957<524.873 857.563> 595.563 220.936<514.566 851.963>
VStem: 133.724 404.573<822.809 1289.6> 151.724 360.837<93.0718 593.717 816.499 1288.77> 819.014 386.684<1041.53 1370> 868.972 392.709<39.9696 366.469>
LayerCount: 2
Fore
SplineSet
868.972 368 m 0xc2
 868.972 446.213 859.857 526.605 857.563 581.043 c 1xc2
 737.942 581.736 628.477 590.166 519.777 595.563 c 1
 514.679 556.076 510.939 522.193 510.939 489 c 2
 510.939 481 l 2
 510.939 367.636 521.644 249.548 521.644 127 c 2
 521.644 42.9199 l 1
 223.968 2.71191 l 1
 132 92.7402 l 1
 133.899 113.96 l 2
 136.509 143.1 137.724 232.707 137.724 336.194 c 0
 137.724 433.362 145.724 537.359 145.724 606.117 c 0
 145.724 652.377 146.724 681.726 146.724 707.57 c 0
 146.724 749.548 151.724 784.906 151.724 810.886 c 0xaa
 151.724 961.006 133.724 1116.57 133.724 1279.06 c 2
 133.724 1374 l 1
 336.229 1374 l 1
 538.297 1289.6 l 1
 538.297 1236.52 l 2xb0
 538.297 1092.52 518.941 951.008 512.56 816.499 c 1xa8
 602.665 814.006 692.195 814 786.898 814 c 2
 868.588 814 l 1
 859.908 961.629 819.014 1112.21 819.014 1276.57 c 2
 819.014 1370 l 1
 1205.7 1370 l 1xcc
 1261.68 87.291 l 2
 1262.4 70.8604 1263.12 54.4307 1263.83 38 c 1
 1110.92 38 l 1
 1037.63 4.1709 l 1
 1026.78 2.00046 1015.47 0.211914 1002.24 0.211914 c 0
 981.787 0.211914 961.247 4.03418 943.179 11.8535 c 0
 858.302 48.585 856.755 137.085 856.755 196.807 c 0
 856.755 267.288 868.972 341.993 868.972 368 c 0xc2
EndSplineSet
EndChar

StartChar: i
Encoding: 105 105 74
Width: 1029
Flags: W
HStem: 18 304<125.029 284.394> 24 274.131<739.029 882.244> 1076.85 287.07<200.685 275.825 732.719 880.083>
VStem: 268.029 451<325.743 985.874> 282.029 452<322 598.902 609.469 674.614 684.968 1072.45>
LayerCount: 2
Fore
SplineSet
799.029 24 m 2x70
 758.858 24 716.819 23 663.466 23 c 0
 638.208 23 594.503 22 526.678 22 c 0
 404.346 22 306.82 18 225.029 18 c 2
 117.084 18 l 1
 125.029 159.432 l 1
 125.029 322 l 1
 284.394 322 l 1
 279.737 412.712 268.029 504.46 268.029 603.541 c 0xb0
 268.029 730.098 282.029 851.145 282.029 966.278 c 0
 282.029 1001.37 279.856 1040.07 276.527 1074.05 c 1
 261.41 1088.43 254.321 1088.63 251.618 1088.63 c 0
 248.164 1088.63 235.934 1086.19 215.447 1065.3 c 2
 200.45 1050 l 1
 82.8604 1050 l 1
 74 1205.06 l 1
 77.0488 1356 l 1
 390.553 1356 l 1
 410.971 1357.44 506.139 1363.81 613.386 1363.81 c 0
 627.4 1363.81 641.99 1363.92 656.864 1363.92 c 0
 758.084 1363.92 872.438 1359.18 907.61 1285.29 c 0
 912.438 1275.15 915.029 1263.74 915.029 1252.48 c 2
 915.029 1244.89 l 1
 885.339 1076.85 l 1
 732.719 1076.85 l 1
 733.733 1055.54 734.029 1036.05 734.029 1016.45 c 0xa8
 734.029 897.41 719.029 784.743 719.029 680.055 c 0
 719.029 564.12 739.029 440.214 739.029 306.494 c 2
 739.029 298.131 l 1
 885.215 298.131 l 1
 882.244 178.01 l 1
 944.785 24 l 1
 799.029 24 l 2x70
EndSplineSet
EndChar

StartChar: j
Encoding: 106 106 75
Width: 1153
Flags: W
HStem: 1050.53 287.425<903.211 1101.17> 1069.76 268.189<102.262 350.802>
VStem: 350.802 552.409<686.785 1050.53> 384.728 536.543<119.674 546.437>
LayerCount: 2
Fore
SplineSet
921.271 163.944 m 0x90
 921.271 -25.0674 829.093 -216.567 275.001 -253.781 c 1
 195.549 -253.781 l 1
 99 10.8809 l 1
 181.998 48.4775 l 1
 370.29 123.828 384.728 119.148 384.728 163.458 c 1x90
 350.802 1069.76 l 1
 102.262 1069.76 l 5
 102.262 1337.95 l 5x60
 1101.17 1337.95 l 1
 1101.17 1050.53 l 1
 903.211 1050.53 l 1xa0
 911.758 833.673 921.271 618.824 921.271 399.676 c 0
 921.271 370.261 919.271 343.714 919.271 321.725 c 0
 919.271 271.218 921.271 217.665 921.271 163.944 c 0x90
EndSplineSet
EndChar

StartChar: k
Encoding: 107 107 76
Width: 1321
Flags: W
HStem: -36.7617 1.95703G<319.181 507.103 1076.68 1132.27>
VStem: 137 369.555<0.1875 423.934> 159.41 362.686<238.845 530.85> 194.691 397.98<1135.75 1368>
LayerCount: 2
Fore
SplineSet
1235.37 1256.24 m 1x90
 1235.37 1212.8 l 2
 1235.37 1121.67 952.029 861.684 828.237 744.747 c 1
 1004.58 539.763 1171.4 338.705 1323.27 134.037 c 2
 1353.81 92.8779 l 1
 1097.83 -55.8047 l 1
 1030.84 7.52637 l 1
 890.11 125.34 667.775 352.06 522.096 530.85 c 1xa0
 506.555 -36.7617 l 1
 319.181 -30.8506 l 1
 137 0.1875 l 1xc0
 159.41 662.592 l 1xa0
 194.691 1368 l 1
 592.671 1368 l 1
 567.879 966.361 l 1
 706.879 1118.51 853.655 1279.02 907.113 1336.64 c 2
 990.597 1428.11 l 1
 1235.37 1256.24 l 1x90
EndSplineSet
EndChar

StartChar: l
Encoding: 108 108 77
Width: 842
Flags: W
HStem: -4 309.757<520.464 778>
VStem: 169.227 351.731<388.405 1342.44> 189.453 331.012<305.757 950.447>
LayerCount: 2
Fore
SplineSet
778 306 m 1xa0
 778 -4 l 1
 189.453 -3.58406 l 1xa0
 169.227 1342.44 l 5
 288.269 1392.65 l 1
 520.958 1392.96 l 1xc0
 520.464 305.757 l 1
 778 306 l 1xa0
EndSplineSet
EndChar

StartChar: m
Encoding: 109 109 78
Width: 1965
Flags: W
HStem: -28 21G<239.003 503.865 1461.74 1829>
VStem: 129.427 374.438<-4.30209 764.776> 1461.74 367.259<-28 666.94>
LayerCount: 2
Fore
SplineSet
995.972 458.955 m 1
 1115.69 745.489 1286.61 1140.94 1427.64 1305.36 c 1
 1476.94 1363.66 l 1
 1807 1276.66 l 1
 1807 1208.38 l 2
 1807 972.539 1829 725.656 1829 486.305 c 2
 1829 -28 l 1
 1461.74 -28 l 1
 1461.74 74 l 2
 1461.74 184.266 1469.39 283.354 1469.39 385 c 0
 1469.39 476.464 1462.19 574.538 1459.5 671.655 c 1
 1371.79 460.263 1280.15 256.239 1202.03 143.922 c 1
 1168.48 94 l 1
 962.259 94 l 1
 803.417 168.549 l 1
 725.98 319.199 621.386 556.032 520.424 780.532 c 1
 510.75 577.188 503.865 373.301 503.865 191 c 2
 503.865 -32 l 1
 248 -32 l 2
 230.006 -32 211.795 -27.8076 195.978 -19.001 c 0
 129.695 15.3096 129.427 91.376 129.427 145.26 c 0
 129.427 204.203 137 267.243 137 309.217 c 0
 137 605.137 189 1045.34 189 1247.38 c 2
 189 1331.84 l 1
 283.02 1339.85 l 2
 340.402 1343.95 394.058 1346.88 456.416 1350.88 c 2
 582.505 1358.45 l 1
 582.505 1335.06 582.505 1311.67 582.505 1288.28 c 1
 710.55 1146.56 880.093 750.966 995.972 458.955 c 1
EndSplineSet
EndChar

StartChar: n
Encoding: 110 110 79
Width: 1715
Flags: W
HStem: -31.9561 21G<1144.81 1334.59>
VStem: 138 362.23<204.485 902.772> 143 382.918<49.7373 900.469> 1201.85 399.634<1010.41 1289.78>
LayerCount: 2
Fore
SplineSet
138 810.749 m 0xd0
 138 928.048 154 1038.74 154 1140.11 c 2
 154 1285.12 l 1
 468.566 1359.81 l 1
 516.869 1325.58 l 1
 715.598 1204.17 992.244 830.484 1194.96 556.404 c 1
 1200.49 755.531 1201.85 951.463 1201.85 1150.58 c 2
 1201.85 1289.78 l 1
 1601.49 1289.78 l 1
 1535.9 11.6777 l 1
 1164.24 -31.9561 l 1
 1122.17 11.3418 l 1
 978.666 156.389 704.985 585.661 500.23 905.632 c 1xd0
 500.778 797.726 525.918 545.764 525.918 379 c 2
 525.918 -86.374 l 1
 296.083 -12.7715 l 1
 143 49.7373 l 1
 143 111.214 l 2xb0
 143 343.454 138 576.326 138 810.749 c 0xd0
EndSplineSet
EndChar

StartChar: o
Encoding: 111 111 80
Width: 1530
Flags: W
HStem: -38 290<648.642 876.864> 1144 217<605.745 903.038>
VStem: 108 368.728<514.166 1007.94> 1032.86 364.141<447.734 986.169>
LayerCount: 2
Fore
SplineSet
1032.86 815 m 0
 1032.86 1022.06 870.13 1137.96 835.888 1144 c 1
 509.214 1143.58 476.728 1006.22 476.728 762 c 0
 476.728 631.081 553.356 252 740.46 252 c 0
 965.577 252 1022.54 508.355 1022.54 624 c 0
 1022.54 679.703 1032.86 744.869 1032.86 815 c 0
108 773.812 m 2
 108 1143.76 381.625 1361 766.833 1361 c 0
 1140.37 1361 1397 1151.67 1397 780.336 c 2
 1397 565.965 l 2
 1397 414.675 1375.53 -38 766.833 -38 c 0
 147.904 -38 109 450.216 109 630.276 c 0
 109 668.695 108 706.749 108 739.326 c 2
 108 773.812 l 2
EndSplineSet
EndChar

StartChar: p
Encoding: 112 112 81
Width: 1019
Flags: W
HStem: -39 21G<147.241 561.263>
VStem: 147.241 414.022<-39 574.909> 147.241 357.762<822.71 1135> 737.099 265.901<885.118 1033.48>
LayerCount: 2
Fore
SplineSet
508 1135 m 1xb0
 505.003 822.71 l 1
 715.98 860.443 737.099 921.629 737.099 923.457 c 0
 737.099 989.27 689.634 1089.08 508 1135 c 1xb0
562.714 1336.04 m 6
 929.046 1336.04 1003 1134.12 1003 992.792 c 0
 1003 819.095 879.643 643.606 561.263 562.951 c 1
 561.263 -39 l 1
 147.241 -39 l 1xd0
 147.241 1336.04 l 1
 562.714 1336.04 l 6
EndSplineSet
EndChar

StartChar: q
Encoding: 113 113 82
Width: 1525
Flags: W
HStem: 1164 229.44<584.04 842.123>
VStem: 107 331.528<352.209 892.735> 1038.23 357.768<438.202 960.921>
DStem2: 1098.79 -32.1211 685.567 -82.6406 0.250009 -0.968244<-16.1337 375.434>
LayerCount: 2
Fore
SplineSet
1396 792.901 m 0
 1396 655.102 1375.64 139.169 1098.79 -32.1211 c 1
 1182.1 -398.358 l 1
 797.732 -517.036 l 1
 685.567 -82.6406 l 1
 360.042 -41.4883 107 107.774 107 528.087 c 0
 107 603.459 111 677.494 111 740.184 c 0
 111 1117.09 395.813 1393.44 723.633 1393.44 c 0
 1038.03 1393.44 1396 1132.03 1396 792.901 c 0
684.199 86.1934 m 1
 975.246 49.3635 978.716 377.989 1038.23 704 c 1
 1038.23 981.059 934.616 1163.12 629.913 1164 c 0
 552.617 1164 438.528 802.529 438.528 677 c 0
 438.528 522.363 487.893 98.5498 684.199 86.1934 c 1
EndSplineSet
EndChar

StartChar: r
Encoding: 114 114 83
Width: 1139
Flags: W
HStem: -4 21G<176.486 518.283>
VStem: 122 373.692<960.239 1173.95> 177.337 340.946<-4 186.667> 633.858 430.279<933.064 1139.9>
LayerCount: 2
Fore
SplineSet
1064.14 1058.11 m 0xd0
 1064.14 873.428 985.533 763.93 799.106 689.146 c 1
 1163.36 206.003 l 1
 1163.36 46.9395 l 1
 912.852 -65.0576 l 1
 574.099 528 l 1
 478.282 528 l 1
 518.283 -4 l 1
 177.337 -4 l 1xb0
 122 1297.39 l 1
 295.7 1365.26 l 1
 589.043 1357.92 1064.14 1333.98 1064.14 1058.11 c 0xd0
633.858 1072.76 m 0
 633.858 1120.43 599.504 1153.2 486.159 1173.95 c 1
 488.103 1092.02 492.096 949.453 495.692 867.877 c 1xd0
 621.489 911.179 633.692 1012.89 633.692 1067.01 c 0
 633.877 1070.82 633.858 1070.65 633.858 1072.76 c 0
EndSplineSet
EndChar

StartChar: s
Encoding: 115 115 84
Width: 965
Flags: W
HStem: -28 303<172.894 448.928>
VStem: 124.192 398.774<917.746 1076.91> 500.342 378.851<326.849 520.601>
LayerCount: 2
Fore
SplineSet
671.633 1065.73 m 2xc0
 658.885 1070.89 608.109 1082.46 588.235 1085.24 c 1
 570.203 1083.24 522.966 1057.1 522.966 1007.38 c 0xc0
 522.966 872.862 879.193 736.382 879.193 380.02 c 0
 879.193 230.139 782.614 -28 375.154 -28 c 0
 286.277 -28 225.479 -8.57324 161.328 21.9248 c 2
 85 58.0801 l 1
 149.213 299.645 l 1
 236.743 289.697 l 2
 276.065 285.559 352.994 275 382.695 275 c 0
 423.586 275 500.342 358.298 500.342 435.224 c 0xa0
 500.342 574.904 124.192 728.414 124.192 1042.24 c 0
 124.192 1152.08 203.045 1381 536.541 1381 c 0
 638.662 1381 734.091 1369.24 803.393 1315.34 c 1
 856.026 1277.71 l 1
 782.978 1015.83 l 1
 671.633 1065.73 l 2xc0
EndSplineSet
EndChar

StartChar: t
Encoding: 116 116 85
Width: 1355
Flags: W
HStem: 1033 301.279<944.156 1206.56> 1059.84 303.896<149.56 379.873>
VStem: 451.233 534.905<8.84961 358.573>
LayerCount: 2
Fore
SplineSet
451.233 8.84961 m 1xa0
 451.233 307.445 l 1
 379.873 1060.85 l 1
 337.021 1059.84 l 1
 148 1064.95 l 1
 149.56 1363.73 l 1x60
 1206.56 1334.28 l 1
 1206.56 1033 l 1
 944.156 1033 l 1
 986.139 8.84961 l 1
 451.233 8.84961 l 1xa0
EndSplineSet
EndChar

StartChar: u
Encoding: 117 117 86
Width: 1432
Flags: W
HStem: -31 341<533.133 811.517>
VStem: 143 379.309<506.86 1343.53> 932.122 355.878<454.505 1323.73>
LayerCount: 2
Fore
SplineSet
522.309 1384.13 m 1
 522.309 417.767 l 2
 522.309 319.533 531.902 310 635.686 310 c 0
 917.083 310 932.122 454.441 932.122 951.503 c 2
 932.122 1236.63 l 1
 928.722 1448.03 l 1
 1008.25 1426.6 l 2
 1032.04 1420.19 1056.99 1414.07 1080.21 1406.68 c 2
 1158.18 1382.77 l 1
 1287 1323.73 l 1
 1287 1262.6 l 2
 1287 1183.92 1288 1103.02 1288 1024.53 c 2
 1288 806.912 l 2
 1288 528.963 1281.26 -31 667.574 -31 c 0
 171.829 -31 131 313.529 131 497.762 c 0
 131 693.155 146 805.393 146 966.015 c 0
 146 1053.52 145.021 1136.86 143 1218.68 c 1
 143 1343.53 l 1
 522.309 1384.13 l 1
EndSplineSet
EndChar

StartChar: v
Encoding: 118 118 87
Width: 1460
Flags: W
HStem: 1358.34 20G<1174.24 1188.74>
DStem2: 464.143 1366 121 1284.88 0.315685 -0.948864<0 736.465>
LayerCount: 2
Fore
SplineSet
1012.29 1378 m 1
 1165.03 1378 l 2
 1170 1378.28 1171.72 1378.34 1176.75 1378.34 c 0
 1200.72 1378.34 1326.92 1371.75 1326.92 1258.03 c 0
 1326.92 1061.77 1055.6 150.131 1012.6 75.7363 c 1
 981.653 19.333 l 1
 524.953 3.47754 l 1
 496.172 74.1045 l 1
 401.524 282.005 264.202 862.741 148.256 1202.96 c 1
 121 1284.88 l 1
 352.643 1366 l 1
 464.143 1366 l 1
 487.434 1290.13 l 1
 497.45 1261.93 656.098 861.037 774.079 546.476 c 1
 852.644 797.094 917.931 1048.11 991.507 1298.82 c 1
 1012.29 1378 l 1
EndSplineSet
EndChar

StartChar: w
Encoding: 119 119 88
Width: 1675
Flags: W
HStem: -51 21.627G<302.565 703.974 1048.67 1414.91>
VStem: 1224.23 361.906<1013.73 1375.64>
DStem2: 1138.54 756.637 1586.14 1375.64 0.120891 0.992666<0 624.82>
LayerCount: 2
Fore
SplineSet
339.061 1351.84 m 1
 540.828 749.097 l 1
 663.414 1207.71 l 1
 991.193 1207.71 l 1
 1015.24 1135.52 l 2
 1058.2 1008.5 1099.1 881.942 1138.54 756.637 c 1
 1224.23 1375.64 l 1
 1586.14 1375.64 l 1
 1412.47 -50.373 l 1
 1055.28 -50.373 l 1
 820.979 657.877 l 1
 700.577 -51 l 1
 307.521 -51 l 1
 -22 1278.56 l 1
 339.061 1351.84 l 1
EndSplineSet
EndChar

StartChar: x
Encoding: 120 120 89
Width: 1004
Flags: W
HStem: -44.1864 33.6815G<354.345 399.07 617.163 684.329> 1358.53 20G<294.807 361.319>
LayerCount: 2
Fore
SplineSet
515.732 1041.74 m 1
 557.745 1350.07 l 1
 974.641 1309.2 l 1
 862.353 1012.92 l 1
 833.765 959.698 759.56 735.215 750.982 659.591 c 1
 964.456 82.9814 l 1
 625.034 -31.5049 l 1
 488.849 314.549 l 1
 393.769 -44.1864 l 1
 148.932 80.0205 l 1
 311.431 662.097 l 1
 10.137 1258.23 l 1
 351.57 1378.53 l 1
 515.732 1041.74 l 1
EndSplineSet
EndChar

StartChar: y
Encoding: 121 121 90
Width: 1171
Flags: W
HStem: -33.2471 21G<459.146 688.817>
VStem: 458.848 482.226<-3.82617 464.505> 467.753 487.66<-3.70856 631.455>
DStem2: 379.478 1411.5 52 1255.82 0.514686 -0.857379<0 513.952>
LayerCount: 2
Fore
SplineSet
688.817 -17.8672 m 1xc0
 458.848 -33.2471 l 1xc0
 467.753 563.246 l 1
 392.588 693.482 163.754 1075.08 142.617 1115.63 c 1
 52 1255.82 l 1
 379.478 1411.5 l 1
 433.831 1319.63 l 1
 506.031 1227.81 597.455 1097.65 675.526 982.143 c 1
 719.614 1094.47 770.006 1214.01 825.196 1301.03 c 1
 861.571 1374.04 l 1
 1201.94 1318.81 l 1
 1172.62 1221.6 l 1
 1083.69 933.129 962.163 709.981 955.413 464.623 c 2xa0
 941.074 -3.82617 l 1
 688.817 -17.8672 l 1xc0
EndSplineSet
EndChar

StartChar: z
Encoding: 122 122 91
Width: 1029
Flags: W
HStem: -5.74121 21G<222.815 765.639> 17.707 261.613<566.281 819.708> 1072.37 286.627<218.157 507.947>
DStem2: 91 97.0732 566.281 279.32 0.390146 0.920753<353.234 1068.69>
LayerCount: 2
Fore
SplineSet
218.157 1359 m 1
 822.929 1359 l 1
 964.683 1246.83 l 1
 566.281 279.32 l 1
 819.708 282.643 l 1
 831.827 157.347 l 1
 853.74 17.707 l 1
 254.649 -5.74121 l 1
 91 97.0732 l 1
 507.947 1081.08 l 1
 205.926 1072.37 l 1
 218.157 1220.32 l 1
 218.157 1359 l 1
EndSplineSet
EndChar

StartChar: braceleft
Encoding: 123 123 92
Width: 787
Flags: W
HStem: -151 315<507.004 717.509> -151 292<501.186 659.274> 1286 310<508.167 744.69>
VStem: 161 331<145.993 614.017 922.34 1304.32>
LayerCount: 2
Fore
SplineSet
788.37 25.3821 m 0xb0
 788.37 -98.1723 683.067 -130.29 628 -140.54 c 1
 628 -151 l 1
 526 -151 l 2xb0
 255.864 -151 161 13.4208 161 197 c 2
 161 614.017 l 1
 158.666 614.085 157.703 614.093 155.731 614.093 c 0
 146.4 614.093 133.965 613.374 119.74 613.374 c 0
 61.2348 613.374 -21 644.537 -21 765 c 0
 -21 894.107 68.2177 921.796 126.362 921.796 c 0
 136.222 921.796 145.031 921.524 152.272 921.524 c 0
 154.953 921.524 158.571 921.598 159.842 921.642 c 1
 158.341 958.467 147 1050.7 147 1129 c 0
 147 1163.33 148.34 1200.89 159.552 1237.56 c 1
 157.541 1252.53 157 1265.35 157 1279 c 0
 157 1462.54 307.392 1596 526 1596 c 0
 530.201 1596 538.114 1596.15 547.852 1596.15 c 2
 555.069 1596.15 l 2
 610.868 1596.15 742.847 1593.98 798.163 1495.52 c 0
 810.568 1473.96 814 1454.52 814 1434 c 0
 814 1300.43 673.592 1286 637 1286 c 0
 569.822 1286 520.611 1304.29 507.527 1304.96 c 1
 495.507 1292.16 481 1221.15 481 1156 c 0
 481 1117.04 491 1030.48 491 946 c 0
 491 890.766 487.314 829.028 463.32 770.793 c 1
 490.792 713.258 492 660.431 492 621 c 2
 492 179 l 2
 492 161.416 492.762 147.547 493.744 141.687 c 1
 497.578 141.195 500.668 141 506 141 c 0x70
 526.877 141 583.133 164 663 164 c 0
 778.634 164 788.37 49.5553 788.37 25.3821 c 0xb0
EndSplineSet
EndChar

StartChar: bar
Encoding: 124 124 93
Width: 457
Flags: W
VStem: 53 351<833.019 1624.98> 70.2115 342.789<-113.552 789.451>
LayerCount: 2
Fore
SplineSet
240 -182 m 0x40
 72.5628 -182 70.2115 25.1909 70.2115 80.0132 c 0x40
 70.2115 97.8551 70.9567 112.535 71 114.229 c 0
 70.9752 579.371 53 1042.51 53 1510 c 0
 53 1622.13 147.806 1686 247 1686 c 0
 333.323 1686 404 1619.26 404 1533 c 0x80
 404 1149.8 413 764.794 413 379 c 2
 413 -29 l 2
 413 -138.616 306.849 -182 240 -182 c 0x40
EndSplineSet
EndChar

StartChar: braceright
Encoding: 125 125 94
Width: 782
Flags: W
HStem: -150.154 310.154<52.2995 288.121> 1283 314.074<68.8398 285.556>
VStem: 304 332<149.061 575.265 879.889 1299.89>
LayerCount: 2
Fore
SplineSet
271 1597 m 0
 538.167 1597 636 1432.06 636 1249 c 2
 636 879.889 l 1
 637.022 879.886 l 2
 645.754 879.886 658.18 880.77 672.765 880.77 c 0
 730.693 880.77 805 845.909 805 731 c 0
 805 608.769 726.992 574.995 668.344 574.995 c 0
 656.385 574.995 646.089 575.528 638.423 575.528 c 2
 637.066 575.525 l 1
 638.011 533.59 647 421.751 647 330 c 2
 647.005 319.059 l 2
 647.005 282.457 646.52 244.551 635.844 207.543 c 1
 637.346 191.785 638 180.07 638 166 c 0
 638 -16.2247 489.836 -150 271 -150 c 0
 266.799 -150 258.886 -150.149 249.148 -150.149 c 0
 246.907 -150.149 244.488 -150.154 241.906 -150.154 c 0
 186.092 -150.154 54.1478 -147.977 -1.16872 -49.5146 c 0
 -13.5616 -27.971 -17 -8.51751 -17 12 c 0
 -17 145.209 122.082 160 159 160 c 0
 226.89 160 276.598 141.675 288.717 141.034 c 1
 300.46 152.868 316 223.4 316 289 c 0
 316 333.2 303 435.195 303 534 c 0
 303 595.642 306.277 663.792 332.686 726.781 c 1
 306.307 783.019 304 835 304 875 c 0
 304 929.012 317 1027.36 317 1127 c 0
 317 1235.9 296.528 1294.53 286.658 1305.9 c 1
 263.637 1304.49 209.157 1283 133 1283 c 0
 19.3238 1283 8.52617 1394.33 8.52617 1420.2 c 0
 8.52617 1426.11 8.92863 1432.28 9.01626 1433.46 c 0
 11.9077 1592.74 198.862 1597.09 250.085 1597.09 c 2
 257.546 1597.07 l 2
 263.79 1597.07 268.771 1597 271 1597 c 0
EndSplineSet
EndChar

StartChar: exclamdown
Encoding: 161 161 95
Width: 460
Flags: W
VStem: 2 424<1370.14 1604.99> 63 382<-86.6791 710.403> 76 316<425.229 1280.49>
LayerCount: 2
Fore
SplineSet
445 -2 m 0x40
 445 -106.611 348.451 -154 278 -154 c 0
 203.445 -154 63 -109.4 63 27 c 0x40
 63 254.955 76 478.99 76 699 c 0x20
 76 799.838 66 918.184 66 1038 c 0
 66 1043.16 64 1070.15 64 1099 c 0
 64 1104.78 63.6371 1116.32 63.6371 1130.16 c 0
 63.6371 1165.77 64.8674 1261.05 118.108 1314.43 c 1
 54.8333 1342.94 2 1399.41 2 1481 c 2
 2 1487 l 2
 2 1587.98 83.8143 1674 205 1674 c 0
 276.574 1674 426 1643.34 426 1494 c 0x80
 426 1420.25 384.424 1351.69 316.801 1316.89 c 1
 386.983 1255.66 392.154 1131.73 392.154 1088.47 c 0
 392.154 1080.99 392 1075.92 392 1074 c 0x20
 392 724.08 445 366.954 445 -2 c 0x40
EndSplineSet
EndChar

StartChar: cent
Encoding: 162 162 96
Width: 929
Flags: W
VStem: 237 353<1323.14 1491.13> 393 301.053<66.3862 227.869> 404 308<-61.9041 199.46>
LayerCount: 2
Fore
SplineSet
449.623 1558 m 1x80
 535.534 1524.37 590 1465.6 590 1379 c 2
 590 1347.48 l 1x80
 602.175 1287.74 682.598 1381.74 818.648 1201.81 c 1
 843 1170.5 l 1
 843 1135 l 2
 843 1047.68 767.653 982 684 982 c 0
 668.885 982 651.441 984.399 639.912 987.116 c 1
 656.786 843.21 676.187 683.506 685.863 546.708 c 1
 694.986 556.828 702.628 565.809 711.959 576.815 c 2
 742.113 613 l 1
 790 613 l 2
 832.971 613 891.088 605.534 933.226 555.596 c 0
 961.006 521.641 969 483.32 969 451 c 0
 969 294.644 786.437 238.931 694.053 216.097 c 1x40
 695.092 161.047 712 108.231 712 28 c 0
 712 -77.5457 613.542 -122 547 -122 c 2
 502.905 -122 l 1
 473.356 -90.4812 l 1
 445.432 -62.4502 404 -14.8499 404 65 c 0x20
 404 94.1935 393 147.802 393 202 c 0x40
 393 210.947 392.257 221.876 391.217 232.445 c 1
 38.7907 340.765 15 565.481 15 777 c 0
 15 924.49 17.6655 1169.07 242.444 1308.93 c 1
 239.111 1328.03 237 1346.12 237 1368 c 0
 237 1427.28 275.53 1558 430 1558 c 2
 449.623 1558 l 1x80
EndSplineSet
EndChar

StartChar: sterling
Encoding: 163 163 97
Width: 998
Flags: W
HStem: -68 321.514<546.783 744.836> -68 295<548.796 876.724> 783.434 320.566<465.613 666.771>
VStem: 42.9444 332.056<1089.81 1351.63> 236 330<324.005 513.046>
LayerCount: 2
Fore
SplineSet
564.69 -68 m 1xa8
 519.216 -54.6906 453.977 -31.4693 405.983 -31.002 c 1
 382.137 -33.8877 235.346 -78.92 203.52 -92.1167 c 2
 63 -150.332 l 1
 63 -68.8618 l 1
 28.9674 -49.5968 -12 -11.3276 -12 53 c 0
 -12 270.116 236 302.625 236 382 c 0xa8
 236 501.564 40 716.343 40 918 c 0
 40 955.714 55.4443 987.36 70.8516 1007.64 c 1
 62.2882 1074.21 43 1149.13 43 1238 c 0
 43 1241.66 42.9444 1247.24 42.9444 1254.45 c 0
 42.9444 1350.26 52.7527 1734 333 1734 c 2
 418 1734 l 2
 440.707 1734 459.611 1729.95 477.578 1725.16 c 0
 621.305 1684.09 737 1523.81 737 1403 c 2
 737 1345.99 l 1
 629.351 1257 l 1
 593 1257 l 2
 491.651 1257 439.542 1314.35 410.688 1354.82 c 1
 392.792 1315.44 378.598 1278.65 375 1265.66 c 1
 375 1243 l 2xb0
 375 1189.28 376.336 1133.99 381.421 1086.65 c 1
 436.617 1094.16 497.16 1104 565 1104 c 0
 628.45 1104 734 1063.4 734 952 c 0
 734 790.203 540.934 784.214 463.928 783.434 c 1
 507.56 664.5 566 529.622 566 378 c 0
 566 332.047 556.479 288.775 545.281 253.514 c 1xa8
 620.506 240.186 680.391 227 748 227 c 0x68
 780.501 227 810.976 231.645 833.503 239.905 c 2
 877.411 255.871 l 1
 1034 169.035 l 1
 1034 109 l 2
 1034 -61.4552 857.476 -75 795 -75 c 0
 743.828 -75 700.197 -68 665 -68 c 2
 564.69 -68 l 1xa8
EndSplineSet
EndChar

StartChar: fraction
Encoding: 8260 8260 98
Width: 744
Flags: W
LayerCount: 2
Fore
SplineSet
-78.1553 -47.805 m 1
 540.254 1714.66 l 1
 783.379 1542.77 l 1
 212.09 -166.88 l 1
 -78.1553 -47.805 l 1
EndSplineSet
EndChar

StartChar: yen
Encoding: 165 165 99
Width: 1428
Flags: W
HStem: 671 488.013<172.308 464.841 1063.73 1394.46>
LayerCount: 2
Fore
SplineSet
325.637 1159.01 m 0
 329.089 1159.01 332.542 1159 336 1159 c 0
 371.123 1159 418.758 1156.38 464.841 1154.96 c 1
 264.602 1317.45 -38 1558.71 -38 1737 c 0
 -38 1870.96 107.404 1876 145 1876 c 0
 328.728 1876 613.703 1554.87 769.972 1388.5 c 1
 843.997 1561.73 982.917 1934 1186 1934 c 0
 1249.17 1934 1363 1895.84 1363 1778 c 2
 1363 1745.67 l 1
 1270.7 1548.27 1160.07 1358.78 1063.73 1165.56 c 1
 1108.74 1166.9 1151.42 1168 1185.98 1168 c 2
 1193.18 1168 l 2
 1197.64 1168 1203.16 1168.06 1209.54 1168.06 c 0
 1279.67 1168.06 1453 1161.53 1453 1005 c 0
 1453 965.79 1435.65 934.03 1415.42 913.467 c 1
 1434.85 887.801 1447 856.74 1447 820 c 0
 1447 688.372 1303.7 678 1272 678 c 0
 1147.71 678 1136.59 677.997 980.807 675.714 c 1
 970.601 486.842 943 311.816 943 142 c 0
 943 138.939 945 117.581 945 94 c 0
 945 30.7229 912.701 -110 753 -110 c 0
 750.836 -110 747.117 -110.038 742.561 -110.038 c 0
 740.795 -110.038 738.479 -110.055 735.684 -110.055 c 0
 691.019 -110.055 524 -105.763 524 40 c 2
 524 82.8661 l 1
 544.064 106.274 l 1
 564.905 162.866 601.451 496.449 612.232 671 c 1
 274.654 671 l 1
 178.157 672.302 92 741.253 92 838 c 0
 92 881.928 114.266 921.22 144.82 945.562 c 1
 133.695 965.426 128 985.854 128 1010 c 0
 128 1155.41 283.952 1159.01 325.637 1159.01 c 0
EndSplineSet
EndChar

StartChar: section
Encoding: 167 167 100
Width: 802
Flags: W
HStem: -101 324<161.584 354.731> 1228.43 316.567<392.079 646.454>
LayerCount: 2
Fore
SplineSet
792.202 736 m 1
 806 736 l 1
 806 634 l 2
 806 561.74 776.616 495.013 729.05 443.662 c 1
 763.281 385.461 787 320.85 787 246 c 0
 787 80.7087 652.014 -101 364 -101 c 0
 288.183 -101 81 -86.3106 81 82 c 0
 81 217.279 227.486 223 256 223 c 0
 289.723 223 324.919 218.096 356.201 211.334 c 1
 409.317 215.829 431.497 246.433 438.448 260.856 c 1
 423.482 317.57 3 483.892 3 820 c 0
 3 900.897 34.3918 982.045 93.9668 1044.89 c 1
 61.5853 1119.34 46 1196.62 46 1275 c 0
 46 1468.37 210.146 1545 446 1545 c 0
 449.216 1545 462.979 1545.53 479.782 1545.53 c 2
 483.287 1545.53 l 2
 538.978 1545.53 728 1543.88 728 1392 c 0
 728 1231.58 465.065 1231.08 385.464 1228.43 c 1
 452.645 1132.16 727.872 1004.53 792.202 736 c 1
455.262 681.192 m 1
 434.585 709.228 391.523 748.118 339.947 787.834 c 1
 350.855 766.885 392.939 725.321 455.262 681.192 c 1
EndSplineSet
EndChar

StartChar: currency
Encoding: 164 164 101
Width: 1579
Flags: W
HStem: 103 304<542.464 998.788> 1078 309<620.934 1012.42>
VStem: 68.9956 358.004<517.941 713.754> 1196 358<598.805 922.544>
LayerCount: 2
Fore
SplineSet
1196 816.235 m 1
 1178.34 929.485 1079.58 1077.57 761.528 1078 c 1
 748.339 1076.77 667.618 1052.06 618.237 1032.42 c 1
 605.371 952.059 536.632 918.284 480.137 909.533 c 1
 457.311 865.721 425.281 763.215 417.524 714.383 c 1
 423.393 700.975 427 687.077 427 669 c 0
 427 623.892 416.446 588.837 416 584.534 c 0
 416.007 575.409 415.197 568.233 415.197 562.155 c 0
 415.197 544.644 421.922 536.248 474.299 516.606 c 2
 540 490.724 l 1
 540 442.062 l 1
 570.68 427.6 651.334 407 780 407 c 0
 1141.08 407 1196 667.953 1196 779 c 2
 1196 816.235 l 1
1567 247 m 0
 1567 142.22 1471.43 93 1400 93 c 0
 1361.24 93 1278.03 96.0262 1226.49 163.206 c 1
 1066.87 122.568 868.019 103 699 103 c 0
 562.228 103 433.14 128.416 332.133 164.32 c 1
 300.873 131.488 251.539 99 184 99 c 0
 73.5928 99 -1 182.572 -1 276 c 0
 -1 353.429 54.8267 399.24 86.2414 422.046 c 1
 69.0048 478.223 69 526.024 69 567 c 0
 69 572.336 68.9956 577.97 68.9956 583.878 c 0
 68.9956 695.198 70.5684 903.875 132.984 1053.44 c 1
 95.8996 1079.39 37 1126.59 37 1209 c 0
 37 1319.87 142.561 1357 201 1357 c 0
 279.197 1357 334.923 1320.04 371.25 1292.46 c 1
 441.513 1329.69 547.715 1387 657 1387 c 0
 829.067 1387 997.178 1363.94 1145.97 1326.76 c 1
 1190.37 1365.49 1266.66 1453 1389 1453 c 2
 1420.86 1453 l 1
 1563.88 1354.51 l 1
 1559.86 1296.16 l 1
 1552.04 1201.26 1475.64 1139.09 1442.49 1109.83 c 1
 1462.5 1042.8 1554 924.888 1554 772 c 0
 1554 614.914 1477.41 493.851 1468.15 415.05 c 1
 1498.32 392.356 1567 339.473 1567 247 c 0
EndSplineSet
EndChar

StartChar: quotesingle
Encoding: 39 39 102
Width: 425
Flags: W
HStem: 1091 589<102.314 287.776>
VStem: 37.8134 354.187<1236.91 1624.28>
LayerCount: 2
Fore
SplineSet
219 1680 m 0
 323.426 1680 367.721 1605.61 392 1554.5 c 1
 392 1525 l 2
 392 1509.53 388.016 1494.06 385.688 1487.51 c 1
 383.183 1414.64 378.475 1091 187 1091 c 0
 177.024 1091 167.025 1092.5 157.619 1095.4 c 0
 48.0138 1129.26 37.1491 1310.4 37.1491 1423.04 c 0
 37.1491 1450.89 37.8134 1474.55 37.8134 1490.76 c 0
 37.8134 1508.94 38 1523.3 38 1531 c 0
 38 1664.32 181.264 1680 219 1680 c 0
EndSplineSet
EndChar

StartChar: quotedblleft
Encoding: 8220 8220 103
Width: 850
Flags: W
HStem: 1090 589<231.72 395.026 398.817 554 555.435 676.009>
VStem: 25 735<1183.07 1382.75>
LayerCount: 2
Fore
SplineSet
250 1090 m 0
 109.906 1090 55.7434 1192.53 25 1255.16 c 1
 25 1286 l 2
 25 1303.36 29.3064 1317.48 33.3828 1327.32 c 1
 50.2938 1456.51 174.871 1679 374 1679 c 2
 554 1679 l 1
 554 1660.17 l 1
 584.59 1672.77 616.424 1680 651 1680 c 2
 831 1680 l 1
 831 1457.49 l 1
 791.146 1425.6 l 2
 768.799 1409 747.688 1396.26 728.383 1384.14 c 1
 747.474 1354.61 760 1320.14 760 1280 c 0
 760 1131.06 601.845 1091 526 1091 c 0
 473.573 1091 429.345 1108.16 397.307 1130.87 c 1
 348.737 1100.66 294.573 1090 250 1090 c 0
EndSplineSet
EndChar

StartChar: guillemotleft
Encoding: 171 171 104
Width: 954
Flags: W
LayerCount: 2
Fore
SplineSet
574.324 720.08 m 1
 648.831 590.802 931.307 165.512 977 102.557 c 1
 977 33 l 2
 977 11.9773 969.483 -124 838 -124 c 0
 812.311 -124 787.394 -115.546 767.254 -105.417 c 1
 716.383 -160.048 645.331 -161.001 619.609 -161.001 c 2
 617 -161 l 2
 437.616 -161 -10 559.148 -10 697 c 0
 -10 841.582 276.722 1362.22 409 1522.93 c 1
 409 1573.52 l 1
 493.051 1584.98 l 1
 501.635 1587.57 515.964 1591 535 1591 c 0
 570.05 1591 637.425 1583.78 683.234 1534.52 c 1
 699.831 1543.07 717.453 1549 738 1549 c 0
 744.176 1549 750.471 1548.35 753.347 1548 c 2
 775.006 1548 l 1
 918.349 1462.85 l 1
 906.3 1394.57 l 1
 865.899 1145.48 604.392 839.043 574.324 720.08 c 1
EndSplineSet
EndChar

StartChar: guilsinglleft
Encoding: 8249 8249 105
Width: 726
Flags: W
LayerCount: 2
Fore
SplineSet
-29.3991 691.546 m 1
 469.539 1581.81 l 1
 713.254 1456.83 l 1
 359.168 709.653 l 1
 788.652 36.6265 l 1
 606.873 -190.209 l 1
 -29.3991 691.546 l 1
EndSplineSet
EndChar

StartChar: guilsinglright
Encoding: 8250 8250 106
Width: 758
Flags: W
DStem2: -48.9838 35.0721 263.735 -121 0.543524 0.839394<38.964 812.211>
LayerCount: 2
Fore
SplineSet
278.431 1585.16 m 1
 791.756 694.452 l 1
 263.735 -121 l 1
 111.269 -121 l 1
 -48.9838 35.0721 l 1
 402.537 710.319 l 1
 52.0138 1451.22 l 1
 278.431 1585.16 l 1
EndSplineSet
EndChar

StartChar: endash
Encoding: 8211 8211 107
Width: 1348
Flags: W
HStem: 543.603 295.397<94.8388 1252.91>
LayerCount: 2
Fore
SplineSet
433 839 m 2
 467.235 839 636.623 843 819 843 c 0
 859.131 843 908.012 844.391 958.724 844.391 c 2
 975.709 844.398 l 2
 1104.21 844.398 1316 840.963 1316 683 c 0
 1316 575.044 1216.12 534 1152 534 c 0
 905.869 534 519.938 544 258 544 c 0
 257.242 544 247.865 543.603 236.927 543.603 c 0
 198.536 543.603 49 549.953 49 691 c 0
 49 794.438 143.077 839 211 839 c 2
 433 839 l 2
EndSplineSet
EndChar

StartChar: periodcentered
Encoding: 183 183 108
Width: 481
Flags: W
HStem: 531 356<116.981 375.104>
VStem: 46 399<595.443 817.681>
LayerCount: 2
Fore
SplineSet
46 706 m 0
 46 824.384 158.048 887 248 887 c 0
 339.913 887 445 820.786 445 708 c 0
 445 575.093 317.227 531 238 531 c 0
 146.972 531 46 595.73 46 706 c 0
EndSplineSet
EndChar

StartChar: paragraph
Encoding: 182 182 109
Width: 1301
Flags: W
HStem: 997.688 301.875<385.068 578>
VStem: -14 351<1344.68 1538.01>
LayerCount: 2
Fore
SplineSet
602.028 997.688 m 1
 294.512 1011.78 130.76 1110.41 -14 1356.09 c 1
 -14 1385 l 2
 -14 1829.02 362.905 1979 821 1979 c 2
 1332 1979 l 1
 1332 1733.41 l 1
 1247 1681.41 l 1
 1247 -12.3463 l 1
 1086.24 -142.352 l 1
 901.791 -39.277 l 1
 897.041 -98 l 1
 537.929 -98 l 1
 602.028 997.688 l 1
337 1455 m 0
 337 1337.4 387.903 1308.25 578 1299.56 c 1
 578 1638 l 1
 569 1638 l 2
 426.86 1638 337 1524.02 337 1455 c 0
EndSplineSet
EndChar

StartChar: bullet
Encoding: 8226 8226 110
Width: 831
Flags: W
HStem: 383 730<246.215 600.847>
VStem: 41 766<598.321 896.504>
LayerCount: 2
Fore
SplineSet
41 727 m 0
 41 893.706 189.51 1113 398 1113 c 0
 697.824 1113 807 917.043 807 779 c 0
 807 671.887 739.111 383 410 383 c 0
 227.709 383 42 508.101 42 665 c 0
 42 683.162 41 701.481 41 727 c 0
EndSplineSet
EndChar

StartChar: quotesinglbase
Encoding: 8218 8218 111
Width: 563
Flags: W
HStem: -304 590<164.945 337.987>
VStem: 86 457<-4.9662 193.805>
LayerCount: 2
Fore
SplineSet
319 286 m 0
 457.947 286 512.149 184.687 543 121.843 c 1
 543 91 l 2
 543 77.1543 540.42 66.0544 538.408 58.802 c 1
 527.22 -71.4598 398.817 -304 195 -304 c 2
 14 -304 l 1
 14 -79.5 l 1
 54.2093 -49.343 l 2
 74.4068 -33.8979 97.9879 -18.9722 117.636 -6.28296 c 1
 99.3599 21.6958 86 56.8678 86 97 c 0
 86 245.651 242.906 286 319 286 c 0
EndSplineSet
EndChar

StartChar: quotedblbase
Encoding: 8222 8222 112
Width: 884
Flags: W
HStem: -303 589<167.142 306.163 308 457.518 487.642 662.408>
LayerCount: 2
Fore
SplineSet
24.6275 -110.169 m 2
 50.7953 -67.4286 89.5601 -35.3552 120.694 -9.49606 c 1
 100.556 20.5103 87 55.1487 87 97 c 0
 87 247.237 246.736 286 322 286 c 0
 379.949 286 434.28 263.836 472.621 230.356 c 1
 524.841 272.339 590.625 286 641 286 c 0
 755.844 286 862 201.573 862 83 c 0
 862 -39.8844 737.957 -303 517 -303 c 2
 308 -303 l 1
 308 -269.412 l 1
 268.865 -288.061 226.254 -299 180 -299 c 2
 156.293 -299 l 1
 -35.3468 -206.128 l 1
 24.6275 -110.169 l 2
EndSplineSet
EndChar

StartChar: quotedblright
Encoding: 8221 8221 113
Width: 903
Flags: W
HStem: 1094 589<174.945 342.042 344 463.687 496.968 673.289>
VStem: 96 776<1391.25 1590.73>
LayerCount: 2
Fore
SplineSet
649 1682 m 0
 783.183 1682 842.148 1583.81 872 1513.36 c 1
 872 1474 l 2
 872 1339.14 733.692 1092 524 1092 c 2
 344 1092 l 1
 344 1134.44 l 1
 302.308 1109.48 256.147 1094 205 1094 c 2
 24 1094 l 1
 24 1319.25 l 1
 65.9538 1349.21 l 2
 87.6206 1365.21 108.748 1378.01 127.617 1389.86 c 1
 108.525 1419.39 96 1453.86 96 1494 c 0
 96 1642.65 252.906 1683 329 1683 c 0
 393.731 1683 444.649 1657.44 479.242 1626.04 c 1
 531.922 1668.48 597.88 1682 649 1682 c 0
EndSplineSet
EndChar

StartChar: guillemotright
Encoding: 187 187 114
Width: 988
Flags: W
LayerCount: 2
Fore
SplineSet
-20.5552 79.2226 m 1
 28.0625 148.978 337.132 594.397 415.115 722.706 c 1
 387.729 858.567 85.2709 1145.89 82 1409.68 c 1
 82 1468.97 l 1
 345 1625.79 l 1
 345 1558.47 l 1
 380.928 1581.74 421.476 1591 459 1591 c 0
 478.263 1591 494.503 1586.84 501.86 1584.25 c 1
 514.736 1581.73 525.673 1579.87 539.686 1576.87 c 2
 580 1568.23 l 1
 580 1525.7 l 1
 720.177 1363.68 1004 845.849 1004 699 c 0
 1004 561.159 556.425 -159 378 -159 c 0
 356.401 -159 296.424 -158.881 245.062 -121 c 1
 208.13 -121 l 2
 203.575 -121.213 179.865 -125 153 -125 c 0
 9.13849 -125 -17.8949 2.07227 -20.5552 79.2226 c 1
EndSplineSet
EndChar

StartChar: ellipsis
Encoding: 8230 8230 115
Width: 1476
Flags: W
HStem: -134 356<115.981 374.104 616.565 874.517 1119.57 1377.52>
VStem: 45 399<-69.5571 152.681> 546 399<-69.4908 152.811> 1049 399<-69.4908 152.811>
LayerCount: 2
Fore
SplineSet
45 41 m 0
 45 159.384 157.048 222 247 222 c 0
 338.913 222 444 155.786 444 43 c 0
 444 -89.907 316.227 -134 237 -134 c 0
 145.972 -134 45 -69.2695 45 41 c 0
546 41 m 0
 546 159.1 656.973 222 748 222 c 0
 838.838 222 945 156.084 945 43 c 0
 945 -90.2709 815.925 -134 737 -134 c 0
 646.7 -134 546 -69.1153 546 41 c 0
1049 41 m 0
 1049 159.1 1159.97 222 1251 222 c 0
 1341.84 222 1448 156.084 1448 43 c 0
 1448 -90.2709 1318.92 -134 1240 -134 c 0
 1149.7 -134 1049 -69.1153 1049 41 c 0
EndSplineSet
EndChar

StartChar: grave
Encoding: 96 96 117
Width: 771
Flags: W
HStem: 1414.96 437.207
LayerCount: 2
Fore
SplineSet
856.508 1591.26 m 1
 577.364 1414.96 l 1
 -22.7466 1575.69 l 1
 110.887 1852.17 l 1
 856.508 1591.26 l 1
EndSplineSet
EndChar

StartChar: acute
Encoding: 180 180 118
Width: 587
Flags: W
HStem: 1164.94 527.701
DStem2: -121.164 1334.55 162.025 1164.94 0.839865 0.542795<145.777 642.444>
LayerCount: 2
Fore
SplineSet
718.476 1524.57 m 1
 162.025 1164.94 l 1
 -121.164 1334.55 l 1
 412.343 1692.64 l 1
 718.476 1524.57 l 1
EndSplineSet
EndChar

StartChar: circumflex
Encoding: 710 710 119
Width: 662
Flags: W
HStem: 789.831 671.169
LayerCount: 2
Fore
SplineSet
305.588 898.974 m 1
 244.889 789.831 l 1
 -23.6783 937.694 l 1
 285.915 1461 l 1
 483.978 1461 l 1
 672.213 932.315 l 1
 488.826 825 l 1
 319.948 825 l 1
 305.588 898.974 l 1
EndSplineSet
EndChar

StartChar: tilde
Encoding: 732 732 120
Width: 882
Flags: W
HStem: 894 432<161.302 360.931 554.438 739.109>
LayerCount: 2
Fore
SplineSet
584 895 m 0
 492.073 895 416.802 928.471 361 965.375 c 1
 361 894 l 1
 259 894 l 2
 257.405 894 254.731 893.961 251.151 893.961 c 0
 207.364 893.961 28 899.825 28 1055 c 0
 28 1203.04 150.227 1326 324 1326 c 2
 342.276 1326 l 1
 346.908 1324.46 360.79 1318.87 361.446 1318.55 c 2
 525.717 1253.93 l 1
 554.794 1291.49 599.856 1325 664 1325 c 0
 799.123 1325 857 1207.91 857 1129 c 0
 857 982.533 715.616 895 584 895 c 0
EndSplineSet
EndChar

StartChar: macron
Encoding: 175 175 121
Width: 879
Flags: W
HStem: 602 300<100.999 736.968>
LayerCount: 2
Fore
SplineSet
825.956 709.351 m 1
 736.968 602 l 1
 100.999 602 l 1
 47.1575 741.698 l 1
 61.3019 902 l 1
 837.01 902 l 1
 825.956 709.351 l 1
EndSplineSet
EndChar

StartChar: breve
Encoding: 728 728 122
Width: 709
Flags: W
HStem: 765 479<185.9 298.434 401.457 524.749>
VStem: 32 658
LayerCount: 2
Fore
SplineSet
678 1004.84 m 1
 631.699 921.103 573.463 765 359 765 c 0
 123.366 765 32 957.592 32 1100 c 2
 32 1165.75 l 1
 152.939 1244 l 1
 183 1244 l 2
 272.688 1244 324.939 1181.14 351.242 1131.46 c 1
 357.788 1148.91 366.786 1164.97 380.867 1180.87 c 0
 418.358 1223.04 471.293 1235 518 1235 c 0
 585.492 1235 690 1190.76 690 1081 c 0
 690 1056.95 683.567 1035.6 678 1024.15 c 1
 678 1004.84 l 1
EndSplineSet
EndChar

StartChar: dotaccent
Encoding: 729 729 123
Width: 478
Flags: W
HStem: 1288 356<111.981 370.104>
VStem: 41 399<1352.44 1574.68>
LayerCount: 2
Fore
SplineSet
41 1463 m 0
 41 1581.38 153.048 1644 243 1644 c 0
 334.913 1644 440 1577.79 440 1465 c 0
 440 1332.09 312.227 1288 233 1288 c 0
 141.972 1288 41 1352.73 41 1463 c 0
EndSplineSet
EndChar

StartChar: dieresis
Encoding: 168 168 124
Width: 992
Flags: W
HStem: 852 345<100.258 354.302 642.976 902.152>
VStem: 35 387<915.306 1132.56> 581 387<913.198 1133.49>
LayerCount: 2
Fore
SplineSet
581 1023 m 0
 581 1139.19 690.081 1200 778 1200 c 0
 869.382 1200 968 1132.53 968 1025 c 0
 968 895.149 839.377 852 766 852 c 0
 675.447 852 581 918.137 581 1023 c 0
214 852 m 0
 115.426 852 35 924.46 35 1021 c 0
 35 1132.77 135.312 1197 228 1197 c 0
 306.138 1197 422 1147.03 422 1026 c 0
 422 889.27 280.332 852 214 852 c 0
EndSplineSet
EndChar

StartChar: ring
Encoding: 730 730 125
Width: 552
Flags: W
HStem: 960 433<131.737 422.851>
VStem: 27 497<1051.49 1293.6>
LayerCount: 2
Fore
SplineSet
27 1169 m 0
 27 1304.92 156.972 1393 280 1393 c 0
 396.339 1393 524 1307.27 524 1176 c 0
 524 1018.46 368.874 960 260 960 c 0
 146.525 960 27 1041.69 27 1169 c 0
EndSplineSet
EndChar

StartChar: cedilla
Encoding: 184 184 126
Width: 609
Flags: W
VStem: -29.931 588.931
LayerCount: 2
Fore
SplineSet
280 -607 m 0
 197.087 -607 117.926 -565.257 50.2128 -495.323 c 2
 -29.931 -411.172 l 1
 150.304 -279 l 1
 154.39 -279 l 1
 136.739 -265.274 118.741 -253.262 107.068 -247.036 c 2
 38.8137 -210.902 l 1
 108.051 102 l 1
 368 102 l 1
 368 -29.8378 l 1
 487.481 -105.938 559 -229.173 559 -351 c 0
 559 -491.463 450.797 -607 280 -607 c 0
EndSplineSet
EndChar

StartChar: hungarumlaut
Encoding: 733 733 127
Width: 1091
Flags: W
HStem: -176.354 675.679
LayerCount: 2
Fore
SplineSet
703.502 353.176 m 1
 923.094 499.326 l 1
 1221.07 299.683 l 1
 460.018 -118.375 l 1
 319.787 -15.2639 l 1
 145.213 -176.354 l 1
 -84.8568 9.53043 l 1
 404.022 483.385 l 1
 703.502 353.176 l 1
EndSplineSet
EndChar

StartChar: ogonek
Encoding: 731 731 128
Width: 559
Flags: W
HStem: -468 590<260.295 390.76>
VStem: 11 442<-385.784 -101.029>
LayerCount: 2
Fore
SplineSet
11 -259 m 0
 11 -57.1043 206.211 58.9265 340.629 122 c 1
 781.424 122 l 1
 489.522 -65.9367 l 2
 469.072 -78.9897 446.825 -94.762 427.096 -110.158 c 1
 453 -95.9969 l 1
 453 -302 l 2
 453 -461.37 261.35 -468 231 -468 c 0
 100.738 -468 11 -369.109 11 -259 c 0
EndSplineSet
EndChar

StartChar: caron
Encoding: 711 711 129
Width: 712
Flags: W
HStem: 821.005 638.23
LayerCount: 2
Fore
SplineSet
484.597 821.005 m 1
 208.401 829.01 l 1
 8.63617 1356.3 l 1
 195.296 1459.23 l 1
 360.202 1456.29 l 1
 365.41 1435 l 1
 547.95 1435 l 1
 704.765 1349.87 l 1
 484.597 821.005 l 1
EndSplineSet
EndChar

StartChar: emdash
Encoding: 8212 8212 130
Width: 1820
Flags: W
HStem: 578 303<99.441 1723.51>
LayerCount: 2
Fore
SplineSet
1370 881 m 2
 1397.69 881 1439.49 882.929 1484.79 882.929 c 0
 1581.33 882.929 1783 881.917 1783 725 c 0
 1783 582.075 1620.27 576.041 1546.43 576.041 c 0
 1510.42 576.041 1477.58 578 1458 578 c 2
 311 578 l 2
 302.574 578 287.167 577.392 269.134 577.392 c 0
 211.055 577.392 49 583.458 49 733 c 0
 49 836.438 143.077 881 211 881 c 2
 1370 881 l 2
EndSplineSet
EndChar

StartChar: AE
Encoding: 198 198 131
Width: 1904
Flags: W
HStem: -21.7979 21G<283.028 352.269 1157.66 1405.9> 2.78223 266.848<1640.02 1793.2> 519 299<1449.67 1825.2> 1246 298<1444.25 1830.2>
VStem: 1050.49 399.184<262.078 519>
LayerCount: 2
Fore
SplineSet
1050.49 627.354 m 1
 772.848 614.404 l 1
 338.619 -21.7979 l 1
 33 88.1553 l 1
 1116.08 1544 l 1
 1830.2 1544 l 1
 1830.2 1246 l 1
 1444.25 1246 l 1
 1444.25 818 l 1
 1825.2 818 l 1
 1825.2 519 l 1
 1449.67 519 l 1
 1449.67 252.338 l 1
 1793.2 269.63 l 1
 1793.2 2.78223 l 1
 1192.21 -53.4658 l 1
 1006.15 54.2383 l 1
 1050.49 361.379 l 1
 1050.49 627.354 l 1
1032.05 888.086 m 1
 991.891 830 l 1
 1032.05 830 l 1
 1032.05 888.086 l 1
EndSplineSet
EndChar

StartChar: ordfeminine
Encoding: 170 170 132
Width: 1179
Flags: W
HStem: 266.123 270.008<326.293 810.057>
VStem: 812 304<535.196 703.758>
LayerCount: 2
Fore
SplineSet
581.935 978.151 m 1
 614.961 974.928 644.386 975.479 667.7 974.347 c 1
 624.877 1057.67 l 1
 610.078 1029.66 595.687 1003.06 581.935 978.151 c 1
588.933 1465 m 1
 636.21 1465.15 622.594 1466.18 647.332 1477 c 1
 669 1477 l 2
 716.773 1477 807.271 1469.27 845.458 1381.76 c 1
 1090.05 693.288 l 1
 1104.07 632.199 1116 582.984 1116 539 c 0
 1116 512.266 1110.41 478.663 1090.58 448.357 c 1
 1099.04 429.14 1102 412.929 1102 393 c 0
 1102 377.826 1096.91 363.22 1089.6 352.07 c 0
 1037.88 273.109 851.955 266.123 681.867 266.123 c 0
 645.297 266.123 609.459 266.446 575.844 266.446 c 0
 427.475 266.446 298.44 272.518 286.166 273.001 c 0
 252.079 273.225 120.44 284.631 118.997 409.38 c 1
 44.9629 440.216 46 521.546 46 539 c 2
 46 574.89 l 1
 53.387 584.124 l 1
 75.0516 695.861 158.359 1166.76 457.386 1440.46 c 1
 487.701 1468.75 l 1
 588.933 1465 l 1
513.195 712.931 m 1
 497.692 715.515 475.864 717.829 433.246 720.998 c 1
 357.947 606.069 l 1
 348.585 580.287 337.46 551.542 321.724 521.456 c 1
 418.801 533.002 540.941 536.131 651.817 536.131 c 0
 710.316 536.131 767.382 535.182 812.266 534.099 c 1
 812.054 538.187 812 540.58 812 544 c 2
 812 591 l 2
 812 596.738 812.023 602.274 812.023 607.584 c 0
 812.023 622.15 813.015 635.178 813.015 646.703 c 0
 813.015 692.7 797.211 714.75 639.453 715.001 c 1
 513.195 712.931 l 1
EndSplineSet
EndChar

StartChar: Lslash
Encoding: 321 321 133
Width: 1191
Flags: W
HStem: -23 21G<329.128 388.846> -1.00018 307<647.86 936.68> 617.027 285.973<598.008 1019.93>
VStem: 132 416.798<958.197 1502.49>
LayerCount: 2
Fore
SplineSet
92 760.842 m 0
 92 807.693 124.544 841.152 156.534 854.128 c 1
 144.229 1049.49 132 1241.33 132 1438.48 c 0
 132 1541.14 244.359 1571 299 1571 c 0
 365.971 1571 464.55 1549.84 524.328 1485.57 c 0
 539.018 1469.65 548.798 1450.31 548.798 1428.85 c 0
 548.798 1258.46 585.933 1079.69 598.008 898.98 c 1
 754.651 901.429 853.422 903 884 903 c 0
 943.053 903 1075 872.741 1075 749 c 0
 1075 736.426 1072.67 723.698 1068.01 712.011 c 0
 1033.1 624.365 911.056 617.027 796.009 617.027 c 0
 772.871 617.027 750.016 617.324 728.21 617.324 c 0
 682.895 617.324 637.352 617.934 597.811 618.175 c 1
 611.731 519.809 645.183 416.999 651.365 306 c 1
 851.039 306 l 1
 868.295 297.373 986 276.113 986 156 c 0
 986 63.2734 906.354 -4 813.794 -4 c 0
 788.44 -4 767.235 -0.626953 754.618 1.4834 c 1
 720.271 -0.93781 694.093 -1.00018 666.823 -1.00018 c 0
 665.342 -1.00018 663.857 -1 662.368 -1 c 0
 616.772 -1 573.119 0.619141 538.063 1.66504 c 1
 474.242 -16.6152 411.868 -23 365.824 -23 c 0
 292.432 -23 169 14.2471 169 127.377 c 0
 169 169.048 182.29 200.836 185.997 211.101 c 1
 185.819 355.185 178.877 498.816 169.896 642.194 c 1
 132.826 662.201 92 700.599 92 760.842 c 0
EndSplineSet
EndChar

StartChar: Oslash
Encoding: 216 216 134
Width: 1437
Flags: W
HStem: -16 291<680.413 874.672>
VStem: 959.001 346.999<355.628 1028.9>
LayerCount: 2
Fore
SplineSet
1197 1325.28 m 1
 1216.73 1303.04 1259 1254.51 1259 1181.48 c 2
 1259 1146.73 l 1
 1269.01 945.952 1306 736.911 1306 501.113 c 0
 1306 362.877 1291.64 -16 700.739 -16 c 0
 638.814 -16 576.527 -13.2656 518.409 -8.05762 c 1
 480.951 -77.9395 450.867 -142.119 435.093 -201.398 c 2
 397.416 -339.807 l 1
 133 -178.403 l 1
 133 -122 l 2
 133 10.3506 200.665 114.899 208.265 177.36 c 1
 139.844 348.159 126 541.329 126 721.143 c 2
 126 741.891 l 2
 126 853.321 130 961.859 130 1063.49 c 0
 130 1066.72 129.991 1070.39 129.991 1074.44 c 0
 129.991 1174.8 135.531 1569 582.173 1569 c 0
 618.235 1569 655.109 1566.27 687.543 1562.64 c 1
 724.541 1617.78 758.37 1679.38 808.83 1746.54 c 2
 847.662 1798 l 1
 1213.96 1798 l 1
 1209.95 1691.72 l 1
 1204.1 1585.04 1153.5 1498.43 1138.82 1442.69 c 1
 1143.52 1439.92 1146.45 1438.21 1151.06 1435.53 c 2
 1197 1407.95 l 1
 1197 1325.28 l 1
959.001 565 m 2
 959.001 633 l 2
 959.001 770.006 956.968 905.562 937.192 1034.97 c 1
 810.971 769.071 690.754 502.246 680.326 277.133 c 1
 701.611 275.765 723.007 275 753.565 275 c 0
 922.527 275 959.001 406.354 959.001 565 c 2
562.257 1287 m 1
 516.492 1224.22 482.734 1032.45 471.78 886.52 c 1
 526.216 1026.03 569.486 1162.32 581.443 1287 c 1
 562.257 1287 l 1
EndSplineSet
EndChar

StartChar: OE
Encoding: 338 338 135
Width: 2555
Flags: W
HStem: -16 300<2051.88 2495> 0 316<882.85 1340.06> 1222 303<1794.71 2191> 1245 306<643.473 1416.28>
VStem: 109 329.781<615.717 1093.02>
LayerCount: 2
Fore
SplineSet
438.781 926.022 m 0x58
 438.781 888.914 439.842 851.971 439.842 813.389 c 1
 446.348 575.227 557.737 316 1333.33 316 c 0
 1381.67 316 1552.87 321.206 1650.17 331.246 c 1
 1425.97 1206.46 l 1
 1304.72 1235.95 1109.73 1245 946.683 1245 c 0
 460.018 1245 438.781 1041.83 438.781 926.022 c 0x58
2051.88 284 m 1xa8
 2495 284 l 1
 2495 -16 l 1
 1807.77 -16 l 1xa8
 1745.91 51.5186 l 1
 1183.58 0 l 1
 1178 0 l 2
 180.651 0 109 495.246 109 805.057 c 0
 109 994.498 119.447 1551 871.399 1551 c 0x58
 1046.59 1551 1243.32 1547.74 1420.65 1519.6 c 1
 1420.65 1525 l 1
 2191 1525 l 1
 2191 1222 l 1
 1794.71 1222 l 1
 1830.81 956 l 1
 2070.04 956 l 1
 2292.88 740.222 l 1
 2306.41 715.148 2319.95 690.075 2333.48 665 c 1
 2020.56 665 l 1
 2051.88 284 l 1xa8
EndSplineSet
EndChar

StartChar: ordmasculine
Encoding: 186 186 136
Width: 1270
Flags: W
HStem: 322.061 377.939<457.014 877.915> 1192 243<447.39 819.948>
VStem: 91 289<778.348 1122.13> 927 289<745.062 1085.34>
LayerCount: 2
Fore
SplineSet
116 466 m 0
 116 528.122 180.668 549.11 219.987 559.567 c 1
 129.109 639.349 91 752.43 91 887 c 0
 91 994.858 93.7768 1435 569 1435 c 0
 1130.92 1435 1216 1122.46 1216 825 c 0
 1216 734.112 1167.7 635.609 1074.27 560.45 c 1
 1110.63 539.905 1140 502.197 1140 449 c 0
 1140 434.394 1135.19 420.316 1128.29 409.529 c 0
 1077.07 329.486 881.716 322.061 700.682 322.061 c 0
 659.446 322.061 618.952 322.446 581.075 322.446 c 0
 422.865 322.446 285.807 328.501 273.094 329.001 c 0
 238.63 329.321 116 345.254 116 466 c 0
927 905.305 m 1
 913.907 1099.35 866.987 1192 592 1192 c 0
 460.413 1192 380 1132.19 380 954 c 0
 380 768.078 451.449 700 646 700 c 0
 890.065 700 927 759.897 927 842 c 2
 927 905.305 l 1
EndSplineSet
EndChar

StartChar: ae
Encoding: 230 230 137
Width: 1801
Flags: W
HStem: -15.4347 276.781<1262.82 1662.72> 495 286.212<1259.39 1471.95> 1077.1 276.97<1256.94 1564.12>
VStem: 884.647 378.175<248.123 493.481>
LayerCount: 2
Fore
SplineSet
866.8 814.381 m 1
 847.371 794.819 828.988 775.804 811.264 756.873 c 1
 829.465 757.828 846.303 758.796 862.123 759.759 c 1
 863.835 779.584 865.416 797.604 866.8 814.381 c 1
1094.51 -14 m 2
 1044.96 -14 l 2
 1005.08 -14 850.608 -0.476562 850.608 120 c 0
 850.608 220.394 884.647 303.264 884.647 354 c 0
 884.647 425.409 874.134 506.682 867.987 588.749 c 1
 777.723 586.731 692.775 584.759 618.467 578.466 c 1
 353.373 -8 l 1
 283 -8 l 2
 237.456 -8 94 16.5684 94 131.424 c 0
 94 278.905 533.041 1248.65 1019.22 1336.71 c 0
 1037.2 1340.69 1052.51 1342.56 1067.69 1343.82 c 0
 1168.43 1351.03 1288.21 1354 1377.65 1354 c 2
 1380.3 1354 l 2
 1382.97 1354 1387.16 1354.07 1392.55 1354.07 c 0
 1444.31 1354.07 1607 1347.87 1607 1216.38 c 2
 1607 1095.6 l 1
 1516.54 1086.37 l 2
 1447.76 1079.94 1353.36 1077.7 1253.37 1077.1 c 1
 1259.64 1032.78 1266.76 985.769 1266.76 934.714 c 0
 1266.76 881.487 1262.43 829.78 1259.39 781.212 c 1
 1325 783.961 1378.52 787 1436.96 787 c 2
 1471.95 787 l 1
 1598 700.797 l 1
 1598 647 l 2
 1598 499.998 1430.63 494.262 1375.24 494.262 c 0
 1356.09 494.262 1339.93 495 1335.94 495 c 2
 1256.79 495 l 1
 1258.74 412.456 1261.46 328.333 1262.82 247.101 c 1
 1368.25 252.104 1452.37 261.347 1538 261.347 c 0
 1564.19 261.347 1728 257.598 1728 130.428 c 0
 1728 -10.529 1509.92 -15.4347 1369.89 -15.4347 c 0
 1359.41 -15.4347 1349.37 -15.4072 1339.9 -15.4072 c 0
 1283.7 -15.4072 1231.54 -14 1193.19 -14 c 0
 1153.08 -14 1118.22 -13.4287 1095.42 -13.167 c 0
 1094.65 -13.874 1095.28 -13.293 1094.51 -14 c 2
EndSplineSet
EndChar

StartChar: dotlessi
Encoding: 305 305 138
Width: 1132
Flags: W
HStem: 16 318.022<842.05 993.918> 1050 306.769<121.66 280.976>
VStem: 268 553<334.746 977.023> 282 554<333.996 587.035 597.73 685.167 694.834 1050>
LayerCount: 2
Fore
SplineSet
307 1356 m 2xd0
 331.439 1356 l 2
 361.6 1356 408.211 1356.85 462.101 1356.85 c 0
 477.685 1356.85 494.961 1356.93 513.466 1356.93 c 0
 689.564 1356.93 977 1348.99 977 1182 c 0
 977 1138.47 955.058 1109.3 948.493 1098.36 c 2
 918.267 1050 l 1
 834.685 1050 l 1
 835.525 1035.17 836 1020.29 836 1004.48 c 0xd0
 836 893.206 821 787.952 821 690.249 c 0
 821 581.95 841 466.141 841 341.878 c 2
 841 333.996 l 1
 842.992 334 l 1
 845.316 334 l 2
 847.099 334 849.497 334.022 852.424 334.022 c 0
 895.596 334.022 1054 329.312 1054 181 c 0
 1054 57.4756 932.035 16 864 16 c 0
 826.81 16 794.801 21.666 776.534 22.7432 c 1
 748.639 16.2764 675.803 0 579.167 0 c 0
 523.783 0 453.297 2.95117 385.73 18.7773 c 1
 380.006 18.5176 373.892 18 364.301 18 c 0
 310.093 18 224.742 21.2168 172.021 95.0264 c 1
 155 120.559 l 1
 155 150 l 2
 155 188.738 171.512 223.925 196 249.923 c 1
 196 305 l 1
 284.405 305 l 1
 279.778 397.386 268 491.242 268 591.741 c 0xe0
 268 719.581 282 842.829 282 960.283 c 0
 282 989.841 280.54 1021.26 278.188 1050.17 c 1
 271.094 1050.06 265.864 1050 259 1050 c 0
 217.754 1050 74 1063.94 74 1207 c 0
 74 1349.65 227.976 1356.77 274.581 1356.77 c 0
 290.999 1356.77 305.141 1356 307 1356 c 2xd0
EndSplineSet
EndChar

StartChar: lslash
Encoding: 322 322 139
Width: 1147
Flags: W
HStem: -29 21G<280.404 352.669> -10.0107 1365.01<285.075 581.415> -10.0107 294.011<587.659 987.969> 603.256 289.796<626.12 982.409>
VStem: 150 437.657<77.9146 591.6> 165.381 443.717<315.909 603.256 896.202 1194.45>
LayerCount: 2
Fore
SplineSet
853.623 -35.6621 m 1x38
 782.04 -18.2811 629.16 -10.3788 499.837 -10.0107 c 1x48
 433.6 -23.1211 377.492 -29 327.846 -29 c 0
 232.962 -29 150 34.8799 150 120.949 c 0x88
 150 277.584 157.855 434.37 165.381 587.3 c 1
 125.162 605.948 78 643.761 78 707.705 c 2
 78 708.637 l 2
 78 816.53 174 869.2 174 915.398 c 2
 174 922.729 l 1
 165.891 985.032 166 1041.05 166 1095.15 c 0
 166 1096.19 165.683 1104.74 165.683 1115.12 c 0
 165.683 1162.64 172.522 1355 370.728 1355 c 0x44
 455.345 1355 560.036 1338.01 620.317 1284.88 c 0
 642.546 1266.45 655.763 1246.41 655.763 1220.99 c 0
 655.763 1155.8 620.449 1105.66 620.449 1095.07 c 0
 620.449 1028.83 624.602 960.23 628.855 893.052 c 1
 770.933 897.539 841.688 899 872 899 c 0
 923.408 899 1062 876.958 1062 757.716 c 0
 1062 595.462 771.752 607.395 609.098 603.256 c 1
 609.098 591.5 l 2x14
 609.098 489.277 587.657 401.447 587.657 311.703 c 0
 587.657 296.101 589.959 285.312 591.497 281.255 c 1
 593.696 281.087 595.912 281 599.008 281 c 0
 653.4 281 736.523 284 791.974 284 c 0
 795.261 284 798.953 284.008 802.968 284.008 c 0
 805.3 284.008 807.976 284.018 810.956 284.018 c 0
 868.921 284.018 1042 280.151 1042 122 c 0
 1042 -20.7492 888.557 -31.8841 853.623 -35.6621 c 1x38
EndSplineSet
EndChar

StartChar: oslash
Encoding: 248 248 140
Width: 1363
Flags: W
HStem: -11 289<581.372 820.065> 1574 20G<786.565 1146>
VStem: 889.976 344.024<344.424 870.117>
LayerCount: 2
Fore
SplineSet
122 -91 m 2
 122 -89 l 2
 122 40.6426 188 109.271 188 185.972 c 0
 188 336.088 117 555.028 117 761.169 c 2
 116.999 956.41 l 2
 116.996 1045.08 121.934 1385 547.054 1385 c 0
 580.024 1385 612.32 1382.93 640.086 1380.25 c 1
 676.368 1435.6 715.834 1490.7 762.599 1545.5 c 2
 803.382 1594 l 1
 1146 1594 l 1
 1146 1492 l 2
 1146 1378.46 1093.96 1285.89 1085 1226.66 c 1
 1085 1218.38 l 1
 1133 1174.45 1191 1114.2 1191 1027.52 c 2
 1191 1013.47 l 2
 1191 851.561 1234 670.559 1234 462.843 c 0
 1234 327.877 1207.41 -11 594.848 -11 c 0
 556.67 -11 517.634 -10.126 482.545 -8.49609 c 1
 470.93 -75.5938 440.639 -245 279 -245 c 0
 179.548 -245 122 -163.391 122 -91 c 2
889.976 526 m 2
 889.976 561 l 2
 889.976 667.951 888.775 773.885 876.646 874.854 c 1
 763.053 668.076 644.45 458.349 581.372 279.717 c 1
 604.587 278.619 629.42 278 661.759 278 c 0
 877.331 278 889.976 406.691 889.976 526 c 2
463.693 951.593 m 1
 488.798 1012.89 509.188 1073.57 520.229 1129.4 c 1
 510.891 1131.84 l 1
 489.58 1088.28 473.684 1020.97 463.693 951.593 c 1
EndSplineSet
EndChar

StartChar: oe
Encoding: 339 339 141
Width: 2298
Flags: W
HStem: -28 289.696<604.708 894.599 1898.87 2158.73> 606 320.058<1911.44 2075.77> 1064 313<518.961 893.109>
VStem: 109.624 379.879<706.427 1043.24> 110 358.149<472.059 993.544> 961.439 440.94<673.331 1006.17> 1014.81 387.572<404.602 865.912> 1505.94 704.056<24.75 217.7> 1505.94 405.722<257.123 607.168 985.814 1069.45>
LayerCount: 2
Fore
SplineSet
713.718 250 m 0xe8
 975.029 250 1014.81 484.719 1014.81 581.465 c 0xea
 1014.81 691.88 965.061 821.045 961.439 964.203 c 1
 960.604 985.751 l 1
 945.071 1005.59 847.167 1064 652.86 1064 c 2
 540.083 1064 l 1
 502.834 997.398 489.503 929.321 489.503 856.945 c 0xf4
 489.503 788.604 468.149 735.353 468.149 704.987 c 0
 468.149 589.722 534.298 250 713.718 250 c 0xe8
110 614.897 m 1
 110 739.894 l 2xea
 110 747.801 109.624 764.694 109.624 786.712 c 0
 109.624 916.961 113.531 1377 458.54 1377 c 0
 1194.5 1377 1402.38 1094.99 1402.38 780.004 c 2xf4
 1402.38 565.459 l 2
 1402.38 408.043 1369.69 -39 732.936 -39 c 0
 168.435 -39 114.497 424.772 112.097 614.897 c 1
 110 614.897 l 1
1505.94 190.807 m 1xe1
 1512.04 199.082 1519.82 204.507 1519.82 217.83 c 2
 1519.82 239.247 l 2
 1519.82 305.655 1505.94 382.508 1505.94 466.453 c 0
 1505.94 644.546 1525.16 816.896 1525.16 984.187 c 0
 1525.16 1018.64 1510.22 1070.13 1510.22 1134.11 c 0
 1510.22 1188.51 1535.51 1352 1749.38 1352 c 2
 1862.55 1352 l 1
 1862.55 1344.57 l 1
 1947.46 1339.46 2194 1334.67 2194 1190.74 c 0
 2194 1073.31 2047 1056.75 2015.45 1049.35 c 1
 1981.97 1056.66 1947.32 1063.69 1911.11 1069.45 c 1
 1909.31 1018.49 1903.88 970.458 1900.91 926 c 1
 1903.13 926 l 2
 1906.72 926 1911.49 926.058 1917.2 926.058 c 0
 1976.66 926.058 2138 919.722 2138 775 c 0
 2138 682.168 2056.25 606 1951.17 606 c 0
 1938.44 606 1923.47 606.916 1911.44 608.29 c 1
 1911.61 599.268 1911.67 592.931 1911.67 584.713 c 0xe080
 1911.67 473.218 1898.85 365.712 1898.85 265.398 c 2
 1898.87 257.123 l 1
 1917.65 257.692 1962.36 261.696 2006 261.696 c 0
 2007.26 261.696 2008.8 261.703 2010.59 261.703 c 0
 2049.91 261.703 2210 258.704 2210 121.013 c 0
 2210 -26.7426 2027.25 -28.0004 1994.56 -28.0004 c 2
 1993 -28 l 1
 1713.08 -28 l 2
 1632.62 -28 1505.94 10.8164 1505.94 118.194 c 2
 1505.94 190.807 l 1xe1
EndSplineSet
EndChar

StartChar: germandbls
Encoding: 223 223 142
Width: 1410
Flags: W
HStem: -47 21G<313.061 390.952> 1269 316<496.785 742.555>
VStem: 143 349.634<946.555 1256.4> 149 397.303<218.813 701.317> 958.553 347.447<397.495 546.655>
LayerCount: 2
Fore
SplineSet
492.805 1201 m 0xe8
 492.805 1113.79 495.698 1025.87 500.161 937.722 c 1
 624.314 1036.55 773.758 1135.42 775.768 1181.96 c 1
 771.411 1200.83 730.071 1269 623.686 1269 c 0
 500.526 1269 492.634 1235.54 492.634 1211.07 c 0
 492.634 1207.48 492.805 1204.07 492.805 1201 c 0xe8
958.553 430 m 0
 958.553 630.953 710.146 632.493 518.001 708.907 c 1
 529.522 547.004 541.686 383.285 546.303 218.813 c 1xd8
 695.607 345.705 958.553 384.614 958.553 430 c 0
761.32 44.75 m 0
 757.225 44.75 752.717 44.7324 747.854 44.7324 c 0
 696.162 44.7324 604.331 46.7158 541.77 92.8457 c 1
 522.818 26.7871 452.905 -47 329 -47 c 0
 297.121 -47 231.081 -46.9893 183.234 8.85059 c 1
 158.567 35.7637 149 66.4365 149 96.3379 c 0xd8
 149 258.448 162 415.372 162 567.826 c 0
 162 771.701 143 981.208 143 1195.22 c 0xe8
 143 1324.3 208.733 1585 623.686 1585 c 0
 1148.01 1585 1230 1330.38 1230 1196.8 c 0
 1230 1077.56 1170.3 968.311 1071.78 875.784 c 1
 1260.12 774.487 1306 643.395 1306 488.861 c 0
 1306 315.628 1180.3 133.41 867.442 50.4844 c 1
 847.721 49.4995 837.466 45 788.762 45 c 0
 785.762 45 774.843 44.75 761.32 44.75 c 0
EndSplineSet
EndChar

StartChar: onesuperior
Encoding: 185 185 143
Width: 789
Flags: W
HStem: 1375 304.276<35.004 203.873>
VStem: 200 314<938.749 1376.7> 280.25 331.556<205 758.402>
LayerCount: 2
Fore
SplineSet
488.701 -108.946 m 0xa0
 462.883 -108.946 436.191 -110 418 -110 c 0
 381.145 -110 371.742 -111 338 -111 c 0
 336.284 -111 334.014 -111.019 331.263 -111.019 c 0
 288.306 -111.019 128 -106.402 128 47 c 2
 128 198.912 l 1
 235.829 192.921 l 2
 245.172 192.402 264.497 191.039 280.25 190.045 c 1xa0
 271.912 555.706 200 933.311 200 1308 c 0
 200 1336.04 203.219 1360.41 203.873 1376.7 c 1
 190.51 1376.11 172.998 1375 152 1375 c 0
 126.334 1375 -25 1378.31 -25 1521 c 0
 -25 1674.27 162.021 1679.28 228.545 1679.28 c 0
 260.998 1679.28 288.584 1677.12 292.26 1677 c 0
 298.559 1677.01 304.649 1677.16 313.165 1677.16 c 0
 355.358 1677.16 437.677 1673.89 491.275 1600.97 c 2
 521.1 1561.2 l 1
 508.339 1517.45 l 1
 509.776 1506.44 514 1483.88 514 1455 c 0xc0
 514 1352 555 1226.08 555 1079 c 0
 555 798.706 602.424 505.06 611.806 205 c 1
 630.362 204.984 649.96 204.977 673.495 201.446 c 0
 707.66 196.422 823 170.759 823 52 c 0
 823 -93.6384 650.915 -110.466 551.727 -110.466 c 0
 521.918 -110.466 498.692 -108.946 488.701 -108.946 c 0xa0
EndSplineSet
EndChar

StartChar: logicalnot
Encoding: 172 172 144
Width: 1687
Flags: W
HStem: 609 328.219<110.443 866.202> 631 319<796.521 1296.21>
LayerCount: 2
Fore
SplineSet
1656.28 547.143 m 1x40
 1642.19 481.808 1608.34 373 1479 373 c 0
 1313.49 373 1295 537.184 1295 592 c 0
 1295 605.124 1295.58 619.027 1296.21 629.651 c 1
 1277.84 630.545 1257.3 631 1230 631 c 0x40
 909.861 631 456.334 609 205 609 c 0
 133.881 609 37 657.571 37 763 c 0
 37 932.773 248.989 937.232 353.305 937.232 c 2
 369.608 937.219 l 2x80
 389.089 937.219 406.956 937 422 937 c 0
 569.142 937 732.69 930 786 930 c 0
 1010.17 930 1251.81 950 1456 950 c 0
 1518.18 950 1645 914.817 1645 790 c 0
 1645 753.587 1634.3 719.448 1620.42 692.547 c 1
 1623.25 635.814 1637.48 591.011 1656.28 547.143 c 1x40
EndSplineSet
EndChar

StartChar: mu
Encoding: 181 181 145
AltUni2: 0003bc.ffffffff.0
Width: 1140
Flags: W
HStem: -235 1828<485.417 880>
VStem: -125 528<242.811 1004.77> -116 519<242.811 1388.9> 571 568<831.038 1285.48> 604.996 561.004<922.802 1455.29>
LayerCount: 2
Fore
SplineSet
-110 1013 m 0xc0
 -110 1116.45 -122.043 1203.25 -143 1277.97 c 1
 -143 1559 l 1
 61 1559 l 2
 264.669 1559 403 1399.39 403 1232 c 2xa0
 403 258.971 l 1
 410.45 253.68 433.529 242.304 481.873 237.445 c 1
 518.876 317.202 571 510.589 571 559 c 0xd0
 571 823.844 604.568 1076.47 604.996 1302.89 c 0
 604.129 1311.74 603 1323.89 603 1341 c 0
 603 1362.41 603.932 1419.6 641.021 1477.88 c 0
 710.899 1587.18 829.594 1593 880 1593 c 0
 1138.99 1593 1166 1344.06 1166 1290 c 0x88
 1166 1193.38 1148 1108.07 1148 1084 c 0
 1148 1011.12 1137.44 947.46 1136.14 921.56 c 1
 1137.51 910.845 1139 896.735 1139 878 c 2
 1139 849.714 l 1
 1131.5 823.464 l 1
 1122.08 755.238 1200.72 -229.15 485.417 -235 c 0
 472.194 -235 458.767 -234.764 447.648 -234.409 c 1
 413.758 -369.11 288.462 -452 148 -452 c 0
 87.0613 -452 1.00867 -433.309 -61.1468 -357.342 c 0
 -97.4137 -312.439 -116 -257.808 -116 -202 c 2
 -116 99 l 2xb0
 -116 204.901 -125 346.502 -125 475 c 2
 -125 484 l 2
 -125 708.392 -110 836.681 -110 1013 c 0xc0
EndSplineSet
EndChar

StartChar: trademark
Encoding: 8482 8482 146
Width: 1734
Flags: W
HStem: 1382 315<29.5628 229.565 563.019 649.95>
VStem: 222 341<888.076 1373.48> 235 356<585.215 740.286 743.142 1360.81> 630 367.03<600.924 800.476> 645 1023<806.989 1345.31> 1314 372<599.12 789.803>
LayerCount: 2
Fore
SplineSet
580.301 740.948 m 1xc8
 587.118 726.875 591 709.82 591 690 c 0
 591 549.666 430.156 531.774 403.451 526 c 1
 169.085 526 l 1
 228.393 666.362 l 1
 230.915 676.187 235 719.655 235 752 c 2
 235 787 l 2xa0
 235 917.706 222 1054.85 222 1198 c 0
 222 1262.66 227.94 1321.52 229.565 1373.48 c 1
 220.123 1373.13 213.607 1373 205.031 1373 c 0
 200.963 1373 196.907 1372.99 192.851 1372.98 c 0
 148.828 1372.98 -4.00008 1377.31 -4 1520 c 2
 -4 1669.91 l 1
 91.7381 1675.9 l 2
 228.343 1684.87 396.786 1697 576 1697 c 0
 627.788 1697 673.18 1693 713 1693 c 2
 744.648 1693 l 1
 758.689 1683.49 l 1
 787.927 1702.2 825.01 1718 868 1718 c 0
 943.105 1718 999.754 1681.43 1031.15 1662.79 c 0
 1045.77 1654.02 1059.59 1646.12 1075.24 1636.73 c 2
 1118.68 1610.67 l 1
 1073.75 1534.64 l 1
 1083.8 1501.38 1130.72 1422.55 1177.12 1347.14 c 1
 1238.76 1489.14 1336.06 1740 1522 1740 c 0
 1588.25 1740 1696 1697.77 1696 1586 c 0
 1696 1427.75 1668 1283.12 1668 1152 c 0xc8
 1668 1032.57 1676.01 905.948 1686 784.087 c 1
 1686 780 l 2
 1686 743.337 1688.81 522 1485 522 c 0
 1419.6 522 1314 561.864 1314 672 c 0
 1314 715.032 1317.64 756.642 1321.03 792.319 c 1
 1278.51 762.582 1224.96 742 1161 742 c 0
 1094.99 742 1039.15 767.438 996.921 801.696 c 1
 996.973 798.489 997 795.257 997 792 c 0
 997 789.828 997.03 786.374 997.03 782.168 c 0
 997.03 739.83 995.924 518 795 518 c 0
 757.086 518 716.388 528.738 685.105 556.892 c 0
 636.234 599.838 630 657.56 630 689 c 0x94
 630 778.02 647 851.73 647 909 c 0
 647 999.253 645 1092.28 645 1188 c 0
 645 1252 646.273 1318.8 649.95 1382.91 c 1
 626.091 1381.95 605.688 1382 586 1382 c 2
 563.019 1382 l 1
 562.996 1375.94 563 1373.11 563 1368 c 0
 563 1214.73 585 1052.45 585 880 c 0
 585 835.696 584.145 787.746 580.301 740.948 c 1xc8
EndSplineSet
EndChar

StartChar: Eth
Encoding: 208 208 147
Width: 1802
Flags: W
HStem: 1023.88 296.611<115.755 266.162> 1044.45 211.612<690.581 1126.84> 1051 223<695.287 1254.88>
VStem: 212 402.665<1456.82 1866.98> 291.477 399.104<667.179 1025.64> 1306.66 370.341<726.866 1063.41>
LayerCount: 2
Fore
SplineSet
656.283 1256.06 m 1x54
 792.001 1262.68 960.139 1274 1135.04 1274 c 0x34
 1184.95 1274 1232.48 1267.1 1272.12 1255.2 c 1
 1212.47 1507.36 1057.79 1757.21 614.665 1866.98 c 1
 614.665 1727 l 2
 614.665 1563.88 620.554 1405.11 656.283 1256.06 c 1x54
765.194 352.875 m 1
 1258.37 542.235 1306.66 730.726 1306.66 983 c 0
 1306.66 1011.07 1306.26 1043.18 1305.25 1073.67 c 1
 1254.88 1051 l 1
 1225.25 1051 l 2x2c
 1035.82 1051 844.769 1050.13 690.581 1044.45 c 1x4c
 707.307 819.353 747.798 587.43 765.194 352.875 c 1
537.124 30.7314 m 1
 517.462 59.6553 l 1
 458.04 74.9033 397.968 101.564 356.205 153.762 c 2
 346.229 166.231 l 1
 346.229 194.725 l 2
 346.229 476.543 344.759 757.093 291.477 1025.64 c 1x8c
 271.404 1024.39 254.633 1023.88 235 1023.88 c 0
 143.681 1023.88 65 1087.08 65 1172.39 c 0
 65 1301.98 211.588 1317.83 266.162 1320.49 c 1
 254.997 1556.46 212 1798.42 212 2052 c 0x94
 212 2141.31 290.115 2220 397.936 2220 c 0
 601.594 2220 1525 2008.22 1525 1729 c 0
 1525 1450.37 1677 1154 1677 819.175 c 0
 1677 488.718 1358.33 177.16 624.871 47.0459 c 1
 537.124 30.7314 l 1
EndSplineSet
EndChar

StartChar: onehalf
Encoding: 189 189 148
Width: 2904
Flags: W
HStem: -112.686 317.686<609.806 875.307 2530.27 2721.95> -98 307<2530.27 2721.95> 1375 304.276<33.004 201.873>
VStem: 198 314<938.312 1376.7> 278.247 331.559<205 758.098> 2568 333<895.292 1331.2>
LayerCount: 2
Fore
SplineSet
2726 -98 m 2x64
 2606.37 -98 2403.14 -117 2223 -117 c 0
 2220.96 -117 2218.61 -117.007 2215.98 -117.007 c 0
 2157.79 -117.007 1962 -113.535 1962 47 c 2
 1962 112.876 l 1
 2011.76 142.732 l 2
 2177.93 242.426 2301.92 384.101 2390.33 544.612 c 0
 2516.33 772.612 2568 1035.13 2568 1236 c 0
 2568 1265.02 2564.72 1304.42 2558.29 1336.25 c 1
 2524.54 1282.32 2462.2 1225 2359 1225 c 0
 2272.82 1225 2152 1262.09 2152 1390 c 0
 2152 1509.42 2250.87 1636.44 2411 1676.23 c 1
 2411 1689 l 1
 2513 1689 l 2
 2894.23 1689 2901 1343.63 2901 1201 c 0
 2901 810.532 2693.6 472.794 2527.48 203.066 c 1
 2587.13 206.882 2638.17 209 2692 209 c 2
 2721.95 209 l 1
 2930.88 74.9968 l 1
 2770.24 -98 l 1
 2726 -98 l 2x64
1078.05 -133 m 1
 1058.6 -127.598 957.213 -117.369 911.64 -43.2003 c 1
 837.368 -110.383 680.179 -112.686 583.824 -112.686 c 0
 576.732 -112.686 569.97 -112.673 563.595 -112.673 c 0
 499.649 -112.673 443.425 -110 417 -110 c 0
 380.167 -110 371.772 -111 338 -111 c 0
 336.275 -111 334.038 -111.017 331.354 -111.017 c 0
 287.992 -111.017 128 -106.542 128 47 c 2
 128 198.912 l 1
 235.829 192.921 l 2
 244.755 192.426 263.553 191.106 278.247 190.165 c 1xac
 269.918 555.437 198 932.45 198 1308 c 0
 198 1336.04 201.219 1360.41 201.873 1376.7 c 1
 188.51 1376.11 170.998 1375 150 1375 c 0
 124.334 1375 -27 1378.31 -27 1521 c 0
 -27 1674.27 160.021 1679.28 226.545 1679.28 c 0
 258.998 1679.28 286.584 1677.12 290.26 1677 c 0
 296.559 1677.01 302.649 1677.16 311.165 1677.16 c 0
 353.358 1677.16 435.677 1673.89 489.275 1600.97 c 2
 519.1 1561.2 l 1
 506.339 1517.45 l 1
 507.776 1506.44 512 1483.88 512 1455 c 0xb4
 512 1352 553 1226.08 553 1079 c 0
 553 798.454 600.813 504.327 609.806 205 c 1
 669 205 l 2xac
 711.941 205 765.911 204.375 818.148 192.767 c 0
 835.955 188.746 885.488 177.099 919.297 141.208 c 1
 1033.53 514.808 1482.39 1655 1809 1655 c 0
 1850.14 1655 2026 1652.77 2026 1503 c 0
 2026 1318.82 1521.09 -133 1092 -133 c 2
 1078.05 -133 l 1
EndSplineSet
EndChar

StartChar: plusminus
Encoding: 177 177 149
Width: 978
Flags: W
HStem: 33 315<82.1657 306.015 672.162 911.124> 489 322<79.1744 287.302 664.54 914.67>
VStem: 286 366<807.619 1000.45> 301 377<348.616 488.759>
LayerCount: 2
Fore
SplineSet
678 389 m 0xd0
 678 374.648 675.626 360.144 672.162 348 c 1
 740 348 l 2
 743.669 348 755.234 348.508 769.087 348.508 c 0
 817.247 348.508 971 340.175 971 192 c 0
 971 57.9541 831.773 43 793 43 c 0
 609.831 43 421.802 33 232 33 c 0
 176.594 33 23 50.0081 23 200 c 0
 23 303.438 117.077 348 185 348 c 2
 306.015 348 l 1
 302.422 361.185 301 371.9 301 385 c 0xd0
 301 421.633 303.155 459.127 304.998 490.221 c 1
 281.934 488.906 259.421 488 238 488 c 2
 233.124 487.998 l 2
 187.562 487.998 97.3776 489.41 47.0757 568.458 c 0
 29.707 595.302 23 626.219 23 655 c 0
 23 750.35 103.34 810 185 810 c 0
 222.709 810 257.875 807.188 288.752 805.188 c 1
 287.097 821.258 286 837.105 286 855 c 0
 286 896.992 299.904 1070 473 1070 c 0
 545.561 1070 653 1023.24 653 909 c 2
 653 878 l 2
 653 860.102 652 836.825 652 812 c 0xe0
 652 810.666 652.013 808.014 652.015 807.619 c 1
 676.577 809.418 702.32 811 731 811 c 2
 738.601 811.011 l 2
 793.833 811.011 971 807.046 971 647 c 0
 971 532.874 862.496 489 793 489 c 0
 741.291 489 697.11 496.12 662.931 498.81 c 1
 669.88 469.035 678 432.717 678 389 c 0xd0
EndSplineSet
EndChar

StartChar: Thorn
Encoding: 222 222 150
Width: 1271
Flags: W
HStem: -11 21G<273.342 392.274>
VStem: 139 387.977<769.457 1108.45 1364.4 1473.72> 168 438.509<66.4459 423.816> 799.302 364.698<866.285 1044.05>
LayerCount: 2
Fore
SplineSet
334 -11 m 0xb0
 212.684 -11 168 86.3525 168 141.99 c 0xb0
 168 500.859 139 865.324 139 1232.5 c 1xd0
 138 1399.57 l 2
 138 1426.04 144.446 1466.49 177.51 1499.75 c 0
 214.078 1537.73 262.784 1548 304 1548 c 0
 470.828 1548 521.959 1429.32 528.774 1366.76 c 1
 1025.93 1318.64 1164 1122.84 1164 941.67 c 0
 1164 737.352 1024.41 556.712 553.894 463.545 c 1
 569.982 370.476 606.509 269.776 606.509 157.008 c 0
 606.509 48.6133 450.547 -11 334 -11 c 0xb0
526.977 756.403 m 1xd0
 750.979 831.131 799.302 893.15 799.302 948 c 2
 799.302 981.362 l 1
 794.649 1037.82 809.377 1046.3 532.916 1108.45 c 1
 531.411 990.056 528.534 872.055 526.977 756.403 c 1xd0
EndSplineSet
EndChar

StartChar: onequarter
Encoding: 188 188 151
Width: 2729
Flags: W
HStem: -109.686 317.686<609.806 875.307> 1378 304.276<33.004 201.873>
VStem: 198 314<941.312 1379.7> 278.247 331.559<208 761.098> 2004 589.02<703.899 1225.3> 2044 532<714.298 1227.72> 2044 357<1335.26 1592.74> 2044 338<1308.21 1489.56> 2422 347<-71.3069 126.32>
LayerCount: 2
Fore
SplineSet
2422 85.5676 m 1xc080
 2429.11 103.855 2431 103.369 2431 141 c 0
 2431 182.769 2415.54 243.682 2412.44 318.357 c 1
 2401.38 322.432 2388.92 326.318 2372.89 330.457 c 2
 2296 348.668 l 1
 2296 378 l 1
 2211 378 l 2
 2146.61 378 2091.42 402.101 2052.6 426.356 c 1
 2004 454.707 l 1
 2004 513 l 2
 2004 537.57 2005.89 566.132 2011.9 594.968 c 1
 2004.65 636.09 2004 672.162 2004 707 c 0xc8
 2004 862.782 2044 1012.44 2044 1125 c 2xc4
 2044 1504 l 2
 2044 1505.19 2043.97 1506.9 2043.97 1509.05 c 0
 2043.97 1522.55 2045.33 1553.51 2065.16 1584.68 c 0
 2101.37 1639.86 2160.87 1646 2197 1646 c 0
 2238.67 1646 2401 1630.57 2401 1493 c 0xc2
 2401 1419.48 2382 1360.37 2382 1334 c 0xc1
 2382 1321.63 2383.96 1315.57 2387.43 1307.85 c 1
 2400 1309.52 2408.3 1310 2419 1310 c 2
 2449.09 1310 l 1
 2576 1227.72 l 1
 2576 1073 l 2xc4
 2576 946.248 2577.81 821.828 2593.02 703.899 c 1xc8
 2629.26 702.981 2765 692.152 2765 558 c 0
 2765 467.362 2696.86 426.566 2647.37 413.967 c 1
 2690.85 314.452 2742.89 215.128 2765.18 173.866 c 1
 2762.68 158.869 2759.74 142.367 2757.33 126.569 c 1
 2761.34 121.26 2765.13 115.768 2769 110.344 c 1
 2769 40 l 2
 2769 -3.84176 2743.27 -139 2604 -139 c 0
 2454.12 -139 2422 6.99322 2422 60 c 2
 2422 85.5676 l 1xc080
1078.05 -130 m 1
 1058.6 -124.598 957.213 -114.369 911.64 -40.2004 c 1
 837.368 -107.383 680.178 -109.686 583.823 -109.686 c 0
 576.732 -109.686 569.97 -109.673 563.595 -109.673 c 0
 499.649 -109.673 443.425 -107 417 -107 c 0
 380.167 -107 371.772 -108 338 -108 c 0
 336.275 -108 334.038 -108.017 331.354 -108.017 c 0
 287.992 -108.017 128 -103.542 128 50 c 2
 128 201.912 l 1
 235.829 195.921 l 2
 244.755 195.426 263.553 194.106 278.247 193.165 c 1xd0
 269.918 558.437 198 935.45 198 1311 c 0
 198 1339.04 201.219 1363.41 201.873 1379.7 c 1
 188.51 1379.11 170.998 1378 150 1378 c 0
 124.334 1378 -27 1381.31 -27 1524 c 0
 -27 1677.27 160.021 1682.28 226.545 1682.28 c 0
 258.998 1682.28 286.584 1680.12 290.26 1680 c 0
 296.559 1680.01 302.649 1680.16 311.165 1680.16 c 0
 353.358 1680.16 435.677 1676.89 489.275 1603.97 c 2
 519.1 1564.2 l 1
 506.339 1520.45 l 1
 507.776 1509.44 512 1486.88 512 1458 c 0xe0
 512 1355 553 1229.08 553 1082 c 0
 553 801.454 600.813 507.327 609.806 208 c 1xd0
 669 208 l 2
 711.941 208 765.911 207.375 818.148 195.767 c 0
 835.955 191.746 885.488 180.099 919.297 144.208 c 1
 1033.53 517.808 1482.39 1658 1809 1658 c 0
 1850.14 1658 2026 1655.77 2026 1506 c 0
 2026 1321.82 1521.09 -130 1092 -130 c 2
 1078.05 -130 l 1
EndSplineSet
EndChar

StartChar: divide
Encoding: 247 247 152
Width: 1345
Flags: W
HStem: 488 315<145.166 388.908 922.977 1178.12>
LayerCount: 2
Fore
SplineSet
656.087 1032 m 0
 788.036 1032 934.007 970.013 934.007 853 c 0
 934.007 835.28 929.706 817.863 922.977 803 c 1
 1007 803 l 2
 1010.67 803 1022.23 803.508 1036.09 803.508 c 0
 1084.25 803.508 1238 795.176 1238 647 c 0
 1238 512.954 1098.77 498 1060 498 c 0
 1019.24 498 968.782 497.393 913.602 496.575 c 1
 927.383 473.854 934.007 452.64 934.007 428 c 0
 934.007 289.044 740.982 267 663.183 267 c 0
 561.339 267 379.349 304.399 379.349 439 c 0
 379.349 456.166 383.877 474.792 389.919 488.491 c 1
 353.748 488.19 321.911 488 295 488 c 0
 239.594 488 86 505.008 86 655 c 0
 86 758.438 180.076 803 248 803 c 2
 388.908 803 l 1
 378.667 821.682 373.436 840.91 373.436 862 c 0
 373.436 997.368 564.017 1032 656.087 1032 c 0
EndSplineSet
EndChar

StartChar: brokenbar
Encoding: 166 166 153
Width: 442
Flags: W
VStem: 63 335<-131.044 738.523 779.296 1502.21>
LayerCount: 2
Fore
SplineSet
240 1686 m 0
 391.29 1686 398.505 1508.09 398.505 1444.56 c 0
 398.505 1425.17 398 1407.42 398 1393 c 2
 398 877 l 2
 398 820.921 370.217 782.177 334.127 757.708 c 1
 376.189 723.361 398 671.252 398 621 c 2
 398 -16 l 2
 398 -46.5201 392.11 -92.9046 355.168 -132.925 c 0
 320.669 -168.992 275.299 -182 233 -182 c 0
 163.421 -182 63 -135.913 63 -29 c 2
 63 644 l 2
 63 691.166 85.156 735.017 120.888 763.574 c 1
 56.4468 826.489 55.2115 946.277 55.2115 986.013 c 0
 55.2115 1003.86 55.9566 1018.53 56.0001 1020.23 c 0
 55.9597 1180.56 46 1343.79 46 1510 c 0
 46 1622.13 140.806 1686 240 1686 c 0
EndSplineSet
EndChar

StartChar: degree
Encoding: 176 176 154
Width: 1255
Flags: W
HStem: 336 281<388.008 863.295> 799 273<390.35 880.917>
VStem: 36 1197<629 871.653>
LayerCount: 2
Fore
SplineSet
585 799 m 2
 584 799 l 2
 372.269 799 346.992 728.367 340.588 687.13 c 1
 376.021 661.024 472.638 617 584 617 c 0
 868.966 617 926.646 701.419 937.034 723.18 c 1
 919.622 742.384 841.92 799 585 799 c 2
49.3571 629 m 1
 36 629 l 1
 36 731 l 2
 36 957.219 258.654 1072 566 1072 c 0
 1065.43 1072 1233 909.484 1233 733 c 0
 1233 581.621 1101.19 336 568 336 c 0
 238.267 336 89.9747 477.377 49.3571 629 c 1
EndSplineSet
EndChar

StartChar: thorn
Encoding: 254 254 155
Width: 1265
Flags: W
HStem: -11 21G<272.836 391.268>
VStem: 139 403.29<716.38 988.218 1243.7 1452.54> 168 430.002<66.4234 404.486> 796.792 364.208<790.898 928.981>
LayerCount: 2
Fore
SplineSet
333 -11 m 0xb0
 212.673 -11 168 84.8887 168 140.901 c 0xb0
 168 461.624 139 785.959 139 1115.68 c 2
 139 1385 l 2
 139 1413.48 144.101 1457.49 177.756 1495.74 c 0
 213.82 1536.51 263.502 1548 305 1548 c 0
 515.476 1548 542.29 1364.32 542.29 1294.58 c 0xd0
 542.29 1278.54 540.87 1262.13 539.256 1248.74 c 1
 1024.77 1199.44 1161 1006.61 1161 828.101 c 0
 1161 625.27 985.426 493.198 548.846 427.591 c 1
 564.73 346.252 598.002 256.351 598.002 155.131 c 0
 598.002 49.8438 449.536 -11 333 -11 c 0xb0
531.706 988.218 m 1
 530.638 894.32 529.199 802.513 528.134 710.418 c 1
 758.001 766.146 796.09 816.696 796.09 828 c 0
 796.09 843.654 796.792 856.708 796.792 867.862 c 0
 796.792 926.718 777.234 932.643 531.706 988.218 c 1
EndSplineSet
EndChar

StartChar: threequarters
Encoding: 190 190 156
Width: 2592
Flags: W
HStem: -119 313<219.704 418.605> 1261 417<147.461 294.432>
VStem: 363 337<1101.5 1338.02> 465 338<176.438 645.253> 1862 589.986<703.9 1224.86> 1903 531<714.352 1255.75> 1903 357<1335.22 1592.78> 1903 337<1308.14 1489.5> 2285 347<-74.0414 114.866>
LayerCount: 2
Fore
SplineSet
-33.6588 1433.32 m 1xe0
 30.3449 1556.67 137.5 1678 331 1678 c 0
 667.124 1678 700 1280.02 700 1127 c 0xe0
 700 1045.9 661.459 985.344 627.151 944.055 c 1
 781.819 778.261 803 495.779 803 364 c 0
 803 226.044 784.104 -119 425 -119 c 0
 374.38 -119 127 -115.192 127 79 c 2
 127 194 l 1
 278.825 194 l 1
 314.591 190.026 362.159 194.482 421.372 171.687 c 1
 451.516 179.247 465 211.163 465 297 c 0xd0
 465 474.084 457.515 634.468 359.689 750.669 c 1
 321.92 755.258 296.26 765.138 277.286 771.479 c 2
 207 793.569 l 1
 207 892 l 2
 207 1064.21 363 1108.29 363 1153 c 0
 363 1199.26 348.496 1290.23 328.941 1344.57 c 1
 300.709 1299.64 246.68 1261 151 1261 c 0
 34.9971 1261 -15.1466 1345.39 -33.6588 1433.32 c 1xe0
935.857 -130 m 1
 915.3 -124.127 751 -105.929 751 33 c 0
 751 138.488 1289.97 1658 1668 1658 c 0
 1707.21 1658 1887 1657.42 1887 1506 c 0
 1887 1322.57 1378.01 -130 950 -130 c 2
 935.857 -130 l 1
2285 85.5676 m 1xc080
 2292.11 103.855 2294 103.369 2294 141 c 0
 2294 180.754 2276.95 241.679 2273.48 318.106 c 1
 2262.45 322.297 2250.2 326.213 2233.19 330.385 c 2
 2155 348.429 l 1
 2155 378 l 1
 2070 378 l 2
 2004.59 378 1950.48 402.117 1910.86 426.208 c 2
 1862 454.707 l 1
 1862 513 l 2
 1862 539.144 1864.73 568.029 1870.78 595.229 c 1
 1863.51 635.297 1862 670.645 1862 707 c 0xc8
 1862 863.973 1903 1012.75 1903 1125 c 2xc4
 1903 1504 l 2
 1903 1505 1902.93 1506.9 1902.93 1509.54 c 0
 1902.93 1523.13 1904.66 1556.26 1925.95 1586.86 c 0
 1961.34 1639.11 2019.58 1646 2055 1646 c 0
 2097.49 1646 2260 1630.65 2260 1493 c 0xc2
 2260 1418.07 2240 1359.45 2240 1334 c 0xc1
 2240 1321.58 2241.92 1315.67 2245.47 1307.77 c 1
 2258.43 1309.49 2267.04 1310 2278 1310 c 2
 2310 1310 l 1
 2319.96 1302.53 2323.48 1300.36 2335.3 1291.76 c 2
 2387.69 1256.84 l 2
 2406.38 1245.05 2416.62 1238.13 2434 1227.27 c 1
 2434 1073 l 2xc4
 2434 946.413 2436.58 822.162 2451.99 703.9 c 1xc8
 2488.29 702.98 2624 692.153 2624 558 c 0
 2624 467.359 2555.9 426.576 2506.33 413.956 c 1
 2552.46 311.805 2605.53 214.382 2630.26 172.338 c 1
 2627.12 158.73 2622.67 141.365 2620.26 128.558 c 1
 2632 114.866 l 1
 2632 40 l 2
 2632 -6.1512 2603.59 -139 2466 -139 c 0
 2314.53 -139 2285 9.12691 2285 60 c 2
 2285 85.5676 l 1xc080
EndSplineSet
EndChar

StartChar: twosuperior
Encoding: 178 178 157
Width: 761
Flags: W
HStem: -98 307<417.315 625.095>
VStem: -24 738<-49.5718 156.182> 423 332<1005.08 1312.25>
LayerCount: 2
Fore
SplineSet
-24 72.0395 m 1xc0
 -13.9892 92.0612 423 899.661 423 1236 c 0
 423 1259.22 420.667 1290.47 416.363 1317.34 c 1
 388.882 1271.84 338.295 1225 260 1225 c 0
 217.684 1225 173.08 1237.79 138.571 1272.3 c 0
 102.145 1310.25 93 1355.21 93 1390 c 0
 93 1477.62 136.726 1612.78 265 1667.52 c 1
 265 1689 l 1
 367 1689 l 2
 748.225 1689 755 1343.63 755 1201 c 0xa0
 755 810.365 554.06 478.211 415.442 204.903 c 1
 460.169 207.616 502.468 209 547 209 c 2
 556.682 209 l 1
 615.507 198.107 714 165.626 714 61 c 0
 714 -2.16148 676.58 -43.493 655.052 -66.0459 c 2
 625.095 -98 l 1
 581 -98 l 2
 455.954 -98 320.6 -117 176 -117 c 0
 122.859 -117 -24 -93.3361 -24 47 c 2
 -24 72.0395 l 1xc0
EndSplineSet
EndChar

StartChar: registered
Encoding: 174 174 158
Width: 2088
Flags: W
HStem: -292 312.936<931 1245.68> 1422 618<873.198 1540.25> 1730 310<1071.5 1261.34>
VStem: 29 359<622.157 1309.65> 540 359.549<310.772 760.516> 540 333<1123.81 1420.8> 1091.13 457.873<1199.87 1406.08> 1730 352<403.16 1156.22>
LayerCount: 2
Fore
SplineSet
1024 -292 m 0xd3
 201.39 -292 146.987 375.826 29 749.132 c 1
 29 765 l 2
 29 808.261 28 864.5 28 930 c 0
 28 1309.99 90.5542 2040 1053 2040 c 0
 2009.29 2040 2082 1222.03 2082 807 c 0
 2082 469.747 2063.37 -292 1024 -292 c 0xd3
388 954 m 2
 388 953 l 2
 388 741.457 448.156 498.019 551.775 305.828 c 1
 545.708 340.743 540 380.882 540 425 c 2x9b
 540 1453 l 2x97
 540 1482.42 542.838 1508.94 548.274 1532.82 c 1
 399.746 1364.03 388 1122.31 388 954 c 2
899.549 760.516 m 1
 904.885 590.162 948 407.686 948 209 c 2
 948 107 l 1
 694.068 107 l 1
 719.637 80.8124 746.522 57.6256 774.609 38 c 1
 931 38 l 1
 931 20.9359 l 1
 1258.32 37.0314 1451.9 116.427 1566.23 223.114 c 1
 1338.13 103.858 l 1
 1284.64 149.419 l 1
 1105.47 306.663 983.952 601.574 899.549 760.516 c 1
965 1422 m 0xd7
 910.347 1422 877.271 1418.16 862.823 1414.55 c 1
 862.93 1411.55 863 1409.24 863 1406 c 0
 863 1378.5 873 1323.53 873 1262 c 0
 873 1212.27 873.771 1163.51 878.736 1121.85 c 1
 1058.2 1172.11 1091 1234.33 1091 1271 c 2
 1091 1280.05 l 1
 1091.01 1292.66 l 2
 1091.01 1301.17 1091.13 1309.42 1091.13 1317.37 c 0
 1091.13 1378.94 1084.31 1422 965 1422 c 0xd7
1636.15 304.95 m 1
 1721.55 432.094 1730 580.87 1730 706 c 0
 1730 1017.08 1695.94 1317.52 1484.98 1593.69 c 1
 1476.31 1605.83 l 1
 1383.25 1656.26 1176.69 1730 1087 1730 c 0xb3
 1081.8 1730 1076.63 1729.97 1071.5 1729.91 c 1
 1454.22 1689.72 1549 1458.39 1549 1269 c 0
 1549 1043.81 1376.99 954.283 1280.5 915.981 c 1
 1364.29 756.333 1558 457.194 1608.38 359.274 c 2
 1636.15 304.95 l 1
EndSplineSet
EndChar

StartChar: minus
Encoding: 8722 8722 159
Width: 1027
Flags: W
HStem: 488 315<109.166 938.124>
VStem: 50 948<543.791 755.553>
LayerCount: 2
Fore
SplineSet
50 655 m 0
 50 758.438 144.077 803 212 803 c 2
 767 803 l 2
 770.669 803 782.234 803.508 796.087 803.508 c 0
 844.247 803.508 998 795.175 998 647 c 0
 998 512.954 858.773 498 820 498 c 0
 636.831 498 448.802 488 259 488 c 0
 203.594 488 50 505.008 50 655 c 0
EndSplineSet
EndChar

StartChar: eth
Encoding: 240 240 160
Width: 1288
Flags: W
HStem: -15 291<486.266 664.969> 1038 544<239.361 584.808>
VStem: 117.003 348.385<288.752 680.377> 749.358 377.642<369.148 863.158>
LayerCount: 2
Fore
SplineSet
245 1038 m 0
 122.841 1038 121 1165.42 121 1170 c 0
 121 1250.54 185.992 1290.02 233.924 1305.74 c 1
 197.055 1333.13 157 1374.6 157 1437 c 0
 157 1566.25 293.347 1582 328 1582 c 0
 661.984 1582 894.363 1464.34 985.585 1353.27 c 1
 1015.86 1354.47 1041.84 1355 1072 1355 c 0
 1189.31 1355 1196 1247.93 1196 1238.66 c 0
 1196 1158.19 1119.98 1126.86 1081.69 1116.17 c 1
 1119.9 955.08 1127 798.852 1127 644.871 c 0
 1127 535.445 1115 431.952 1115 334.945 c 0
 1115 209.789 1070.3 -15 577.768 -15 c 0
 158.504 -15 117.389 218.631 117.003 338.286 c 1
 115.617 351.871 113 382.977 113 427.169 c 0
 113 565.991 139.979 924.665 610.183 972.112 c 1
 593.6 997.124 575.887 1021.8 558.476 1044.04 c 1
 397.185 1039.69 309.043 1038 245 1038 c 0
469.013 492 m 0
 469.013 467.468 465.388 448.993 465.388 427 c 0
 465.388 318.183 491.25 276 559.642 276 c 2
 562.059 276 l 2
 687.58 276 749.358 398.941 749.358 609 c 0
 749.358 677.878 743.316 739.273 743.316 783 c 0
 743.316 844.25 738.284 864.15 665.567 882.69 c 1
 504.684 852.335 469.013 596.35 469.013 492 c 0
EndSplineSet
EndChar

StartChar: multiply
Encoding: 215 215 161
Width: 1257
Flags: W
HStem: 297 671<791.077 1003.36> 328 654<223.21 424.821>
LayerCount: 2
Fore
SplineSet
864.745 297 m 1x80
 812.829 328.877 707.877 388.461 611.36 438.383 c 1
 548.256 398.783 443.087 328 314 328 c 0
 245.128 328 131 373.895 131 490 c 0
 131 562.743 184.052 607.767 221.428 633.679 c 1
 165.806 670.029 91 727.25 91 823 c 0
 91 940.94 206.791 982 271 982 c 0x40
 373.496 982 524.571 885.562 621.525 840.227 c 1
 685.538 877.982 799.374 968 946 968 c 0
 1018.25 968 1118 917.745 1118 811 c 0
 1118 726.333 1052.59 676.104 1006.6 647.838 c 1
 1061.89 619.28 1145 568.763 1145 473 c 0
 1145 355.869 1033.19 297 948 297 c 2
 864.745 297 l 1x80
EndSplineSet
EndChar

StartChar: threesuperior
Encoding: 179 179 162
Width: 787
Flags: W
HStem: -122 313<219.704 418.605> 1258 417<147.461 294.432>
VStem: 363 337<1098.5 1335.02> 465 338<173.438 642.253>
LayerCount: 2
Fore
SplineSet
-33.6588 1430.32 m 1xe0
 30.3449 1553.67 137.5 1675 331 1675 c 0
 667.124 1675 700 1277.02 700 1124 c 0xe0
 700 1042.9 661.459 982.344 627.151 941.055 c 1
 781.819 775.261 803 492.779 803 361 c 0
 803 223.044 784.104 -122 425 -122 c 0
 374.38 -122 127 -118.192 127 76 c 2
 127 191 l 1
 278.825 191 l 1
 314.591 187.026 362.159 191.482 421.372 168.687 c 1
 451.516 176.247 465 208.163 465 294 c 0xd0
 465 471.084 457.515 631.468 359.689 747.669 c 1
 321.92 752.258 296.26 762.138 277.286 768.479 c 2
 207 790.569 l 1
 207 889 l 2
 207 1061.21 363 1105.29 363 1150 c 0
 363 1196.26 348.496 1287.23 328.941 1341.57 c 1
 300.709 1296.64 246.68 1258 151 1258 c 0
 34.9971 1258 -15.1466 1342.39 -33.6588 1430.32 c 1xe0
EndSplineSet
EndChar

StartChar: copyright
Encoding: 169 169 163
Width: 2377
Flags: W
HStem: -122 556<941.891 1314.06> 1285 316<945.868 1189.67> 1611 303<734.691 1166.78>
VStem: 19 355<448.958 1200.36> 377 357<641.927 1028.88> 2022 353<543.501 1052.2>
LayerCount: 2
Fore
SplineSet
2375 750.731 m 1
 2324.51 358.357 2166.2 -122 1075 -122 c 2
 1074 -122 l 2
 92.6192 -122 19 361.472 19 795 c 2
 19 924 l 2
 19 1212.4 97.2961 1914 918 1914 c 0
 2190.56 1914 2375 1139.81 2375 757 c 2
 2375 750.731 l 1
1610 542 m 0
 1707.81 542 1825 501.331 1825 372 c 0
 1825 361.357 1824.01 351.169 1822.1 341.416 c 1
 1903.25 387.713 1967.36 442.244 2022 502.379 c 1
 2022 922.832 l 1
 2009.12 1020.48 1936.48 1164.61 1802.8 1295.77 c 1
 1803.59 1288.99 1804 1282.06 1804 1275 c 0
 1804 1125.7 1626.69 1121 1571 1121 c 0
 1246.43 1121 1241.77 1285 1091 1285 c 0
 896.038 1285 734 1061.25 734 815 c 0
 734 620.87 878.617 434 1148 434 c 2
 1149 434 l 2
 1341.47 434 1378.74 542 1610 542 c 0
1192.56 1595.04 m 1
 1126.98 1605.37 1057.47 1611 984.002 1611 c 0
 452.317 1611 376 1149.9 376 940 c 0
 376 881.822 374 820.917 374 760 c 0
 374 523.759 387.546 296.885 707.556 215.057 c 1
 423.721 356.4 377 629.713 377 813 c 2
 377 825 l 2
 377 1020.86 389.073 1601 1066 1601 c 0
 1102.92 1601 1146.03 1599.13 1192.56 1595.04 c 1
EndSplineSet
EndChar

StartChar: foursuperior
Encoding: 8308 8308 222
Width: 742
Flags: W
VStem: 23 589.989<703.88 1225.3> 63 532<714.298 1227.72> 63 358<1335.22 1592.78> 63 338<1308.21 1489.5> 313 324.79<200.134 378> 323 347<-71.3069 126.413>
LayerCount: 2
Fore
SplineSet
323 85.5676 m 1x04
 330.111 103.853 332 103.371 332 141 c 0
 332 186.816 313 254.743 313 340 c 0x08
 313 353.414 313.519 367.399 314.008 378 c 1
 230 378 l 2
 165.608 378 110.423 402.099 71.5999 426.357 c 1
 23 454.707 l 1
 23 513 l 2
 23 539.145 25.7266 568.028 31.7838 595.229 c 1
 24.5064 635.297 23 670.645 23 707 c 0x80
 23 862.782 63 1012.44 63 1125 c 2x40
 63 1504 l 2
 63 1505.2 62.9652 1506.91 62.9652 1509.07 c 0
 62.9652 1522.57 64.3308 1553.51 84.1654 1584.68 c 0
 120.37 1639.85 179.869 1646 216 1646 c 0
 258.485 1646 421 1630.65 421 1493 c 0x20
 421 1418.07 401 1359.45 401 1334 c 0x10
 401 1321.63 402.962 1315.57 406.426 1307.85 c 1
 418.998 1309.52 427.301 1310 438 1310 c 2
 468.086 1310 l 1
 595 1227.72 l 1
 595 1073 l 2x40
 595 946.401 597.574 822.186 612.989 703.88 c 1x80
 650.081 702.893 785 691.589 785 558 c 0
 785 445.798 686.985 414.598 637.79 408.4 c 1x08
 641.153 332.684 648.716 228.025 653.993 198.705 c 1
 669.399 171.317 l 1
 659.346 131.106 l 2
 658.7 128.736 658.447 127.545 658.256 126.663 c 0
 662.293 121.322 666.102 115.801 670 110.344 c 1
 670 40 l 2
 670 -3.84176 644.268 -139 505 -139 c 0
 355.119 -139 323 6.99322 323 60 c 2
 323 85.5676 l 1x04
EndSplineSet
EndChar

StartChar: uni00AD
Encoding: 173 173 223
Width: 855
Flags: W
HStem: 552.498 348.891<166.028 701.236>
LayerCount: 2
Fore
SplineSet
823 739 m 0
 823 560.304 513.578 552.498 363.601 552.498 c 0
 349.244 552.498 336.348 552.569 325.324 552.569 c 0
 276.163 552.569 238.468 554 233 554 c 0
 173.602 554 44 586.916 44 715 c 0
 44 893.149 354.146 901.389 504.163 901.389 c 0
 519.455 901.389 533.084 901.303 544.55 901.303 c 0
 591.438 901.303 627.134 900 632 900 c 0
 687.259 900 823 871.459 823 739 c 0
EndSplineSet
EndChar

StartChar: uni0110
Encoding: 272 272 240
Width: 1802
Flags: W
HStem: 1023.88 296.611<115.755 266.162> 1044.45 211.612<690.581 1126.84> 1051 223<695.287 1254.88>
VStem: 212 402.665<1456.82 1866.98> 291.477 399.104<667.179 1025.64> 1306.66 370.341<726.866 1063.41>
LayerCount: 2
Fore
SplineSet
656.283 1256.06 m 1x54
 792.001 1262.68 960.139 1274 1135.04 1274 c 0x34
 1184.95 1274 1232.48 1267.1 1272.12 1255.2 c 1
 1212.47 1507.36 1057.79 1757.21 614.665 1866.98 c 1
 614.665 1727 l 2
 614.665 1563.88 620.554 1405.11 656.283 1256.06 c 1x54
765.194 352.875 m 1
 1258.37 542.235 1306.66 730.726 1306.66 983 c 0
 1306.66 1011.07 1306.26 1043.18 1305.25 1073.67 c 1
 1254.88 1051 l 1
 1225.25 1051 l 2x2c
 1035.82 1051 844.769 1050.13 690.581 1044.45 c 1x4c
 707.307 819.353 747.798 587.43 765.194 352.875 c 1
537.124 30.7314 m 1
 517.462 59.6553 l 1
 458.04 74.9033 397.968 101.564 356.205 153.762 c 2
 346.229 166.231 l 1
 346.229 194.725 l 2
 346.229 476.543 344.759 757.093 291.477 1025.64 c 1x8c
 271.404 1024.39 254.633 1023.88 235 1023.88 c 0
 143.681 1023.88 65 1087.08 65 1172.39 c 0
 65 1301.98 211.588 1317.83 266.162 1320.49 c 1
 254.997 1556.46 212 1798.42 212 2052 c 0x94
 212 2141.31 290.115 2220 397.936 2220 c 0
 601.594 2220 1525 2008.22 1525 1729 c 0
 1525 1450.37 1677 1154 1677 819.175 c 0
 1677 488.718 1358.33 177.16 624.871 47.0459 c 1
 537.124 30.7314 l 1
EndSplineSet
EndChar

StartChar: uni0111
Encoding: 273 273 241
Width: 1294
Flags: W
HStem: -13 21G<299.617 887.61>
VStem: 142.899 438.827<250.707 909.804> 152 381.677<325.397 1126.19>
LayerCount: 2
Fore
SplineSet
537.759 1131.29 m 1xc0
 534.524 1103.35 533.677 1074.76 533.677 1044 c 0xa0
 533.677 784.561 572.583 520.494 581.727 249.312 c 1
 779.687 365.707 791.52 421.932 791.52 611 c 0
 791.52 773.474 753.733 1051.78 537.759 1131.29 c 1xc0
152 869.681 m 0
 152 965.202 121 1099.46 121 1203.36 c 0
 121 1317.63 250.866 1353 317 1353 c 2
 430.296 1353 l 1
 430.296 1341.74 l 1
 686.877 1310.41 902.795 1212.72 994.652 1175.26 c 1
 1050 1148.57 l 1
 1050 1112.35 l 1
 1138.03 1002.28 1167 926.511 1167 787.778 c 0
 1167 752.453 1162 721.139 1162 699.44 c 0
 1162 671.444 1163.58 674.256 1174.12 658.743 c 2
 1186.22 640.93 l 1
 1180.11 620.64 l 2
 1116.84 410.43 1171.41 130.513 603.811 -13 c 1
 314 -13 l 2
 285.233 -13 259.362 -2.58008 241.553 9.00684 c 1
 143.736 65.6719 142.899 191.153 142.899 257.056 c 0xc0
 142.899 282.521 144 303.827 144 312.934 c 0
 144 501.016 152 685.991 152 869.681 c 0
EndSplineSet
EndChar

StartChar: gcedilla
Encoding: 291 291 259
Width: 1559
Flags: W
HStem: -16 311<648.171 1044.05> 415.532 310.608<692.779 1069.68> 1042.96 312.11<645.472 1165.88>
VStem: 105 383.412<425.453 858.895>
LayerCount: 2
Fore
SplineSet
932.343 1043 m 0
 879.464 1043 832.64 1048 809.723 1048 c 0
 593.22 1048 509.093 855.055 488.412 707.185 c 1
 488.412 637.593 l 2
 488.412 482.591 489.496 295 915.312 295 c 0
 1051.13 295 1068.42 352.673 1069.68 416.998 c 1
 1060.64 417 l 2
 1030.16 417 990.084 416 945.967 416 c 0
 934.99 416 917.016 415.532 896.066 415.532 c 2
 893.248 415.532 l 2
 822.243 415.532 620.116 416.526 620.116 565 c 0
 620.116 717.522 833.779 726.14 923.116 726.14 c 0
 934.498 726.14 943.862 726 950.509 726 c 2
 1076.54 726 l 1
 1076.54 724.917 l 1
 1082.75 724.918 l 2
 1097.86 724.918 1113.33 725.002 1128.97 725.002 c 0
 1241.81 725.002 1363.81 720.61 1424.77 648.465 c 0
 1443.93 625.88 1452 605.368 1452 578.105 c 0
 1452 507.542 1423.44 452.545 1423 447.899 c 0
 1423.12 398.178 1436 332.834 1436 259.066 c 0
 1436 37.3574 1152.59 -16 842.648 -16 c 0
 126.771 -16 105 394.834 105 619.572 c 2
 105 681.92 l 2
 105 902.369 124.646 1312.85 757.003 1350.88 c 0
 793.917 1352.98 831.182 1354 871.033 1354 c 0
 882.543 1354 908.85 1355.07 939.783 1355.07 c 0
 1017.4 1355.07 1233 1354.37 1233 1200 c 0
 1233 1048.65 1019.91 1042.96 947.118 1042.96 c 0
 941.204 1042.96 936.215 1043 932.343 1043 c 0
EndSplineSet
EndChar

StartChar: Hbar
Encoding: 294 294 262
Width: 1413
Flags: W
HStem: -30 21G<1031.67 1147.33> 668 431<554.02 843.656>
VStem: 117 351.154<1100.96 1493.11> 124 1143<842.951 1097.39> 823.64 394.36<1103.42 1461.38> 844.49 373.51<1103.01 1461.38> 903.95 370.05<26.6125 630.475>
LayerCount: 2
Fore
SplineSet
1218 1264.69 m 1xc8
 1229.02 1151.21 1267 1016.2 1267 922.509 c 0xd0
 1267 890.365 1253.48 862.294 1235.84 841.994 c 1
 1256.97 604.733 1274 366.687 1274 127.812 c 0
 1274 47.9844 1200.66 -30 1094 -30 c 0
 969.344 -30 903.95 55.6104 903.95 120.97 c 0xc2
 903.95 176.546 915.76 285.102 915.76 399.61 c 0
 915.76 597.564 846.921 668 802.382 668 c 0
 718.808 668 630.073 667.306 554.02 664.009 c 1
 574.838 505.712 653.574 334.188 653.574 144.342 c 0
 653.574 120.537 641.011 97.5654 626.243 82.5557 c 0
 569.366 22.2363 470.19 6 383.121 6 c 0
 353.605 6 329.247 14.4453 311.346 25.5127 c 0
 138.038 123.454 124 593.218 124 929.508 c 0xd0
 124 931.227 124.237 938.114 124.89 943.96 c 0
 116.988 1165.43 117 1358.53 117 1419.2 c 2
 117 1525 l 1
 525.764 1525 l 1
 482.647 1417.59 l 1
 472.79 1385.51 468.154 1341.35 468.154 1305.3 c 0
 468.154 1243.22 484.627 1170.22 497.6 1097.55 c 1
 579.507 1098.35 672.926 1099 774.038 1099 c 0
 797.9 1099 821.891 1098.73 844.49 1098.48 c 1xe4
 835.302 1203.72 823.64 1309.76 823.64 1418.83 c 2
 823.64 1550 l 1
 961.82 1550 l 2
 1175.12 1550 1218 1402.62 1218 1318.92 c 2
 1218 1264.69 l 1xc8
EndSplineSet
EndChar

StartChar: hbar
Encoding: 295 295 263
Width: 1309
Flags: W
HStem: 5 1350<211.245 461.248> 530 376<520.315 839.291> 1357 20G<1058.62 1077.37>
VStem: 134 405.715<908.15 1278.07> 137.885 373.232<258.995 544.078 904.241 1163.98> 773.26 436.74<998.854 1309.19> 823.305 436.695<118.557 513.825>
LayerCount: 2
Fore
SplineSet
1210 1238.66 m 0x74
 1210 874.406 1260 505.156 1260 126.47 c 0
 1260 20.8594 1136.78 0 1089 0 c 2
 1086 0 l 2
 829.515 0 823.305 239.815 823.305 335.697 c 0
 823.305 413.127 836.969 489.709 841.098 530.011 c 1
 834.287 529.998 831.654 530 826.88 530 c 0x62
 715.347 530 613.961 538.505 519.908 544.078 c 1
 514.949 508.68 511.117 476.473 511.117 446.146 c 2
 511.117 437.942 l 2
 511.117 368.703 568.312 272.111 568.312 156.302 c 0
 568.312 58.8174 433.279 5 334 5 c 0
 147.219 5 137.885 200.284 137.885 305.569 c 0xaa
 137.885 317.26 138 327.841 138 336.922 c 0
 138 434.903 146 537.885 146 606.55 c 0
 146 652.759 147 682.075 147 707.893 c 0
 147 749.824 152 785.145 152 811.095 c 0
 152 936.259 134 1070.36 134 1210.89 c 0
 134 1309.69 235.757 1355 311 1355 c 0xb0
 501.937 1355 539.715 1212.11 539.715 1168.22 c 0
 539.715 1077.8 528.516 987.52 520.315 904.241 c 1
 567.814 905.145 619.365 906 676.744 906 c 0
 729.378 906 788.29 905 839.291 903.234 c 1
 815.943 1004.84 773.26 1116.25 773.26 1236.94 c 0
 773.26 1262.89 789.677 1284.09 802.347 1296.36 c 0
 864.679 1360.2 968.276 1373.29 1026.93 1373.98 c 1
 1035.26 1375.1 1049.25 1377 1068 1377 c 0
 1086.74 1377 1118.9 1373.59 1149.1 1353.57 c 0
 1199.26 1322.16 1210 1274.71 1210 1238.66 c 0x74
EndSplineSet
EndChar

StartChar: IJ
Encoding: 306 306 273
Width: 1681
Flags: W
HStem: 19.9336 279.222<130.623 261.328> 20 235.74<670.024 779.018> 1290.01 263.994<582.102 725.357 810.668 995.119>
VStem: 217 365.102<799.285 1266.86> 261.328 408.696<299.155 796.459> 1050.82 382.176<189.308 958.741>
LayerCount: 2
Fore
SplineSet
1052.31 -194 m 1xb4
 1022.75 -194 l 2
 950.714 -194 773.415 -172.389 773.415 -29 c 2
 773.415 -28 l 2
 773.415 -4.5332 776.192 16.2217 781.188 34.7275 c 1
 734.927 20.5986 687.677 20 672.334 20 c 2
 265.249 20 l 2x74
 264.649 19.9893 262.203 19.9336 259.274 19.9336 c 0
 239.521 19.9336 86 22.8398 86 157.755 c 0
 86 281.837 220.173 297.975 261.328 299.155 c 1xac
 255.366 547.997 212 804.046 212 1070.53 c 0
 212 1135.7 217 1195.83 217 1252.33 c 2
 217 1254.08 l 1
 166.246 1262.26 86 1297.71 86 1386.34 c 0
 86 1530.11 287.236 1534.92 328.787 1540.49 c 0
 419.678 1552.1 517.716 1554 564.515 1554 c 0
 618.144 1554 712.655 1536.73 760.591 1479.55 c 1
 851.286 1559.59 1060.03 1548.02 1102.99 1549.94 c 0
 1169.54 1553 1227.03 1553 1251.86 1553 c 0
 1255.38 1553 1268.96 1553.54 1284.42 1553.54 c 0
 1332.35 1553.54 1508 1551.43 1508 1409.43 c 0
 1508 1323.83 1431.46 1290.25 1389.36 1279.05 c 1
 1387.83 1204.79 1385 1135.12 1385 1065.56 c 0
 1385 840.375 1433 602.961 1433 354.195 c 0
 1433 102.373 1345.4 -74.5908 1063.83 -189.211 c 1
 1052.31 -194 l 1xb4
931.774 1289 m 0
 877.576 1289 796.243 1306.23 751.255 1353.93 c 1
 713.271 1314.22 651.759 1290 585.854 1290 c 2
 582.102 1290.01 l 1x74
 590.511 954.015 667.364 611.627 670.024 255.74 c 1x6c
 735.799 253.776 882.81 239.205 886.768 112.275 c 1
 962.603 159.78 1048.58 185.925 1048.58 270 c 0
 1048.58 358.772 1050.82 447.756 1050.82 537 c 0
 1050.82 794.363 1041.24 1057.57 985.135 1291.53 c 1
 968.267 1290 951.086 1289 931.774 1289 c 0
EndSplineSet
EndChar

StartChar: ij
Encoding: 307 307 274
Width: 2007
Flags: W
HStem: 24 295.151<728.09 950.193> 1050 306.769<120.66 279.923> 1160.96 199.008<703.266 791.497 952.966 1154.21>
VStem: 267 418.916<319.388 1000.75> 281 424.406<664.669 1050.17> 283.426 444.664<319 580.164> 1154.21 466.932<585.655 1023.71> 1215.84 430.158<117.782 877.844>
LayerCount: 2
Fore
SplineSet
1646 160.781 m 0xa1
 1646 -24.5957 1560.93 -216.899 1083.11 -253.784 c 1
 1033.57 -257.396 l 1
 710.579 -70.8145 l 1
 910.866 2.03125 l 1
 1205.91 102.381 1215.84 122.026 1215.84 267 c 0xa1
 1215.84 560.706 1159.36 860.082 1154.21 1160.96 c 1
 1087.95 1164.89 916.929 1173.86 885.738 1281.71 c 1
 880.859 1242.14 855.532 1215.97 849.217 1207.71 c 2
 813.514 1161 l 1
 703.266 1161 l 1
 704.721 1138.57 705.406 1117.8 705.406 1096 c 0xaa
 705.406 967.375 685.916 845.1 685.916 733 c 1xb0
 700.661 608.982 728.09 473.597 728.09 329 c 2
 728.09 319 l 1
 740.976 319 l 2
 745.009 319 751.941 319.151 761.021 319.151 c 0
 828.003 319.151 1011.92 310.919 1011.92 173 c 0
 1011.92 69.8428 889.822 24 802.028 24 c 0
 751.71 24 701.579 23 646.997 23 c 0
 622.384 23 578.447 22 513.431 22 c 0
 462.344 22 417.205 18 360.785 18 c 0
 308.941 18 221.399 21.8877 169.879 94.2285 c 1
 154 117.71 l 1
 154 144.497 l 2
 154 179.066 169.218 279.372 283.426 293.4 c 1xa4
 278.888 386.312 267 482.483 267 584.963 c 0xb0
 267 715.46 281 840.275 281 958.995 c 0
 281 988.69 279.548 1020.96 277.239 1050.17 c 1
 270.027 1050.06 264.897 1050 258 1050 c 0
 216.754 1050 73 1063.94 73 1207 c 0
 73 1349.65 226.976 1356.77 273.581 1356.77 c 0xc8
 289.999 1356.77 304.141 1356 306 1356 c 2
 329.354 1356 l 2
 353.033 1356 400.638 1357.63 456.112 1357.63 c 0
 464.219 1357.63 473.06 1357.66 482.508 1357.66 c 0
 608.9 1357.66 843.857 1353.34 881.428 1229.11 c 1
 893.392 1355.43 1078.5 1359.01 1112.56 1359.01 c 2
 1117 1359 l 1
 1119.09 1359 l 2
 1125.38 1359 1155.26 1359.96 1199.48 1359.96 c 0
 1386.11 1359.96 1828 1342.78 1828 1163.37 c 0
 1828 1044.71 1700.78 1022.29 1654 1022.29 c 0
 1642.8 1022.29 1630.44 1022.95 1621.14 1023.71 c 1xaa
 1626.71 816.386 1646 609.027 1646 394.97 c 0
 1646 362.765 1643 334.905 1643 314.085 c 0
 1643 265.08 1646 214.26 1646 160.781 c 0xa1
EndSplineSet
EndChar

StartChar: kgreenlandic
Encoding: 312 312 279
Width: 1321
Flags: W
HStem: -35 21G<290.107 344.619 927.641 1094.21>
VStem: 137 367.189<19.5817 530.786>
LayerCount: 2
Fore
SplineSet
861.617 780.668 m 0
 861.617 669.249 1242 304.457 1242 107.463 c 0
 1242 -2.16406 1124.43 -35 1064 -35 c 0
 791.282 -35 611.071 309.717 505.228 530.786 c 1
 504.46 518.746 504.189 509.294 504.189 498 c 2
 504.189 119 l 2
 504.189 88.2363 494.059 49.7109 459.929 18.0947 c 0
 417.341 -22.2559 362.237 -31 327 -31 c 0
 253.215 -31 137 6.61035 137 117.115 c 2
 137 656.479 l 2
 137 862.447 188 1053.94 188 1231.24 c 2
 188 1257.19 l 1
 202.95 1279.07 l 2
 241.13 1335.16 308.946 1357 369 1357 c 0
 449.413 1357 614.536 1314.71 614.536 1192 c 2
 614.536 1146.76 l 1
 587.473 1125.81 l 1
 583.669 1114.69 578.604 1092.96 574.387 1068.24 c 1
 696.242 1190.29 842.253 1344 998 1344 c 2
 1000.02 1344 l 2
 1030.87 1344 1203 1342.35 1203 1205.26 c 0
 1203 1108.72 964.602 924.796 867.663 851.116 c 1
 865.264 821.062 861.617 799.671 861.617 780.668 c 0
EndSplineSet
EndChar

StartChar: Eng
Encoding: 330 330 294
Width: 1516
Flags: W
HStem: -22 21G<1302.29 1581.12> 1 1553<200.335 466.867> 1275 273.939<675.828 779.693> 1576 20G<1381.07 1473.03>
VStem: 131 350.103<116.357 1036.35> 173 297<1 885.148>
LayerCount: 2
Fore
SplineSet
173 135.233 m 2xd4
 173.664 138.351 174.596 142.654 174.971 145.872 c 0
 174.241 155.936 165 199.554 165 248.729 c 0
 165 411.398 131 685.71 131 806.12 c 2
 131 1036.02 l 2
 131 1155.2 149 1265.36 149 1366.33 c 2
 149 1377.59 l 2
 149 1380.2 148.969 1383.34 148.969 1386.88 c 0
 148.969 1411.51 150.817 1456.93 187.378 1497.06 c 0
 231.84 1546.56 294.188 1554 351 1554 c 0xd8
 406.413 1554 508.806 1544.98 576.642 1490.13 c 1
 671.304 1551.18 813.668 1545.89 887.903 1548.94 c 0
 954.071 1552 1012.62 1552 1040.64 1552 c 0
 1048.9 1552 1058.99 1552.11 1070.28 1552.11 c 0
 1115.1 1552.11 1178.41 1550.9 1239.87 1530.59 c 1
 1289.4 1582.33 1356.14 1596 1406 1596 c 0
 1540.05 1596 1580 1487.88 1580 1432.76 c 2
 1580 1395.76 l 1
 1575.34 1389.2 1564.6 1374.17 1563 1368.13 c 1
 1562.97 1144.5 1553 921.753 1553 701.93 c 2
 1553 149.351 l 2
 1553 110.579 1535.33 74.2979 1510.65 48.4746 c 1
 1581.12 -22 l 1
 1334.95 -22 l 2
 1269.62 -22 1205.55 -5.7959 1149.37 18.585 c 1
 1074.31 -75.1416 964.407 -139.399 830.991 -195 c 1
 801.017 -195 l 2
 729.537 -195 549.353 -173.6 549.353 -30 c 2
 549.353 -29 l 2
 549.353 207.809 820.275 183.193 825.843 335.246 c 1
 675.425 582.348 577.627 882.233 481.103 1036.35 c 1xb8
 470 1 l 1
 173 1 l 1
 173 135.233 l 2xd4
769.756 1277.49 m 1
 752.034 1275.93 735.328 1275 716.108 1275 c 0xb0
 701.253 1275 685.651 1276.31 671.597 1278.47 c 1
 702.896 1212.4 750.4 1142.78 805.451 1072.92 c 1
 796.343 1143.45 784.611 1211.62 769.756 1277.49 c 1
EndSplineSet
EndChar

StartChar: eng
Encoding: 331 331 295
Width: 1864
Flags: W
HStem: -6 21G<1338.9 1448.15>
VStem: 138 360.647<211.285 974.207> 143 355.647<65.8489 798.427> 1363.83 366.171<435.806 1284.4>
LayerCount: 2
Fore
SplineSet
1540 1344 m 0xd0
 1648.18 1344 1730 1269.21 1730 1183.63 c 2
 1730 980.623 l 2
 1730 957.489 1730.11 930.588 1730.11 900.866 c 2
 1730.12 865.234 l 2
 1730.12 614.506 1726.15 194.673 1556.19 49.0752 c 1
 1523.98 17.2676 1477.37 -6 1418.94 -6 c 0
 1258.85 -6 1210.48 114.169 1201.24 146.041 c 1
 1187.49 164.068 l 1
 1187.49 195 l 2
 1187.49 279.49 730.272 742.5 498.647 977.285 c 1
 498.647 168 l 2
 498.647 141.878 496.847 88.2422 449.12 44.9375 c 0
 413.437 12.5615 368.411 2 332 2 c 0
 154.057 2 143 170.131 143 201.863 c 0xb0
 143 402.855 138 604.581 138 807.959 c 0
 138 925.475 154 1037.31 154 1138.89 c 0
 154 1210.68 181.926 1295.88 288.528 1348.75 c 1
 445.745 1434.45 l 1
 445.745 1344.91 l 1
 779.227 1268.45 1126.67 749.065 1337.44 424.875 c 1
 1358.02 658.056 1363.8 891.645 1363.83 1125.4 c 0
 1363.45 1130.2 1359.42 1153.81 1359.42 1181 c 0
 1359.42 1205.82 1364.09 1249.12 1398.57 1287.3 c 0
 1438.52 1332.42 1495.3 1344 1540 1344 c 0xd0
EndSplineSet
EndChar

StartChar: Tbar
Encoding: 358 358 318
Width: 1202
Flags: W
HStem: -14 1565.6<464.683 835.03> 782.082 267.086<867.336 1032.55> 804.082 275.791<143.564 330.668> 1224 327.599<204.768 332.663> 1253.35 296.653<860.834 999.84>
VStem: 332.741 533.259<1065.48 1225.88> 355.16 550.84<75.832 462.764> 393.771 490.229<178.527 779.333>
LayerCount: 2
Fore
SplineSet
867.336 781.681 m 1x4c
 873.528 731.566 885.498 684.065 902 638.928 c 1
 902 609.778 l 1
 890.284 573.403 884 533.292 884 487.306 c 0x49
 884 391.398 906 283.79 906 165.306 c 0
 906 125.47 884.934 -14 671.517 -14 c 0
 434.925 -14 355.16 103.534 355.16 173.269 c 0x82
 355.16 285.642 393.771 385.189 393.771 466.593 c 0x81
 393.771 573.533 369.304 688.787 349.899 804.082 c 1
 275.309 806.027 94 805.578 94 945.275 c 0
 94 1074.58 243.89 1079.87 284.434 1079.87 c 0
 298.982 1079.87 311.471 1079.08 313.435 1079 c 0
 316.28 1079.02 321.109 1079.11 326.908 1079.26 c 1
 329.156 1107.27 332.741 1140.48 332.741 1172.3 c 0
 332.741 1191.79 331.065 1211.7 328.028 1227.19 c 1
 302.699 1225.34 281.598 1224 257 1224 c 0x34
 212.065 1224 68 1242.43 68 1375 c 0
 68 1540.2 428.978 1551.6 647.309 1551.6 c 0x84
 682.26 1551.6 713.556 1551.31 739.13 1551.31 c 0
 810.781 1551.31 857.554 1550 863 1550 c 0
 919.85 1550 1051 1520.53 1051 1399.8 c 0
 1051 1278.92 921.421 1253.35 868 1253.35 c 0
 865.606 1253.35 863.067 1253.37 860.834 1253.4 c 1
 864.611 1209.85 866 1170.15 866 1128.49 c 0
 866 1101.86 865.195 1075.09 864.372 1049.17 c 1
 924.383 1045.82 1077 1037.76 1077 913.51 c 0
 1077 787.273 931.793 782.039 895.874 782.039 c 0
 892.627 782.039 890.273 782.082 889 782.082 c 0
 885.108 782.082 877.266 781.93 867.336 781.681 c 1x4c
EndSplineSet
EndChar

StartChar: tbar
Encoding: 359 359 319
Width: 1168
Flags: W
HStem: 588.417 255.892<898.514 1027.1> 628.498 274.502<137.526 334.954> 1033 309<848.805 1008.24> 1100.57 259.453<129.263 318.567>
VStem: 441.133 494.867<54.735 317.431>
LayerCount: 2
Fore
SplineSet
83 1236.77 m 0x58
 83 1355.67 235.297 1360.03 265.307 1360.03 c 0x58
 267.684 1360.03 269.294 1360 270 1360 c 0
 407.924 1360 643.249 1341 835 1341 c 0
 841.935 1341 858.299 1342 878 1342 c 0
 904.089 1342 1063 1339.26 1063 1191 c 0
 1063 1054.53 920.057 1033 873 1033 c 0
 864.858 1033 855.387 1033.38 848.805 1033.79 c 1
 851.833 969.808 857.633 906.697 864.921 844.309 c 1
 921.386 840.991 1070 832.842 1070 714.621 c 0
 1070 597.858 931.559 589.521 898.514 588.417 c 1xa8
 918.18 442.147 936 297.027 936 146.087 c 0
 936 39.0732 816.12 6 720.681 6 c 2
 441.133 6 l 1
 441.133 99.6777 l 2
 441.133 140.256 432.319 211.561 432.319 264.325 c 0
 432.319 286.874 437.067 305.729 439.704 318.012 c 1
 418.767 373.972 400.754 488.937 376.948 628.498 c 1
 290.104 629.733 87 622.76 87 769.619 c 0
 87 899.268 240.112 903.74 279.556 903.74 c 0
 292.954 903.74 304.174 903.086 306.377 903 c 0
 311.028 903.009 322.749 903.253 334.954 903.533 c 1
 325.293 980.355 319.142 1050.27 315.223 1100.57 c 1
 256.691 1102.18 83 1107.48 83 1236.77 c 0x58
EndSplineSet
EndChar

StartChar: dotlessj
Encoding: 567 567 378
Width: 1267
Flags: W
HStem: 1079.68 279.316<181.391 454.018>
VStem: 410.609 600.391<165.773 1013.93> 454.479 531.661<237.395 1023.64>
LayerCount: 2
Fore
SplineSet
1011 394.962 m 2xc0
 1011 165.773 l 1
 988.134 140.356 l 1
 965.431 104.339 977.687 -254 283 -254 c 2
 256.9 -254 l 1
 59 -145.155 l 1
 59 -85 l 2
 59 55.5186 290.483 116.054 337.846 129.511 c 1
 380.356 152.899 410.609 210.666 410.609 251.248 c 0xc0
 410.609 508.182 454.479 770.323 454.479 1033.77 c 0
 454.479 1049.07 454.331 1064.37 454.018 1079.68 c 1
 283.437 1083.95 121 1096.04 121 1226.37 c 0
 121 1357.94 290.08 1359 407.296 1359 c 2
 412.997 1359 l 1
 414.9 1359 l 2
 419.747 1359 454.099 1360.14 505.894 1360.14 c 0
 711.718 1360.14 1193 1342.16 1193 1163.37 c 0
 1193 1044.34 1064.43 1022.29 1018 1022.29 c 0
 1007.11 1022.29 995.05 1022.92 986.14 1023.64 c 1xa0
 991.708 816.468 1011 608.979 1011 394.962 c 2xc0
EndSplineSet
EndChar

StartChar: dotaccentcmb
Encoding: 775 775 379
Width: 478
Flags: W
HStem: 1288 356<111.981 370.104>
VStem: 41 399<1352.44 1574.68>
LayerCount: 2
Fore
SplineSet
41 1463 m 0
 41 1581.38 153.048 1644 243 1644 c 0
 334.913 1644 440 1577.79 440 1465 c 0
 440 1332.09 312.227 1288 233 1288 c 0
 141.972 1288 41 1352.73 41 1463 c 0
EndSplineSet
EndChar

StartChar: uni030F
Encoding: 783 783 380
Width: 1904
Flags: W
LayerCount: 2
Fore
SplineSet
1186.85 -129.353 m 1
 537.08 446.477 l 1
 754.952 680.765 l 1
 1399.88 25.5802 l 1
 1186.85 -129.353 l 1
1658.06 -57 m 1
 1647 -57 l 1
 1647 -46.1077 l 1
 1054.78 537.303 l 1
 1366.94 675.374 l 1
 1912.98 5.89596 l 1
 1851 -50.8048 l 1
 1851 -57 l 1
 1844.23 -57 l 1
 1747.7 -145.312 l 1
 1658.06 -57 l 1
EndSplineSet
EndChar

StartChar: uni0311
Encoding: 785 785 381
Width: 710
Flags: W
HStem: 765 479<187.389 297.931 401.468 527.72>
VStem: 32 673.394
LayerCount: 2
Fore
SplineSet
690 928 m 0
 690 818.246 585.489 774 518 774 c 0
 472.748 774 420.809 785.061 382.65 826.273 c 0
 367.619 842.378 356.715 862.778 351.195 877.788 c 1
 324.048 826.136 272.291 765 183 765 c 2
 152.939 765 l 1
 32 843.255 l 1
 32 899 l 2
 32 1036.67 109.937 1244 359 1244 c 0
 557.922 1244 627.164 1106.95 671.422 1028.05 c 2
 705.394 968.103 l 1
 688.763 947.314 l 1
 689.69 940.651 690 934.899 690 928 c 0
EndSplineSet
EndChar

StartChar: uni0326
Encoding: 806 806 382
Width: 692
Flags: W
HStem: -662 590<234.945 407.987>
VStem: 156 457<-362.966 -164.195>
LayerCount: 2
Fore
SplineSet
389 -72 m 0
 527.947 -72 582.149 -173.313 613 -236.157 c 1
 613 -267 l 2
 613 -280.846 610.42 -291.946 608.408 -299.198 c 1
 597.22 -429.46 468.817 -662 265 -662 c 2
 84 -662 l 1
 84 -437.5 l 1
 124.209 -407.343 l 2
 144.407 -391.898 167.988 -376.972 187.636 -364.283 c 1
 169.36 -336.304 156 -301.132 156 -261 c 0
 156 -112.349 312.906 -72 389 -72 c 0
EndSplineSet
EndChar

StartChar: Euro
Encoding: 8364 8364 383
Width: 967
Flags: W
HStem: -135 330<537.728 755.456> 552 423.323<27.0976 97.7608 461.575 663.735> 1345.97 321.033<471.21 741.979>
VStem: 108 345.815<983.583 1325.45> 117.23 344.345<283.849 548.485>
LayerCount: 2
Fore
SplineSet
78.7422 552 m 1xe8
 37.8612 581.012 -8 618.712 -8 687 c 0
 -8 714.193 1.30456 738.469 12.6301 756.171 c 1
 -12.3417 788.039 -17 822.591 -17 845 c 0
 -17 935.071 56.4201 967.676 97.7608 975.323 c 1
 97.2791 997.429 97 1016.18 97 1038 c 0
 97 1097.91 100.731 1162.54 113.927 1226.51 c 1
 109.773 1249.15 108 1268.73 108 1289 c 0
 108 1555.43 388.604 1667 634 1667 c 0
 694.546 1667 922 1648.41 922 1465 c 0
 922 1332.71 783.207 1317 745 1317 c 0
 680.388 1317 625.715 1339.57 607.557 1345.97 c 1
 462.729 1344.25 453.815 1309.61 453.815 1207.31 c 0xf0
 453.815 1192.95 453.99 1177.26 453.99 1160.14 c 0
 453.99 1153.58 454 1146.86 454 1140 c 0
 454 1085.62 453.426 1034.83 450.35 983.583 c 1
 464.804 984.448 481.89 985.305 500.949 985.305 c 0
 558.403 985.305 702 978.763 702 852 c 2
 702 851 l 2
 702 824.321 692.168 800.019 681.615 784.038 c 1
 699.229 762.09 711 733.882 711 700 c 0
 711 552.411 535.414 548.436 470.738 548.436 c 0
 467.759 548.436 463.382 548.467 461.575 548.485 c 1
 476.433 321.992 494.258 195 641 195 c 0
 704.855 195 738.107 222.379 773.561 254 c 1
 813 254 l 2
 835.283 254 854.929 255.802 873.542 260.455 c 2
 1000 292.571 l 1
 1000 135 l 2
 1000 -103.795 733.624 -135 606 -135 c 0
 154.032 -135 126.816 338.679 117.23 552 c 1
 78.7422 552 l 1xe8
EndSplineSet
EndChar

StartChar: foundryicon
Encoding: 65537 -1 384
Width: 1506
Flags: W
HStem: -25.1848 24.1653G<190.977 264.724 1074.21 1143.36>
LayerCount: 2
Fore
SplineSet
1581.16 827.081 m 1
 1126.98 490.214 l 1
 1316.5 56.1496 l 1
 1101.3 -46.1848 l 1
 693.947 254.596 l 1
 228.29 -1.01954 l 1
 26.2567 107.27 l 1
 335.582 514.599 l 1
 -56.0941 833.82 l 1
 145.342 952.124 l 1
 383.23 950 l 1
 589.172 950 l 1
 827.138 1473.07 l 1
 950.02 1223.93 l 1
 1020.46 955.556 l 1
 1347.01 951.856 l 1
 1581.16 827.081 l 1
EndSplineSet
EndChar

StartChar: commaaccent
Encoding: 65538 -1 385
Width: 681
Flags: W
HStem: -603 590<227.945 400.987>
VStem: 149 457<-303.966 -105.195>
LayerCount: 2
Fore
SplineSet
382 -13 m 0
 520.947 -13 575.149 -114.313 606 -177.157 c 1
 606 -208 l 2
 606 -221.846 603.42 -232.946 601.408 -240.198 c 1
 590.22 -370.46 461.817 -603 258 -603 c 2
 77 -603 l 1
 77 -378.5 l 1
 117.209 -348.343 l 2
 137.407 -332.898 160.988 -317.972 180.636 -305.283 c 1
 162.36 -277.304 149 -242.132 149 -202 c 0
 149 -53.3494 305.906 -13 382 -13 c 0
EndSplineSet
EndChar

